%TF.GenerationSoftware,KiCad,Pcbnew,6.0.8-f2edbf62ab~116~ubuntu20.04.1*%
%TF.CreationDate,2022-10-23T21:23:01-04:00*%
%TF.ProjectId,coco2,636f636f-322e-46b6-9963-61645f706362,1.0.0*%
%TF.SameCoordinates,Original*%
%TF.FileFunction,AssemblyDrawing,Top*%
%FSLAX46Y46*%
G04 Gerber Fmt 4.6, Leading zero omitted, Abs format (unit mm)*
G04 Created by KiCad (PCBNEW 6.0.8-f2edbf62ab~116~ubuntu20.04.1) date 2022-10-23 21:23:01*
%MOMM*%
%LPD*%
G01*
G04 APERTURE LIST*
%ADD10C,0.141000*%
%ADD11C,0.150000*%
%ADD12C,0.120000*%
%ADD13C,0.108000*%
%ADD14C,0.100000*%
%ADD15C,0.152400*%
%ADD16C,0.127000*%
%ADD17C,0.200000*%
G04 APERTURE END LIST*
D10*
%TO.C,C2*%
X137619733Y-202694714D02*
X137574971Y-202739476D01*
X137440685Y-202784238D01*
X137351161Y-202784238D01*
X137216876Y-202739476D01*
X137127352Y-202649952D01*
X137082590Y-202560428D01*
X137037828Y-202381380D01*
X137037828Y-202247095D01*
X137082590Y-202068047D01*
X137127352Y-201978523D01*
X137216876Y-201889000D01*
X137351161Y-201844238D01*
X137440685Y-201844238D01*
X137574971Y-201889000D01*
X137619733Y-201933761D01*
X137977828Y-201933761D02*
X138022590Y-201889000D01*
X138112114Y-201844238D01*
X138335923Y-201844238D01*
X138425447Y-201889000D01*
X138470209Y-201933761D01*
X138514971Y-202023285D01*
X138514971Y-202112809D01*
X138470209Y-202247095D01*
X137933066Y-202784238D01*
X138514971Y-202784238D01*
%TO.C,C4*%
X233169733Y-199944714D02*
X233124971Y-199989476D01*
X232990685Y-200034238D01*
X232901161Y-200034238D01*
X232766876Y-199989476D01*
X232677352Y-199899952D01*
X232632590Y-199810428D01*
X232587828Y-199631380D01*
X232587828Y-199497095D01*
X232632590Y-199318047D01*
X232677352Y-199228523D01*
X232766876Y-199139000D01*
X232901161Y-199094238D01*
X232990685Y-199094238D01*
X233124971Y-199139000D01*
X233169733Y-199183761D01*
X233975447Y-199407571D02*
X233975447Y-200034238D01*
X233751638Y-199049476D02*
X233527828Y-199720904D01*
X234109733Y-199720904D01*
%TO.C,C5*%
X235779733Y-125664714D02*
X235734971Y-125709476D01*
X235600685Y-125754238D01*
X235511161Y-125754238D01*
X235376876Y-125709476D01*
X235287352Y-125619952D01*
X235242590Y-125530428D01*
X235197828Y-125351380D01*
X235197828Y-125217095D01*
X235242590Y-125038047D01*
X235287352Y-124948523D01*
X235376876Y-124859000D01*
X235511161Y-124814238D01*
X235600685Y-124814238D01*
X235734971Y-124859000D01*
X235779733Y-124903761D01*
X236630209Y-124814238D02*
X236182590Y-124814238D01*
X236137828Y-125261857D01*
X236182590Y-125217095D01*
X236272114Y-125172333D01*
X236495923Y-125172333D01*
X236585447Y-125217095D01*
X236630209Y-125261857D01*
X236674971Y-125351380D01*
X236674971Y-125575190D01*
X236630209Y-125664714D01*
X236585447Y-125709476D01*
X236495923Y-125754238D01*
X236272114Y-125754238D01*
X236182590Y-125709476D01*
X236137828Y-125664714D01*
%TO.C,C6*%
X251579733Y-125664714D02*
X251534971Y-125709476D01*
X251400685Y-125754238D01*
X251311161Y-125754238D01*
X251176876Y-125709476D01*
X251087352Y-125619952D01*
X251042590Y-125530428D01*
X250997828Y-125351380D01*
X250997828Y-125217095D01*
X251042590Y-125038047D01*
X251087352Y-124948523D01*
X251176876Y-124859000D01*
X251311161Y-124814238D01*
X251400685Y-124814238D01*
X251534971Y-124859000D01*
X251579733Y-124903761D01*
X252385447Y-124814238D02*
X252206400Y-124814238D01*
X252116876Y-124859000D01*
X252072114Y-124903761D01*
X251982590Y-125038047D01*
X251937828Y-125217095D01*
X251937828Y-125575190D01*
X251982590Y-125664714D01*
X252027352Y-125709476D01*
X252116876Y-125754238D01*
X252295923Y-125754238D01*
X252385447Y-125709476D01*
X252430209Y-125664714D01*
X252474971Y-125575190D01*
X252474971Y-125351380D01*
X252430209Y-125261857D01*
X252385447Y-125217095D01*
X252295923Y-125172333D01*
X252116876Y-125172333D01*
X252027352Y-125217095D01*
X251982590Y-125261857D01*
X251937828Y-125351380D01*
%TO.C,C7*%
X273569733Y-57434714D02*
X273524971Y-57479476D01*
X273390685Y-57524238D01*
X273301161Y-57524238D01*
X273166876Y-57479476D01*
X273077352Y-57389952D01*
X273032590Y-57300428D01*
X272987828Y-57121380D01*
X272987828Y-56987095D01*
X273032590Y-56808047D01*
X273077352Y-56718523D01*
X273166876Y-56629000D01*
X273301161Y-56584238D01*
X273390685Y-56584238D01*
X273524971Y-56629000D01*
X273569733Y-56673761D01*
X273883066Y-56584238D02*
X274509733Y-56584238D01*
X274106876Y-57524238D01*
D11*
%TO.C,C8*%
X282774621Y-55996142D02*
X282727002Y-56043761D01*
X282584145Y-56091380D01*
X282488907Y-56091380D01*
X282346049Y-56043761D01*
X282250811Y-55948523D01*
X282203192Y-55853285D01*
X282155573Y-55662809D01*
X282155573Y-55519952D01*
X282203192Y-55329476D01*
X282250811Y-55234238D01*
X282346049Y-55139000D01*
X282488907Y-55091380D01*
X282584145Y-55091380D01*
X282727002Y-55139000D01*
X282774621Y-55186619D01*
X283346049Y-55519952D02*
X283250811Y-55472333D01*
X283203192Y-55424714D01*
X283155573Y-55329476D01*
X283155573Y-55281857D01*
X283203192Y-55186619D01*
X283250811Y-55139000D01*
X283346049Y-55091380D01*
X283536526Y-55091380D01*
X283631764Y-55139000D01*
X283679383Y-55186619D01*
X283727002Y-55281857D01*
X283727002Y-55329476D01*
X283679383Y-55424714D01*
X283631764Y-55472333D01*
X283536526Y-55519952D01*
X283346049Y-55519952D01*
X283250811Y-55567571D01*
X283203192Y-55615190D01*
X283155573Y-55710428D01*
X283155573Y-55900904D01*
X283203192Y-55996142D01*
X283250811Y-56043761D01*
X283346049Y-56091380D01*
X283536526Y-56091380D01*
X283631764Y-56043761D01*
X283679383Y-55996142D01*
X283727002Y-55900904D01*
X283727002Y-55710428D01*
X283679383Y-55615190D01*
X283631764Y-55567571D01*
X283536526Y-55519952D01*
%TO.C,C9*%
X195789733Y-196236142D02*
X195742114Y-196283761D01*
X195599257Y-196331380D01*
X195504019Y-196331380D01*
X195361161Y-196283761D01*
X195265923Y-196188523D01*
X195218304Y-196093285D01*
X195170685Y-195902809D01*
X195170685Y-195759952D01*
X195218304Y-195569476D01*
X195265923Y-195474238D01*
X195361161Y-195379000D01*
X195504019Y-195331380D01*
X195599257Y-195331380D01*
X195742114Y-195379000D01*
X195789733Y-195426619D01*
X196265923Y-196331380D02*
X196456400Y-196331380D01*
X196551638Y-196283761D01*
X196599257Y-196236142D01*
X196694495Y-196093285D01*
X196742114Y-195902809D01*
X196742114Y-195521857D01*
X196694495Y-195426619D01*
X196646876Y-195379000D01*
X196551638Y-195331380D01*
X196361161Y-195331380D01*
X196265923Y-195379000D01*
X196218304Y-195426619D01*
X196170685Y-195521857D01*
X196170685Y-195759952D01*
X196218304Y-195855190D01*
X196265923Y-195902809D01*
X196361161Y-195950428D01*
X196551638Y-195950428D01*
X196646876Y-195902809D01*
X196694495Y-195855190D01*
X196742114Y-195759952D01*
D10*
%TO.C,C10*%
X199462114Y-163223285D02*
X199506876Y-163268047D01*
X199551638Y-163402333D01*
X199551638Y-163491857D01*
X199506876Y-163626142D01*
X199417352Y-163715666D01*
X199327828Y-163760428D01*
X199148780Y-163805190D01*
X199014495Y-163805190D01*
X198835447Y-163760428D01*
X198745923Y-163715666D01*
X198656400Y-163626142D01*
X198611638Y-163491857D01*
X198611638Y-163402333D01*
X198656400Y-163268047D01*
X198701161Y-163223285D01*
X199551638Y-162328047D02*
X199551638Y-162865190D01*
X199551638Y-162596619D02*
X198611638Y-162596619D01*
X198745923Y-162686142D01*
X198835447Y-162775666D01*
X198880209Y-162865190D01*
X198611638Y-161746142D02*
X198611638Y-161656619D01*
X198656400Y-161567095D01*
X198701161Y-161522333D01*
X198790685Y-161477571D01*
X198969733Y-161432809D01*
X199193542Y-161432809D01*
X199372590Y-161477571D01*
X199462114Y-161522333D01*
X199506876Y-161567095D01*
X199551638Y-161656619D01*
X199551638Y-161746142D01*
X199506876Y-161835666D01*
X199462114Y-161880428D01*
X199372590Y-161925190D01*
X199193542Y-161969952D01*
X198969733Y-161969952D01*
X198790685Y-161925190D01*
X198701161Y-161880428D01*
X198656400Y-161835666D01*
X198611638Y-161746142D01*
D11*
%TO.C,C11*%
X256803542Y-196596142D02*
X256755923Y-196643761D01*
X256613066Y-196691380D01*
X256517828Y-196691380D01*
X256374971Y-196643761D01*
X256279733Y-196548523D01*
X256232114Y-196453285D01*
X256184495Y-196262809D01*
X256184495Y-196119952D01*
X256232114Y-195929476D01*
X256279733Y-195834238D01*
X256374971Y-195739000D01*
X256517828Y-195691380D01*
X256613066Y-195691380D01*
X256755923Y-195739000D01*
X256803542Y-195786619D01*
X257755923Y-196691380D02*
X257184495Y-196691380D01*
X257470209Y-196691380D02*
X257470209Y-195691380D01*
X257374971Y-195834238D01*
X257279733Y-195929476D01*
X257184495Y-195977095D01*
X258708304Y-196691380D02*
X258136876Y-196691380D01*
X258422590Y-196691380D02*
X258422590Y-195691380D01*
X258327352Y-195834238D01*
X258232114Y-195929476D01*
X258136876Y-195977095D01*
%TO.C,C14*%
X285243542Y-202546142D02*
X285195923Y-202593761D01*
X285053066Y-202641380D01*
X284957828Y-202641380D01*
X284814971Y-202593761D01*
X284719733Y-202498523D01*
X284672114Y-202403285D01*
X284624495Y-202212809D01*
X284624495Y-202069952D01*
X284672114Y-201879476D01*
X284719733Y-201784238D01*
X284814971Y-201689000D01*
X284957828Y-201641380D01*
X285053066Y-201641380D01*
X285195923Y-201689000D01*
X285243542Y-201736619D01*
X286195923Y-202641380D02*
X285624495Y-202641380D01*
X285910209Y-202641380D02*
X285910209Y-201641380D01*
X285814971Y-201784238D01*
X285719733Y-201879476D01*
X285624495Y-201927095D01*
X287053066Y-201974714D02*
X287053066Y-202641380D01*
X286814971Y-201593761D02*
X286576876Y-202308047D01*
X287195923Y-202308047D01*
%TO.C,C15*%
X285243542Y-199216142D02*
X285195923Y-199263761D01*
X285053066Y-199311380D01*
X284957828Y-199311380D01*
X284814971Y-199263761D01*
X284719733Y-199168523D01*
X284672114Y-199073285D01*
X284624495Y-198882809D01*
X284624495Y-198739952D01*
X284672114Y-198549476D01*
X284719733Y-198454238D01*
X284814971Y-198359000D01*
X284957828Y-198311380D01*
X285053066Y-198311380D01*
X285195923Y-198359000D01*
X285243542Y-198406619D01*
X286195923Y-199311380D02*
X285624495Y-199311380D01*
X285910209Y-199311380D02*
X285910209Y-198311380D01*
X285814971Y-198454238D01*
X285719733Y-198549476D01*
X285624495Y-198597095D01*
X287100685Y-198311380D02*
X286624495Y-198311380D01*
X286576876Y-198787571D01*
X286624495Y-198739952D01*
X286719733Y-198692333D01*
X286957828Y-198692333D01*
X287053066Y-198739952D01*
X287100685Y-198787571D01*
X287148304Y-198882809D01*
X287148304Y-199120904D01*
X287100685Y-199216142D01*
X287053066Y-199263761D01*
X286957828Y-199311380D01*
X286719733Y-199311380D01*
X286624495Y-199263761D01*
X286576876Y-199216142D01*
D10*
%TO.C,C16*%
X279152114Y-99204714D02*
X279107352Y-99249476D01*
X278973066Y-99294238D01*
X278883542Y-99294238D01*
X278749257Y-99249476D01*
X278659733Y-99159952D01*
X278614971Y-99070428D01*
X278570209Y-98891380D01*
X278570209Y-98757095D01*
X278614971Y-98578047D01*
X278659733Y-98488523D01*
X278749257Y-98399000D01*
X278883542Y-98354238D01*
X278973066Y-98354238D01*
X279107352Y-98399000D01*
X279152114Y-98443761D01*
X280047352Y-99294238D02*
X279510209Y-99294238D01*
X279778780Y-99294238D02*
X279778780Y-98354238D01*
X279689257Y-98488523D01*
X279599733Y-98578047D01*
X279510209Y-98622809D01*
X280853066Y-98354238D02*
X280674019Y-98354238D01*
X280584495Y-98399000D01*
X280539733Y-98443761D01*
X280450209Y-98578047D01*
X280405447Y-98757095D01*
X280405447Y-99115190D01*
X280450209Y-99204714D01*
X280494971Y-99249476D01*
X280584495Y-99294238D01*
X280763542Y-99294238D01*
X280853066Y-99249476D01*
X280897828Y-99204714D01*
X280942590Y-99115190D01*
X280942590Y-98891380D01*
X280897828Y-98801857D01*
X280853066Y-98757095D01*
X280763542Y-98712333D01*
X280584495Y-98712333D01*
X280494971Y-98757095D01*
X280450209Y-98801857D01*
X280405447Y-98891380D01*
D11*
%TO.C,C17*%
X285790208Y-64181857D02*
X285837827Y-64229476D01*
X285885446Y-64372333D01*
X285885446Y-64467571D01*
X285837827Y-64610428D01*
X285742589Y-64705666D01*
X285647351Y-64753285D01*
X285456875Y-64800904D01*
X285314018Y-64800904D01*
X285123542Y-64753285D01*
X285028304Y-64705666D01*
X284933066Y-64610428D01*
X284885446Y-64467571D01*
X284885446Y-64372333D01*
X284933066Y-64229476D01*
X284980685Y-64181857D01*
X285885446Y-63229476D02*
X285885446Y-63800904D01*
X285885446Y-63515190D02*
X284885446Y-63515190D01*
X285028304Y-63610428D01*
X285123542Y-63705666D01*
X285171161Y-63800904D01*
X284885446Y-62896142D02*
X284885446Y-62229476D01*
X285885446Y-62658047D01*
D10*
%TO.C,C18*%
X169382114Y-202684714D02*
X169337352Y-202729476D01*
X169203066Y-202774238D01*
X169113542Y-202774238D01*
X168979257Y-202729476D01*
X168889733Y-202639952D01*
X168844971Y-202550428D01*
X168800209Y-202371380D01*
X168800209Y-202237095D01*
X168844971Y-202058047D01*
X168889733Y-201968523D01*
X168979257Y-201879000D01*
X169113542Y-201834238D01*
X169203066Y-201834238D01*
X169337352Y-201879000D01*
X169382114Y-201923761D01*
X170277352Y-202774238D02*
X169740209Y-202774238D01*
X170008780Y-202774238D02*
X170008780Y-201834238D01*
X169919257Y-201968523D01*
X169829733Y-202058047D01*
X169740209Y-202102809D01*
X170814495Y-202237095D02*
X170724971Y-202192333D01*
X170680209Y-202147571D01*
X170635447Y-202058047D01*
X170635447Y-202013285D01*
X170680209Y-201923761D01*
X170724971Y-201879000D01*
X170814495Y-201834238D01*
X170993542Y-201834238D01*
X171083066Y-201879000D01*
X171127828Y-201923761D01*
X171172590Y-202013285D01*
X171172590Y-202058047D01*
X171127828Y-202147571D01*
X171083066Y-202192333D01*
X170993542Y-202237095D01*
X170814495Y-202237095D01*
X170724971Y-202281857D01*
X170680209Y-202326619D01*
X170635447Y-202416142D01*
X170635447Y-202595190D01*
X170680209Y-202684714D01*
X170724971Y-202729476D01*
X170814495Y-202774238D01*
X170993542Y-202774238D01*
X171083066Y-202729476D01*
X171127828Y-202684714D01*
X171172590Y-202595190D01*
X171172590Y-202416142D01*
X171127828Y-202326619D01*
X171083066Y-202281857D01*
X170993542Y-202237095D01*
D11*
%TO.C,C19*%
X142623542Y-102196745D02*
X142671161Y-102244364D01*
X142718780Y-102387221D01*
X142718780Y-102482459D01*
X142671161Y-102625316D01*
X142575923Y-102720554D01*
X142480685Y-102768173D01*
X142290209Y-102815792D01*
X142147352Y-102815792D01*
X141956876Y-102768173D01*
X141861638Y-102720554D01*
X141766400Y-102625316D01*
X141718780Y-102482459D01*
X141718780Y-102387221D01*
X141766400Y-102244364D01*
X141814019Y-102196745D01*
X142718780Y-101244364D02*
X142718780Y-101815792D01*
X142718780Y-101530078D02*
X141718780Y-101530078D01*
X141861638Y-101625316D01*
X141956876Y-101720554D01*
X142004495Y-101815792D01*
X142718780Y-100768173D02*
X142718780Y-100577697D01*
X142671161Y-100482459D01*
X142623542Y-100434840D01*
X142480685Y-100339602D01*
X142290209Y-100291983D01*
X141909257Y-100291983D01*
X141814019Y-100339602D01*
X141766400Y-100387221D01*
X141718780Y-100482459D01*
X141718780Y-100672935D01*
X141766400Y-100768173D01*
X141814019Y-100815792D01*
X141909257Y-100863411D01*
X142147352Y-100863411D01*
X142242590Y-100815792D01*
X142290209Y-100768173D01*
X142337828Y-100672935D01*
X142337828Y-100482459D01*
X142290209Y-100387221D01*
X142242590Y-100339602D01*
X142147352Y-100291983D01*
D10*
%TO.C,C20*%
X149907114Y-103683173D02*
X149951876Y-103727935D01*
X149996638Y-103862221D01*
X149996638Y-103951745D01*
X149951876Y-104086030D01*
X149862352Y-104175554D01*
X149772828Y-104220316D01*
X149593780Y-104265078D01*
X149459495Y-104265078D01*
X149280447Y-104220316D01*
X149190923Y-104175554D01*
X149101400Y-104086030D01*
X149056638Y-103951745D01*
X149056638Y-103862221D01*
X149101400Y-103727935D01*
X149146161Y-103683173D01*
X149146161Y-103325078D02*
X149101400Y-103280316D01*
X149056638Y-103190792D01*
X149056638Y-102966983D01*
X149101400Y-102877459D01*
X149146161Y-102832697D01*
X149235685Y-102787935D01*
X149325209Y-102787935D01*
X149459495Y-102832697D01*
X149996638Y-103369840D01*
X149996638Y-102787935D01*
X149056638Y-102206030D02*
X149056638Y-102116507D01*
X149101400Y-102026983D01*
X149146161Y-101982221D01*
X149235685Y-101937459D01*
X149414733Y-101892697D01*
X149638542Y-101892697D01*
X149817590Y-101937459D01*
X149907114Y-101982221D01*
X149951876Y-102026983D01*
X149996638Y-102116507D01*
X149996638Y-102206030D01*
X149951876Y-102295554D01*
X149907114Y-102340316D01*
X149817590Y-102385078D01*
X149638542Y-102429840D01*
X149414733Y-102429840D01*
X149235685Y-102385078D01*
X149146161Y-102340316D01*
X149101400Y-102295554D01*
X149056638Y-102206030D01*
D11*
%TO.C,C21*%
X154073542Y-104091857D02*
X154121161Y-104139476D01*
X154168780Y-104282333D01*
X154168780Y-104377571D01*
X154121161Y-104520428D01*
X154025923Y-104615666D01*
X153930685Y-104663285D01*
X153740209Y-104710904D01*
X153597352Y-104710904D01*
X153406876Y-104663285D01*
X153311638Y-104615666D01*
X153216400Y-104520428D01*
X153168780Y-104377571D01*
X153168780Y-104282333D01*
X153216400Y-104139476D01*
X153264019Y-104091857D01*
X153264019Y-103710904D02*
X153216400Y-103663285D01*
X153168780Y-103568047D01*
X153168780Y-103329952D01*
X153216400Y-103234714D01*
X153264019Y-103187095D01*
X153359257Y-103139476D01*
X153454495Y-103139476D01*
X153597352Y-103187095D01*
X154168780Y-103758523D01*
X154168780Y-103139476D01*
X154168780Y-102187095D02*
X154168780Y-102758523D01*
X154168780Y-102472809D02*
X153168780Y-102472809D01*
X153311638Y-102568047D01*
X153406876Y-102663285D01*
X153454495Y-102758523D01*
D10*
%TO.C,C22*%
X161812114Y-94693285D02*
X161856876Y-94738047D01*
X161901638Y-94872333D01*
X161901638Y-94961857D01*
X161856876Y-95096142D01*
X161767352Y-95185666D01*
X161677828Y-95230428D01*
X161498780Y-95275190D01*
X161364495Y-95275190D01*
X161185447Y-95230428D01*
X161095923Y-95185666D01*
X161006400Y-95096142D01*
X160961638Y-94961857D01*
X160961638Y-94872333D01*
X161006400Y-94738047D01*
X161051161Y-94693285D01*
X161051161Y-94335190D02*
X161006400Y-94290428D01*
X160961638Y-94200904D01*
X160961638Y-93977095D01*
X161006400Y-93887571D01*
X161051161Y-93842809D01*
X161140685Y-93798047D01*
X161230209Y-93798047D01*
X161364495Y-93842809D01*
X161901638Y-94379952D01*
X161901638Y-93798047D01*
X161051161Y-93439952D02*
X161006400Y-93395190D01*
X160961638Y-93305666D01*
X160961638Y-93081857D01*
X161006400Y-92992333D01*
X161051161Y-92947571D01*
X161140685Y-92902809D01*
X161230209Y-92902809D01*
X161364495Y-92947571D01*
X161901638Y-93484714D01*
X161901638Y-92902809D01*
D11*
%TO.C,C23*%
X155323542Y-80411857D02*
X155371161Y-80459476D01*
X155418780Y-80602333D01*
X155418780Y-80697571D01*
X155371161Y-80840428D01*
X155275923Y-80935666D01*
X155180685Y-80983285D01*
X154990209Y-81030904D01*
X154847352Y-81030904D01*
X154656876Y-80983285D01*
X154561638Y-80935666D01*
X154466400Y-80840428D01*
X154418780Y-80697571D01*
X154418780Y-80602333D01*
X154466400Y-80459476D01*
X154514019Y-80411857D01*
X154514019Y-80030904D02*
X154466400Y-79983285D01*
X154418780Y-79888047D01*
X154418780Y-79649952D01*
X154466400Y-79554714D01*
X154514019Y-79507095D01*
X154609257Y-79459476D01*
X154704495Y-79459476D01*
X154847352Y-79507095D01*
X155418780Y-80078523D01*
X155418780Y-79459476D01*
X154418780Y-79126142D02*
X154418780Y-78507095D01*
X154799733Y-78840428D01*
X154799733Y-78697571D01*
X154847352Y-78602333D01*
X154894971Y-78554714D01*
X154990209Y-78507095D01*
X155228304Y-78507095D01*
X155323542Y-78554714D01*
X155371161Y-78602333D01*
X155418780Y-78697571D01*
X155418780Y-78983285D01*
X155371161Y-79078523D01*
X155323542Y-79126142D01*
D10*
%TO.C,C25*%
X196832114Y-65574714D02*
X196787352Y-65619476D01*
X196653066Y-65664238D01*
X196563542Y-65664238D01*
X196429257Y-65619476D01*
X196339733Y-65529952D01*
X196294971Y-65440428D01*
X196250209Y-65261380D01*
X196250209Y-65127095D01*
X196294971Y-64948047D01*
X196339733Y-64858523D01*
X196429257Y-64769000D01*
X196563542Y-64724238D01*
X196653066Y-64724238D01*
X196787352Y-64769000D01*
X196832114Y-64813761D01*
X197190209Y-64813761D02*
X197234971Y-64769000D01*
X197324495Y-64724238D01*
X197548304Y-64724238D01*
X197637828Y-64769000D01*
X197682590Y-64813761D01*
X197727352Y-64903285D01*
X197727352Y-64992809D01*
X197682590Y-65127095D01*
X197145447Y-65664238D01*
X197727352Y-65664238D01*
X198577828Y-64724238D02*
X198130209Y-64724238D01*
X198085447Y-65171857D01*
X198130209Y-65127095D01*
X198219733Y-65082333D01*
X198443542Y-65082333D01*
X198533066Y-65127095D01*
X198577828Y-65171857D01*
X198622590Y-65261380D01*
X198622590Y-65485190D01*
X198577828Y-65574714D01*
X198533066Y-65619476D01*
X198443542Y-65664238D01*
X198219733Y-65664238D01*
X198130209Y-65619476D01*
X198085447Y-65574714D01*
%TO.C,C24*%
X196832114Y-61964714D02*
X196787352Y-62009476D01*
X196653066Y-62054238D01*
X196563542Y-62054238D01*
X196429257Y-62009476D01*
X196339733Y-61919952D01*
X196294971Y-61830428D01*
X196250209Y-61651380D01*
X196250209Y-61517095D01*
X196294971Y-61338047D01*
X196339733Y-61248523D01*
X196429257Y-61159000D01*
X196563542Y-61114238D01*
X196653066Y-61114238D01*
X196787352Y-61159000D01*
X196832114Y-61203761D01*
X197190209Y-61203761D02*
X197234971Y-61159000D01*
X197324495Y-61114238D01*
X197548304Y-61114238D01*
X197637828Y-61159000D01*
X197682590Y-61203761D01*
X197727352Y-61293285D01*
X197727352Y-61382809D01*
X197682590Y-61517095D01*
X197145447Y-62054238D01*
X197727352Y-62054238D01*
X198533066Y-61427571D02*
X198533066Y-62054238D01*
X198309257Y-61069476D02*
X198085447Y-61740904D01*
X198667352Y-61740904D01*
D11*
%TO.C,C26*%
X218543542Y-66951857D02*
X218591161Y-66999476D01*
X218638780Y-67142333D01*
X218638780Y-67237571D01*
X218591161Y-67380428D01*
X218495923Y-67475666D01*
X218400685Y-67523285D01*
X218210209Y-67570904D01*
X218067352Y-67570904D01*
X217876876Y-67523285D01*
X217781638Y-67475666D01*
X217686400Y-67380428D01*
X217638780Y-67237571D01*
X217638780Y-67142333D01*
X217686400Y-66999476D01*
X217734019Y-66951857D01*
X217734019Y-66570904D02*
X217686400Y-66523285D01*
X217638780Y-66428047D01*
X217638780Y-66189952D01*
X217686400Y-66094714D01*
X217734019Y-66047095D01*
X217829257Y-65999476D01*
X217924495Y-65999476D01*
X218067352Y-66047095D01*
X218638780Y-66618523D01*
X218638780Y-65999476D01*
X217638780Y-65142333D02*
X217638780Y-65332809D01*
X217686400Y-65428047D01*
X217734019Y-65475666D01*
X217876876Y-65570904D01*
X218067352Y-65618523D01*
X218448304Y-65618523D01*
X218543542Y-65570904D01*
X218591161Y-65523285D01*
X218638780Y-65428047D01*
X218638780Y-65237571D01*
X218591161Y-65142333D01*
X218543542Y-65094714D01*
X218448304Y-65047095D01*
X218210209Y-65047095D01*
X218114971Y-65094714D01*
X218067352Y-65142333D01*
X218019733Y-65237571D01*
X218019733Y-65428047D01*
X218067352Y-65523285D01*
X218114971Y-65570904D01*
X218210209Y-65618523D01*
%TO.C,C27*%
X206763542Y-65556142D02*
X206715923Y-65603761D01*
X206573066Y-65651380D01*
X206477828Y-65651380D01*
X206334971Y-65603761D01*
X206239733Y-65508523D01*
X206192114Y-65413285D01*
X206144495Y-65222809D01*
X206144495Y-65079952D01*
X206192114Y-64889476D01*
X206239733Y-64794238D01*
X206334971Y-64699000D01*
X206477828Y-64651380D01*
X206573066Y-64651380D01*
X206715923Y-64699000D01*
X206763542Y-64746619D01*
X207144495Y-64746619D02*
X207192114Y-64699000D01*
X207287352Y-64651380D01*
X207525447Y-64651380D01*
X207620685Y-64699000D01*
X207668304Y-64746619D01*
X207715923Y-64841857D01*
X207715923Y-64937095D01*
X207668304Y-65079952D01*
X207096876Y-65651380D01*
X207715923Y-65651380D01*
X208049257Y-64651380D02*
X208715923Y-64651380D01*
X208287352Y-65651380D01*
%TO.C,C28*%
X206763542Y-62016142D02*
X206715923Y-62063761D01*
X206573066Y-62111380D01*
X206477828Y-62111380D01*
X206334971Y-62063761D01*
X206239733Y-61968523D01*
X206192114Y-61873285D01*
X206144495Y-61682809D01*
X206144495Y-61539952D01*
X206192114Y-61349476D01*
X206239733Y-61254238D01*
X206334971Y-61159000D01*
X206477828Y-61111380D01*
X206573066Y-61111380D01*
X206715923Y-61159000D01*
X206763542Y-61206619D01*
X207144495Y-61206619D02*
X207192114Y-61159000D01*
X207287352Y-61111380D01*
X207525447Y-61111380D01*
X207620685Y-61159000D01*
X207668304Y-61206619D01*
X207715923Y-61301857D01*
X207715923Y-61397095D01*
X207668304Y-61539952D01*
X207096876Y-62111380D01*
X207715923Y-62111380D01*
X208287352Y-61539952D02*
X208192114Y-61492333D01*
X208144495Y-61444714D01*
X208096876Y-61349476D01*
X208096876Y-61301857D01*
X208144495Y-61206619D01*
X208192114Y-61159000D01*
X208287352Y-61111380D01*
X208477828Y-61111380D01*
X208573066Y-61159000D01*
X208620685Y-61206619D01*
X208668304Y-61301857D01*
X208668304Y-61349476D01*
X208620685Y-61444714D01*
X208573066Y-61492333D01*
X208477828Y-61539952D01*
X208287352Y-61539952D01*
X208192114Y-61587571D01*
X208144495Y-61635190D01*
X208096876Y-61730428D01*
X208096876Y-61920904D01*
X208144495Y-62016142D01*
X208192114Y-62063761D01*
X208287352Y-62111380D01*
X208477828Y-62111380D01*
X208573066Y-62063761D01*
X208620685Y-62016142D01*
X208668304Y-61920904D01*
X208668304Y-61730428D01*
X208620685Y-61635190D01*
X208573066Y-61587571D01*
X208477828Y-61539952D01*
%TO.C,C29*%
X176563542Y-59041857D02*
X176611161Y-59089476D01*
X176658780Y-59232333D01*
X176658780Y-59327571D01*
X176611161Y-59470428D01*
X176515923Y-59565666D01*
X176420685Y-59613285D01*
X176230209Y-59660904D01*
X176087352Y-59660904D01*
X175896876Y-59613285D01*
X175801638Y-59565666D01*
X175706400Y-59470428D01*
X175658780Y-59327571D01*
X175658780Y-59232333D01*
X175706400Y-59089476D01*
X175754019Y-59041857D01*
X175754019Y-58660904D02*
X175706400Y-58613285D01*
X175658780Y-58518047D01*
X175658780Y-58279952D01*
X175706400Y-58184714D01*
X175754019Y-58137095D01*
X175849257Y-58089476D01*
X175944495Y-58089476D01*
X176087352Y-58137095D01*
X176658780Y-58708523D01*
X176658780Y-58089476D01*
X176658780Y-57613285D02*
X176658780Y-57422809D01*
X176611161Y-57327571D01*
X176563542Y-57279952D01*
X176420685Y-57184714D01*
X176230209Y-57137095D01*
X175849257Y-57137095D01*
X175754019Y-57184714D01*
X175706400Y-57232333D01*
X175658780Y-57327571D01*
X175658780Y-57518047D01*
X175706400Y-57613285D01*
X175754019Y-57660904D01*
X175849257Y-57708523D01*
X176087352Y-57708523D01*
X176182590Y-57660904D01*
X176230209Y-57613285D01*
X176277828Y-57518047D01*
X176277828Y-57327571D01*
X176230209Y-57232333D01*
X176182590Y-57184714D01*
X176087352Y-57137095D01*
%TO.C,C30*%
X173323542Y-59041857D02*
X173371161Y-59089476D01*
X173418780Y-59232333D01*
X173418780Y-59327571D01*
X173371161Y-59470428D01*
X173275923Y-59565666D01*
X173180685Y-59613285D01*
X172990209Y-59660904D01*
X172847352Y-59660904D01*
X172656876Y-59613285D01*
X172561638Y-59565666D01*
X172466400Y-59470428D01*
X172418780Y-59327571D01*
X172418780Y-59232333D01*
X172466400Y-59089476D01*
X172514019Y-59041857D01*
X172418780Y-58708523D02*
X172418780Y-58089476D01*
X172799733Y-58422809D01*
X172799733Y-58279952D01*
X172847352Y-58184714D01*
X172894971Y-58137095D01*
X172990209Y-58089476D01*
X173228304Y-58089476D01*
X173323542Y-58137095D01*
X173371161Y-58184714D01*
X173418780Y-58279952D01*
X173418780Y-58565666D01*
X173371161Y-58660904D01*
X173323542Y-58708523D01*
X172418780Y-57470428D02*
X172418780Y-57375190D01*
X172466400Y-57279952D01*
X172514019Y-57232333D01*
X172609257Y-57184714D01*
X172799733Y-57137095D01*
X173037828Y-57137095D01*
X173228304Y-57184714D01*
X173323542Y-57232333D01*
X173371161Y-57279952D01*
X173418780Y-57375190D01*
X173418780Y-57470428D01*
X173371161Y-57565666D01*
X173323542Y-57613285D01*
X173228304Y-57660904D01*
X173037828Y-57708523D01*
X172799733Y-57708523D01*
X172609257Y-57660904D01*
X172514019Y-57613285D01*
X172466400Y-57565666D01*
X172418780Y-57470428D01*
D10*
%TO.C,C31*%
X161682114Y-102823285D02*
X161726876Y-102868047D01*
X161771638Y-103002333D01*
X161771638Y-103091857D01*
X161726876Y-103226142D01*
X161637352Y-103315666D01*
X161547828Y-103360428D01*
X161368780Y-103405190D01*
X161234495Y-103405190D01*
X161055447Y-103360428D01*
X160965923Y-103315666D01*
X160876400Y-103226142D01*
X160831638Y-103091857D01*
X160831638Y-103002333D01*
X160876400Y-102868047D01*
X160921161Y-102823285D01*
X160831638Y-102509952D02*
X160831638Y-101928047D01*
X161189733Y-102241380D01*
X161189733Y-102107095D01*
X161234495Y-102017571D01*
X161279257Y-101972809D01*
X161368780Y-101928047D01*
X161592590Y-101928047D01*
X161682114Y-101972809D01*
X161726876Y-102017571D01*
X161771638Y-102107095D01*
X161771638Y-102375666D01*
X161726876Y-102465190D01*
X161682114Y-102509952D01*
X161771638Y-101032809D02*
X161771638Y-101569952D01*
X161771638Y-101301380D02*
X160831638Y-101301380D01*
X160965923Y-101390904D01*
X161055447Y-101480428D01*
X161100209Y-101569952D01*
D11*
%TO.C,C32*%
X125713542Y-121691857D02*
X125761161Y-121739476D01*
X125808780Y-121882333D01*
X125808780Y-121977571D01*
X125761161Y-122120428D01*
X125665923Y-122215666D01*
X125570685Y-122263285D01*
X125380209Y-122310904D01*
X125237352Y-122310904D01*
X125046876Y-122263285D01*
X124951638Y-122215666D01*
X124856400Y-122120428D01*
X124808780Y-121977571D01*
X124808780Y-121882333D01*
X124856400Y-121739476D01*
X124904019Y-121691857D01*
X124808780Y-121358523D02*
X124808780Y-120739476D01*
X125189733Y-121072809D01*
X125189733Y-120929952D01*
X125237352Y-120834714D01*
X125284971Y-120787095D01*
X125380209Y-120739476D01*
X125618304Y-120739476D01*
X125713542Y-120787095D01*
X125761161Y-120834714D01*
X125808780Y-120929952D01*
X125808780Y-121215666D01*
X125761161Y-121310904D01*
X125713542Y-121358523D01*
X124904019Y-120358523D02*
X124856400Y-120310904D01*
X124808780Y-120215666D01*
X124808780Y-119977571D01*
X124856400Y-119882333D01*
X124904019Y-119834714D01*
X124999257Y-119787095D01*
X125094495Y-119787095D01*
X125237352Y-119834714D01*
X125808780Y-120406142D01*
X125808780Y-119787095D01*
%TO.C,C33*%
X232673542Y-67141857D02*
X232721161Y-67189476D01*
X232768780Y-67332333D01*
X232768780Y-67427571D01*
X232721161Y-67570428D01*
X232625923Y-67665666D01*
X232530685Y-67713285D01*
X232340209Y-67760904D01*
X232197352Y-67760904D01*
X232006876Y-67713285D01*
X231911638Y-67665666D01*
X231816400Y-67570428D01*
X231768780Y-67427571D01*
X231768780Y-67332333D01*
X231816400Y-67189476D01*
X231864019Y-67141857D01*
X231768780Y-66808523D02*
X231768780Y-66189476D01*
X232149733Y-66522809D01*
X232149733Y-66379952D01*
X232197352Y-66284714D01*
X232244971Y-66237095D01*
X232340209Y-66189476D01*
X232578304Y-66189476D01*
X232673542Y-66237095D01*
X232721161Y-66284714D01*
X232768780Y-66379952D01*
X232768780Y-66665666D01*
X232721161Y-66760904D01*
X232673542Y-66808523D01*
X231768780Y-65856142D02*
X231768780Y-65237095D01*
X232149733Y-65570428D01*
X232149733Y-65427571D01*
X232197352Y-65332333D01*
X232244971Y-65284714D01*
X232340209Y-65237095D01*
X232578304Y-65237095D01*
X232673542Y-65284714D01*
X232721161Y-65332333D01*
X232768780Y-65427571D01*
X232768780Y-65713285D01*
X232721161Y-65808523D01*
X232673542Y-65856142D01*
%TO.C,C34*%
X104903542Y-186976142D02*
X104855923Y-187023761D01*
X104713066Y-187071380D01*
X104617828Y-187071380D01*
X104474971Y-187023761D01*
X104379733Y-186928523D01*
X104332114Y-186833285D01*
X104284495Y-186642809D01*
X104284495Y-186499952D01*
X104332114Y-186309476D01*
X104379733Y-186214238D01*
X104474971Y-186119000D01*
X104617828Y-186071380D01*
X104713066Y-186071380D01*
X104855923Y-186119000D01*
X104903542Y-186166619D01*
X105236876Y-186071380D02*
X105855923Y-186071380D01*
X105522590Y-186452333D01*
X105665447Y-186452333D01*
X105760685Y-186499952D01*
X105808304Y-186547571D01*
X105855923Y-186642809D01*
X105855923Y-186880904D01*
X105808304Y-186976142D01*
X105760685Y-187023761D01*
X105665447Y-187071380D01*
X105379733Y-187071380D01*
X105284495Y-187023761D01*
X105236876Y-186976142D01*
X106713066Y-186404714D02*
X106713066Y-187071380D01*
X106474971Y-186023761D02*
X106236876Y-186738047D01*
X106855923Y-186738047D01*
D10*
%TO.C,C35*%
X104942114Y-194824714D02*
X104897352Y-194869476D01*
X104763066Y-194914238D01*
X104673542Y-194914238D01*
X104539257Y-194869476D01*
X104449733Y-194779952D01*
X104404971Y-194690428D01*
X104360209Y-194511380D01*
X104360209Y-194377095D01*
X104404971Y-194198047D01*
X104449733Y-194108523D01*
X104539257Y-194019000D01*
X104673542Y-193974238D01*
X104763066Y-193974238D01*
X104897352Y-194019000D01*
X104942114Y-194063761D01*
X105255447Y-193974238D02*
X105837352Y-193974238D01*
X105524019Y-194332333D01*
X105658304Y-194332333D01*
X105747828Y-194377095D01*
X105792590Y-194421857D01*
X105837352Y-194511380D01*
X105837352Y-194735190D01*
X105792590Y-194824714D01*
X105747828Y-194869476D01*
X105658304Y-194914238D01*
X105389733Y-194914238D01*
X105300209Y-194869476D01*
X105255447Y-194824714D01*
X106687828Y-193974238D02*
X106240209Y-193974238D01*
X106195447Y-194421857D01*
X106240209Y-194377095D01*
X106329733Y-194332333D01*
X106553542Y-194332333D01*
X106643066Y-194377095D01*
X106687828Y-194421857D01*
X106732590Y-194511380D01*
X106732590Y-194735190D01*
X106687828Y-194824714D01*
X106643066Y-194869476D01*
X106553542Y-194914238D01*
X106329733Y-194914238D01*
X106240209Y-194869476D01*
X106195447Y-194824714D01*
%TO.C,C37*%
X104682114Y-155244714D02*
X104637352Y-155289476D01*
X104503066Y-155334238D01*
X104413542Y-155334238D01*
X104279257Y-155289476D01*
X104189733Y-155199952D01*
X104144971Y-155110428D01*
X104100209Y-154931380D01*
X104100209Y-154797095D01*
X104144971Y-154618047D01*
X104189733Y-154528523D01*
X104279257Y-154439000D01*
X104413542Y-154394238D01*
X104503066Y-154394238D01*
X104637352Y-154439000D01*
X104682114Y-154483761D01*
X104995447Y-154394238D02*
X105577352Y-154394238D01*
X105264019Y-154752333D01*
X105398304Y-154752333D01*
X105487828Y-154797095D01*
X105532590Y-154841857D01*
X105577352Y-154931380D01*
X105577352Y-155155190D01*
X105532590Y-155244714D01*
X105487828Y-155289476D01*
X105398304Y-155334238D01*
X105129733Y-155334238D01*
X105040209Y-155289476D01*
X104995447Y-155244714D01*
X105890685Y-154394238D02*
X106517352Y-154394238D01*
X106114495Y-155334238D01*
D11*
%TO.C,C38*%
X114720891Y-133136142D02*
X114673272Y-133183761D01*
X114530415Y-133231380D01*
X114435177Y-133231380D01*
X114292320Y-133183761D01*
X114197082Y-133088523D01*
X114149463Y-132993285D01*
X114101844Y-132802809D01*
X114101844Y-132659952D01*
X114149463Y-132469476D01*
X114197082Y-132374238D01*
X114292320Y-132279000D01*
X114435177Y-132231380D01*
X114530415Y-132231380D01*
X114673272Y-132279000D01*
X114720891Y-132326619D01*
X115054225Y-132231380D02*
X115673272Y-132231380D01*
X115339939Y-132612333D01*
X115482796Y-132612333D01*
X115578034Y-132659952D01*
X115625653Y-132707571D01*
X115673272Y-132802809D01*
X115673272Y-133040904D01*
X115625653Y-133136142D01*
X115578034Y-133183761D01*
X115482796Y-133231380D01*
X115197082Y-133231380D01*
X115101844Y-133183761D01*
X115054225Y-133136142D01*
X116244701Y-132659952D02*
X116149463Y-132612333D01*
X116101844Y-132564714D01*
X116054225Y-132469476D01*
X116054225Y-132421857D01*
X116101844Y-132326619D01*
X116149463Y-132279000D01*
X116244701Y-132231380D01*
X116435177Y-132231380D01*
X116530415Y-132279000D01*
X116578034Y-132326619D01*
X116625653Y-132421857D01*
X116625653Y-132469476D01*
X116578034Y-132564714D01*
X116530415Y-132612333D01*
X116435177Y-132659952D01*
X116244701Y-132659952D01*
X116149463Y-132707571D01*
X116101844Y-132755190D01*
X116054225Y-132850428D01*
X116054225Y-133040904D01*
X116101844Y-133136142D01*
X116149463Y-133183761D01*
X116244701Y-133231380D01*
X116435177Y-133231380D01*
X116530415Y-133183761D01*
X116578034Y-133136142D01*
X116625653Y-133040904D01*
X116625653Y-132850428D01*
X116578034Y-132755190D01*
X116530415Y-132707571D01*
X116435177Y-132659952D01*
D10*
%TO.C,C39*%
X104682114Y-159224714D02*
X104637352Y-159269476D01*
X104503066Y-159314238D01*
X104413542Y-159314238D01*
X104279257Y-159269476D01*
X104189733Y-159179952D01*
X104144971Y-159090428D01*
X104100209Y-158911380D01*
X104100209Y-158777095D01*
X104144971Y-158598047D01*
X104189733Y-158508523D01*
X104279257Y-158419000D01*
X104413542Y-158374238D01*
X104503066Y-158374238D01*
X104637352Y-158419000D01*
X104682114Y-158463761D01*
X104995447Y-158374238D02*
X105577352Y-158374238D01*
X105264019Y-158732333D01*
X105398304Y-158732333D01*
X105487828Y-158777095D01*
X105532590Y-158821857D01*
X105577352Y-158911380D01*
X105577352Y-159135190D01*
X105532590Y-159224714D01*
X105487828Y-159269476D01*
X105398304Y-159314238D01*
X105129733Y-159314238D01*
X105040209Y-159269476D01*
X104995447Y-159224714D01*
X106024971Y-159314238D02*
X106204019Y-159314238D01*
X106293542Y-159269476D01*
X106338304Y-159224714D01*
X106427828Y-159090428D01*
X106472590Y-158911380D01*
X106472590Y-158553285D01*
X106427828Y-158463761D01*
X106383066Y-158419000D01*
X106293542Y-158374238D01*
X106114495Y-158374238D01*
X106024971Y-158419000D01*
X105980209Y-158463761D01*
X105935447Y-158553285D01*
X105935447Y-158777095D01*
X105980209Y-158866619D01*
X106024971Y-158911380D01*
X106114495Y-158956142D01*
X106293542Y-158956142D01*
X106383066Y-158911380D01*
X106427828Y-158866619D01*
X106472590Y-158777095D01*
D11*
%TO.C,C40*%
X101683542Y-103546142D02*
X101635923Y-103593761D01*
X101493066Y-103641380D01*
X101397828Y-103641380D01*
X101254971Y-103593761D01*
X101159733Y-103498523D01*
X101112114Y-103403285D01*
X101064495Y-103212809D01*
X101064495Y-103069952D01*
X101112114Y-102879476D01*
X101159733Y-102784238D01*
X101254971Y-102689000D01*
X101397828Y-102641380D01*
X101493066Y-102641380D01*
X101635923Y-102689000D01*
X101683542Y-102736619D01*
X102540685Y-102974714D02*
X102540685Y-103641380D01*
X102302590Y-102593761D02*
X102064495Y-103308047D01*
X102683542Y-103308047D01*
X103254971Y-102641380D02*
X103350209Y-102641380D01*
X103445447Y-102689000D01*
X103493066Y-102736619D01*
X103540685Y-102831857D01*
X103588304Y-103022333D01*
X103588304Y-103260428D01*
X103540685Y-103450904D01*
X103493066Y-103546142D01*
X103445447Y-103593761D01*
X103350209Y-103641380D01*
X103254971Y-103641380D01*
X103159733Y-103593761D01*
X103112114Y-103546142D01*
X103064495Y-103450904D01*
X103016876Y-103260428D01*
X103016876Y-103022333D01*
X103064495Y-102831857D01*
X103112114Y-102736619D01*
X103159733Y-102689000D01*
X103254971Y-102641380D01*
%TO.C,C41*%
X101683542Y-107706142D02*
X101635923Y-107753761D01*
X101493066Y-107801380D01*
X101397828Y-107801380D01*
X101254971Y-107753761D01*
X101159733Y-107658523D01*
X101112114Y-107563285D01*
X101064495Y-107372809D01*
X101064495Y-107229952D01*
X101112114Y-107039476D01*
X101159733Y-106944238D01*
X101254971Y-106849000D01*
X101397828Y-106801380D01*
X101493066Y-106801380D01*
X101635923Y-106849000D01*
X101683542Y-106896619D01*
X102540685Y-107134714D02*
X102540685Y-107801380D01*
X102302590Y-106753761D02*
X102064495Y-107468047D01*
X102683542Y-107468047D01*
X103588304Y-107801380D02*
X103016876Y-107801380D01*
X103302590Y-107801380D02*
X103302590Y-106801380D01*
X103207352Y-106944238D01*
X103112114Y-107039476D01*
X103016876Y-107087095D01*
%TO.C,C43*%
X107543542Y-79796142D02*
X107495923Y-79843761D01*
X107353066Y-79891380D01*
X107257828Y-79891380D01*
X107114971Y-79843761D01*
X107019733Y-79748523D01*
X106972114Y-79653285D01*
X106924495Y-79462809D01*
X106924495Y-79319952D01*
X106972114Y-79129476D01*
X107019733Y-79034238D01*
X107114971Y-78939000D01*
X107257828Y-78891380D01*
X107353066Y-78891380D01*
X107495923Y-78939000D01*
X107543542Y-78986619D01*
X108400685Y-79224714D02*
X108400685Y-79891380D01*
X108162590Y-78843761D02*
X107924495Y-79558047D01*
X108543542Y-79558047D01*
X108829257Y-78891380D02*
X109448304Y-78891380D01*
X109114971Y-79272333D01*
X109257828Y-79272333D01*
X109353066Y-79319952D01*
X109400685Y-79367571D01*
X109448304Y-79462809D01*
X109448304Y-79700904D01*
X109400685Y-79796142D01*
X109353066Y-79843761D01*
X109257828Y-79891380D01*
X108972114Y-79891380D01*
X108876876Y-79843761D01*
X108829257Y-79796142D01*
D10*
%TO.C,C44*%
X142087114Y-110309714D02*
X142042352Y-110354476D01*
X141908066Y-110399238D01*
X141818542Y-110399238D01*
X141684257Y-110354476D01*
X141594733Y-110264952D01*
X141549971Y-110175428D01*
X141505209Y-109996380D01*
X141505209Y-109862095D01*
X141549971Y-109683047D01*
X141594733Y-109593523D01*
X141684257Y-109504000D01*
X141818542Y-109459238D01*
X141908066Y-109459238D01*
X142042352Y-109504000D01*
X142087114Y-109548761D01*
X142892828Y-109772571D02*
X142892828Y-110399238D01*
X142669019Y-109414476D02*
X142445209Y-110085904D01*
X143027114Y-110085904D01*
X143788066Y-109772571D02*
X143788066Y-110399238D01*
X143564257Y-109414476D02*
X143340447Y-110085904D01*
X143922352Y-110085904D01*
%TO.C,C55*%
X284662114Y-74364714D02*
X284617352Y-74409476D01*
X284483066Y-74454238D01*
X284393542Y-74454238D01*
X284259257Y-74409476D01*
X284169733Y-74319952D01*
X284124971Y-74230428D01*
X284080209Y-74051380D01*
X284080209Y-73917095D01*
X284124971Y-73738047D01*
X284169733Y-73648523D01*
X284259257Y-73559000D01*
X284393542Y-73514238D01*
X284483066Y-73514238D01*
X284617352Y-73559000D01*
X284662114Y-73603761D01*
X285512590Y-73514238D02*
X285064971Y-73514238D01*
X285020209Y-73961857D01*
X285064971Y-73917095D01*
X285154495Y-73872333D01*
X285378304Y-73872333D01*
X285467828Y-73917095D01*
X285512590Y-73961857D01*
X285557352Y-74051380D01*
X285557352Y-74275190D01*
X285512590Y-74364714D01*
X285467828Y-74409476D01*
X285378304Y-74454238D01*
X285154495Y-74454238D01*
X285064971Y-74409476D01*
X285020209Y-74364714D01*
X286407828Y-73514238D02*
X285960209Y-73514238D01*
X285915447Y-73961857D01*
X285960209Y-73917095D01*
X286049733Y-73872333D01*
X286273542Y-73872333D01*
X286363066Y-73917095D01*
X286407828Y-73961857D01*
X286452590Y-74051380D01*
X286452590Y-74275190D01*
X286407828Y-74364714D01*
X286363066Y-74409476D01*
X286273542Y-74454238D01*
X286049733Y-74454238D01*
X285960209Y-74409476D01*
X285915447Y-74364714D01*
%TO.C,C1*%
X296789733Y-70924714D02*
X296744971Y-70969476D01*
X296610685Y-71014238D01*
X296521161Y-71014238D01*
X296386876Y-70969476D01*
X296297352Y-70879952D01*
X296252590Y-70790428D01*
X296207828Y-70611380D01*
X296207828Y-70477095D01*
X296252590Y-70298047D01*
X296297352Y-70208523D01*
X296386876Y-70119000D01*
X296521161Y-70074238D01*
X296610685Y-70074238D01*
X296744971Y-70119000D01*
X296789733Y-70163761D01*
X297684971Y-71014238D02*
X297147828Y-71014238D01*
X297416400Y-71014238D02*
X297416400Y-70074238D01*
X297326876Y-70208523D01*
X297237352Y-70298047D01*
X297147828Y-70342809D01*
D12*
%TO.C,D1*%
X276708304Y-66069476D02*
X275908304Y-66069476D01*
X275908304Y-65879000D01*
X275946400Y-65764714D01*
X276022590Y-65688523D01*
X276098780Y-65650428D01*
X276251161Y-65612333D01*
X276365447Y-65612333D01*
X276517828Y-65650428D01*
X276594019Y-65688523D01*
X276670209Y-65764714D01*
X276708304Y-65879000D01*
X276708304Y-66069476D01*
X276708304Y-64850428D02*
X276708304Y-65307571D01*
X276708304Y-65079000D02*
X275908304Y-65079000D01*
X276022590Y-65155190D01*
X276098780Y-65231380D01*
X276136876Y-65307571D01*
%TO.C,D2*%
X264618304Y-67369476D02*
X263818304Y-67369476D01*
X263818304Y-67179000D01*
X263856400Y-67064714D01*
X263932590Y-66988523D01*
X264008780Y-66950428D01*
X264161161Y-66912333D01*
X264275447Y-66912333D01*
X264427828Y-66950428D01*
X264504019Y-66988523D01*
X264580209Y-67064714D01*
X264618304Y-67179000D01*
X264618304Y-67369476D01*
X263894495Y-66607571D02*
X263856400Y-66569476D01*
X263818304Y-66493285D01*
X263818304Y-66302809D01*
X263856400Y-66226619D01*
X263894495Y-66188523D01*
X263970685Y-66150428D01*
X264046876Y-66150428D01*
X264161161Y-66188523D01*
X264618304Y-66645666D01*
X264618304Y-66150428D01*
%TO.C,D3*%
X270728304Y-67969476D02*
X269928304Y-67969476D01*
X269928304Y-67779000D01*
X269966400Y-67664714D01*
X270042590Y-67588523D01*
X270118780Y-67550428D01*
X270271161Y-67512333D01*
X270385447Y-67512333D01*
X270537828Y-67550428D01*
X270614019Y-67588523D01*
X270690209Y-67664714D01*
X270728304Y-67779000D01*
X270728304Y-67969476D01*
X269928304Y-67245666D02*
X269928304Y-66750428D01*
X270233066Y-67017095D01*
X270233066Y-66902809D01*
X270271161Y-66826619D01*
X270309257Y-66788523D01*
X270385447Y-66750428D01*
X270575923Y-66750428D01*
X270652114Y-66788523D01*
X270690209Y-66826619D01*
X270728304Y-66902809D01*
X270728304Y-67131380D01*
X270690209Y-67207571D01*
X270652114Y-67245666D01*
%TO.C,D4*%
X242288304Y-65409476D02*
X241488304Y-65409476D01*
X241488304Y-65219000D01*
X241526400Y-65104714D01*
X241602590Y-65028523D01*
X241678780Y-64990428D01*
X241831161Y-64952333D01*
X241945447Y-64952333D01*
X242097828Y-64990428D01*
X242174019Y-65028523D01*
X242250209Y-65104714D01*
X242288304Y-65219000D01*
X242288304Y-65409476D01*
X241754971Y-64266619D02*
X242288304Y-64266619D01*
X241450209Y-64457095D02*
X242021638Y-64647571D01*
X242021638Y-64152333D01*
D11*
%TO.C,D6*%
X156238780Y-124187095D02*
X155238780Y-124187095D01*
X155238780Y-123949000D01*
X155286400Y-123806142D01*
X155381638Y-123710904D01*
X155476876Y-123663285D01*
X155667352Y-123615666D01*
X155810209Y-123615666D01*
X156000685Y-123663285D01*
X156095923Y-123710904D01*
X156191161Y-123806142D01*
X156238780Y-123949000D01*
X156238780Y-124187095D01*
X155238780Y-122758523D02*
X155238780Y-122949000D01*
X155286400Y-123044238D01*
X155334019Y-123091857D01*
X155476876Y-123187095D01*
X155667352Y-123234714D01*
X156048304Y-123234714D01*
X156143542Y-123187095D01*
X156191161Y-123139476D01*
X156238780Y-123044238D01*
X156238780Y-122853761D01*
X156191161Y-122758523D01*
X156143542Y-122710904D01*
X156048304Y-122663285D01*
X155810209Y-122663285D01*
X155714971Y-122710904D01*
X155667352Y-122758523D01*
X155619733Y-122853761D01*
X155619733Y-123044238D01*
X155667352Y-123139476D01*
X155714971Y-123187095D01*
X155810209Y-123234714D01*
%TO.C,FB1*%
X109558780Y-84779000D02*
X109796876Y-84779000D01*
X109701638Y-85017095D02*
X109796876Y-84779000D01*
X109701638Y-84540904D01*
X109987352Y-84921857D02*
X109796876Y-84779000D01*
X109987352Y-84636142D01*
%TO.C,FB2*%
X104938780Y-84969000D02*
X105176876Y-84969000D01*
X105081638Y-85207095D02*
X105176876Y-84969000D01*
X105081638Y-84730904D01*
X105367352Y-85111857D02*
X105176876Y-84969000D01*
X105367352Y-84826142D01*
%TO.C,FB3*%
X251926400Y-199001380D02*
X251926400Y-199239476D01*
X251688304Y-199144238D02*
X251926400Y-199239476D01*
X252164495Y-199144238D01*
X251783542Y-199429952D02*
X251926400Y-199239476D01*
X252069257Y-199429952D01*
%TO.C,H999002*%
X299993947Y-203766380D02*
X299993947Y-202766380D01*
X299993947Y-203242571D02*
X300565376Y-203242571D01*
X300565376Y-203766380D02*
X300565376Y-202766380D01*
X301089185Y-203766380D02*
X301279662Y-203766380D01*
X301374900Y-203718761D01*
X301422519Y-203671142D01*
X301517757Y-203528285D01*
X301565376Y-203337809D01*
X301565376Y-202956857D01*
X301517757Y-202861619D01*
X301470138Y-202814000D01*
X301374900Y-202766380D01*
X301184424Y-202766380D01*
X301089185Y-202814000D01*
X301041566Y-202861619D01*
X300993947Y-202956857D01*
X300993947Y-203194952D01*
X301041566Y-203290190D01*
X301089185Y-203337809D01*
X301184424Y-203385428D01*
X301374900Y-203385428D01*
X301470138Y-203337809D01*
X301517757Y-203290190D01*
X301565376Y-203194952D01*
X302041566Y-203766380D02*
X302232043Y-203766380D01*
X302327281Y-203718761D01*
X302374900Y-203671142D01*
X302470138Y-203528285D01*
X302517757Y-203337809D01*
X302517757Y-202956857D01*
X302470138Y-202861619D01*
X302422519Y-202814000D01*
X302327281Y-202766380D01*
X302136805Y-202766380D01*
X302041566Y-202814000D01*
X301993947Y-202861619D01*
X301946328Y-202956857D01*
X301946328Y-203194952D01*
X301993947Y-203290190D01*
X302041566Y-203337809D01*
X302136805Y-203385428D01*
X302327281Y-203385428D01*
X302422519Y-203337809D01*
X302470138Y-203290190D01*
X302517757Y-203194952D01*
X302993947Y-203766380D02*
X303184424Y-203766380D01*
X303279662Y-203718761D01*
X303327281Y-203671142D01*
X303422519Y-203528285D01*
X303470138Y-203337809D01*
X303470138Y-202956857D01*
X303422519Y-202861619D01*
X303374900Y-202814000D01*
X303279662Y-202766380D01*
X303089185Y-202766380D01*
X302993947Y-202814000D01*
X302946328Y-202861619D01*
X302898709Y-202956857D01*
X302898709Y-203194952D01*
X302946328Y-203290190D01*
X302993947Y-203337809D01*
X303089185Y-203385428D01*
X303279662Y-203385428D01*
X303374900Y-203337809D01*
X303422519Y-203290190D01*
X303470138Y-203194952D01*
X304089185Y-202766380D02*
X304184424Y-202766380D01*
X304279662Y-202814000D01*
X304327281Y-202861619D01*
X304374900Y-202956857D01*
X304422519Y-203147333D01*
X304422519Y-203385428D01*
X304374900Y-203575904D01*
X304327281Y-203671142D01*
X304279662Y-203718761D01*
X304184424Y-203766380D01*
X304089185Y-203766380D01*
X303993947Y-203718761D01*
X303946328Y-203671142D01*
X303898709Y-203575904D01*
X303851090Y-203385428D01*
X303851090Y-203147333D01*
X303898709Y-202956857D01*
X303946328Y-202861619D01*
X303993947Y-202814000D01*
X304089185Y-202766380D01*
X305041566Y-202766380D02*
X305136805Y-202766380D01*
X305232043Y-202814000D01*
X305279662Y-202861619D01*
X305327281Y-202956857D01*
X305374900Y-203147333D01*
X305374900Y-203385428D01*
X305327281Y-203575904D01*
X305279662Y-203671142D01*
X305232043Y-203718761D01*
X305136805Y-203766380D01*
X305041566Y-203766380D01*
X304946328Y-203718761D01*
X304898709Y-203671142D01*
X304851090Y-203575904D01*
X304803471Y-203385428D01*
X304803471Y-203147333D01*
X304851090Y-202956857D01*
X304898709Y-202861619D01*
X304946328Y-202814000D01*
X305041566Y-202766380D01*
X305755852Y-202861619D02*
X305803471Y-202814000D01*
X305898709Y-202766380D01*
X306136805Y-202766380D01*
X306232043Y-202814000D01*
X306279662Y-202861619D01*
X306327281Y-202956857D01*
X306327281Y-203052095D01*
X306279662Y-203194952D01*
X305708233Y-203766380D01*
X306327281Y-203766380D01*
%TO.C,Q1*%
X90524019Y-142064238D02*
X90476400Y-142159476D01*
X90381161Y-142254714D01*
X90238304Y-142397571D01*
X90190685Y-142492809D01*
X90190685Y-142588047D01*
X90428780Y-142540428D02*
X90381161Y-142635666D01*
X90285923Y-142730904D01*
X90095447Y-142778523D01*
X89762114Y-142778523D01*
X89571638Y-142730904D01*
X89476400Y-142635666D01*
X89428780Y-142540428D01*
X89428780Y-142349952D01*
X89476400Y-142254714D01*
X89571638Y-142159476D01*
X89762114Y-142111857D01*
X90095447Y-142111857D01*
X90285923Y-142159476D01*
X90381161Y-142254714D01*
X90428780Y-142349952D01*
X90428780Y-142540428D01*
X90428780Y-141159476D02*
X90428780Y-141730904D01*
X90428780Y-141445190D02*
X89428780Y-141445190D01*
X89571638Y-141540428D01*
X89666876Y-141635666D01*
X89714495Y-141730904D01*
%TO.C,R1*%
X132288780Y-194845666D02*
X131812590Y-195179000D01*
X132288780Y-195417095D02*
X131288780Y-195417095D01*
X131288780Y-195036142D01*
X131336400Y-194940904D01*
X131384019Y-194893285D01*
X131479257Y-194845666D01*
X131622114Y-194845666D01*
X131717352Y-194893285D01*
X131764971Y-194940904D01*
X131812590Y-195036142D01*
X131812590Y-195417095D01*
X132288780Y-193893285D02*
X132288780Y-194464714D01*
X132288780Y-194179000D02*
X131288780Y-194179000D01*
X131431638Y-194274238D01*
X131526876Y-194369476D01*
X131574495Y-194464714D01*
%TO.C,R2*%
X160598780Y-194865666D02*
X160122590Y-195199000D01*
X160598780Y-195437095D02*
X159598780Y-195437095D01*
X159598780Y-195056142D01*
X159646400Y-194960904D01*
X159694019Y-194913285D01*
X159789257Y-194865666D01*
X159932114Y-194865666D01*
X160027352Y-194913285D01*
X160074971Y-194960904D01*
X160122590Y-195056142D01*
X160122590Y-195437095D01*
X159694019Y-194484714D02*
X159646400Y-194437095D01*
X159598780Y-194341857D01*
X159598780Y-194103761D01*
X159646400Y-194008523D01*
X159694019Y-193960904D01*
X159789257Y-193913285D01*
X159884495Y-193913285D01*
X160027352Y-193960904D01*
X160598780Y-194532333D01*
X160598780Y-193913285D01*
%TO.C,R3*%
X128708780Y-194785666D02*
X128232590Y-195119000D01*
X128708780Y-195357095D02*
X127708780Y-195357095D01*
X127708780Y-194976142D01*
X127756400Y-194880904D01*
X127804019Y-194833285D01*
X127899257Y-194785666D01*
X128042114Y-194785666D01*
X128137352Y-194833285D01*
X128184971Y-194880904D01*
X128232590Y-194976142D01*
X128232590Y-195357095D01*
X127708780Y-194452333D02*
X127708780Y-193833285D01*
X128089733Y-194166619D01*
X128089733Y-194023761D01*
X128137352Y-193928523D01*
X128184971Y-193880904D01*
X128280209Y-193833285D01*
X128518304Y-193833285D01*
X128613542Y-193880904D01*
X128661161Y-193928523D01*
X128708780Y-194023761D01*
X128708780Y-194309476D01*
X128661161Y-194404714D01*
X128613542Y-194452333D01*
%TO.C,R4*%
X133898780Y-127725666D02*
X133422590Y-128059000D01*
X133898780Y-128297095D02*
X132898780Y-128297095D01*
X132898780Y-127916142D01*
X132946400Y-127820904D01*
X132994019Y-127773285D01*
X133089257Y-127725666D01*
X133232114Y-127725666D01*
X133327352Y-127773285D01*
X133374971Y-127820904D01*
X133422590Y-127916142D01*
X133422590Y-128297095D01*
X133232114Y-126868523D02*
X133898780Y-126868523D01*
X132851161Y-127106619D02*
X133565447Y-127344714D01*
X133565447Y-126725666D01*
%TO.C,R5*%
X214768780Y-65065666D02*
X214292590Y-65399000D01*
X214768780Y-65637095D02*
X213768780Y-65637095D01*
X213768780Y-65256142D01*
X213816400Y-65160904D01*
X213864019Y-65113285D01*
X213959257Y-65065666D01*
X214102114Y-65065666D01*
X214197352Y-65113285D01*
X214244971Y-65160904D01*
X214292590Y-65256142D01*
X214292590Y-65637095D01*
X213768780Y-64160904D02*
X213768780Y-64637095D01*
X214244971Y-64684714D01*
X214197352Y-64637095D01*
X214149733Y-64541857D01*
X214149733Y-64303761D01*
X214197352Y-64208523D01*
X214244971Y-64160904D01*
X214340209Y-64113285D01*
X214578304Y-64113285D01*
X214673542Y-64160904D01*
X214721161Y-64208523D01*
X214768780Y-64303761D01*
X214768780Y-64541857D01*
X214721161Y-64637095D01*
X214673542Y-64684714D01*
%TO.C,R6*%
X183828780Y-96985666D02*
X183352590Y-97319000D01*
X183828780Y-97557095D02*
X182828780Y-97557095D01*
X182828780Y-97176142D01*
X182876400Y-97080904D01*
X182924019Y-97033285D01*
X183019257Y-96985666D01*
X183162114Y-96985666D01*
X183257352Y-97033285D01*
X183304971Y-97080904D01*
X183352590Y-97176142D01*
X183352590Y-97557095D01*
X182828780Y-96128523D02*
X182828780Y-96319000D01*
X182876400Y-96414238D01*
X182924019Y-96461857D01*
X183066876Y-96557095D01*
X183257352Y-96604714D01*
X183638304Y-96604714D01*
X183733542Y-96557095D01*
X183781161Y-96509476D01*
X183828780Y-96414238D01*
X183828780Y-96223761D01*
X183781161Y-96128523D01*
X183733542Y-96080904D01*
X183638304Y-96033285D01*
X183400209Y-96033285D01*
X183304971Y-96080904D01*
X183257352Y-96128523D01*
X183209733Y-96223761D01*
X183209733Y-96414238D01*
X183257352Y-96509476D01*
X183304971Y-96557095D01*
X183400209Y-96604714D01*
%TO.C,R7*%
X188068780Y-89295666D02*
X187592590Y-89629000D01*
X188068780Y-89867095D02*
X187068780Y-89867095D01*
X187068780Y-89486142D01*
X187116400Y-89390904D01*
X187164019Y-89343285D01*
X187259257Y-89295666D01*
X187402114Y-89295666D01*
X187497352Y-89343285D01*
X187544971Y-89390904D01*
X187592590Y-89486142D01*
X187592590Y-89867095D01*
X187068780Y-88962333D02*
X187068780Y-88295666D01*
X188068780Y-88724238D01*
%TO.C,R8*%
X159408780Y-123135666D02*
X158932590Y-123469000D01*
X159408780Y-123707095D02*
X158408780Y-123707095D01*
X158408780Y-123326142D01*
X158456400Y-123230904D01*
X158504019Y-123183285D01*
X158599257Y-123135666D01*
X158742114Y-123135666D01*
X158837352Y-123183285D01*
X158884971Y-123230904D01*
X158932590Y-123326142D01*
X158932590Y-123707095D01*
X158837352Y-122564238D02*
X158789733Y-122659476D01*
X158742114Y-122707095D01*
X158646876Y-122754714D01*
X158599257Y-122754714D01*
X158504019Y-122707095D01*
X158456400Y-122659476D01*
X158408780Y-122564238D01*
X158408780Y-122373761D01*
X158456400Y-122278523D01*
X158504019Y-122230904D01*
X158599257Y-122183285D01*
X158646876Y-122183285D01*
X158742114Y-122230904D01*
X158789733Y-122278523D01*
X158837352Y-122373761D01*
X158837352Y-122564238D01*
X158884971Y-122659476D01*
X158932590Y-122707095D01*
X159027828Y-122754714D01*
X159218304Y-122754714D01*
X159313542Y-122707095D01*
X159361161Y-122659476D01*
X159408780Y-122564238D01*
X159408780Y-122373761D01*
X159361161Y-122278523D01*
X159313542Y-122230904D01*
X159218304Y-122183285D01*
X159027828Y-122183285D01*
X158932590Y-122230904D01*
X158884971Y-122278523D01*
X158837352Y-122373761D01*
%TO.C,R9*%
X186928780Y-194795666D02*
X186452590Y-195129000D01*
X186928780Y-195367095D02*
X185928780Y-195367095D01*
X185928780Y-194986142D01*
X185976400Y-194890904D01*
X186024019Y-194843285D01*
X186119257Y-194795666D01*
X186262114Y-194795666D01*
X186357352Y-194843285D01*
X186404971Y-194890904D01*
X186452590Y-194986142D01*
X186452590Y-195367095D01*
X186928780Y-194319476D02*
X186928780Y-194129000D01*
X186881161Y-194033761D01*
X186833542Y-193986142D01*
X186690685Y-193890904D01*
X186500209Y-193843285D01*
X186119257Y-193843285D01*
X186024019Y-193890904D01*
X185976400Y-193938523D01*
X185928780Y-194033761D01*
X185928780Y-194224238D01*
X185976400Y-194319476D01*
X186024019Y-194367095D01*
X186119257Y-194414714D01*
X186357352Y-194414714D01*
X186452590Y-194367095D01*
X186500209Y-194319476D01*
X186547828Y-194224238D01*
X186547828Y-194033761D01*
X186500209Y-193938523D01*
X186452590Y-193890904D01*
X186357352Y-193843285D01*
%TO.C,R10*%
X135708780Y-195291857D02*
X135232590Y-195625190D01*
X135708780Y-195863285D02*
X134708780Y-195863285D01*
X134708780Y-195482333D01*
X134756400Y-195387095D01*
X134804019Y-195339476D01*
X134899257Y-195291857D01*
X135042114Y-195291857D01*
X135137352Y-195339476D01*
X135184971Y-195387095D01*
X135232590Y-195482333D01*
X135232590Y-195863285D01*
X135708780Y-194339476D02*
X135708780Y-194910904D01*
X135708780Y-194625190D02*
X134708780Y-194625190D01*
X134851638Y-194720428D01*
X134946876Y-194815666D01*
X134994495Y-194910904D01*
X134708780Y-193720428D02*
X134708780Y-193625190D01*
X134756400Y-193529952D01*
X134804019Y-193482333D01*
X134899257Y-193434714D01*
X135089733Y-193387095D01*
X135327828Y-193387095D01*
X135518304Y-193434714D01*
X135613542Y-193482333D01*
X135661161Y-193529952D01*
X135708780Y-193625190D01*
X135708780Y-193720428D01*
X135661161Y-193815666D01*
X135613542Y-193863285D01*
X135518304Y-193910904D01*
X135327828Y-193958523D01*
X135089733Y-193958523D01*
X134899257Y-193910904D01*
X134804019Y-193863285D01*
X134756400Y-193815666D01*
X134708780Y-193720428D01*
%TO.C,R11*%
X285798780Y-189991857D02*
X285322590Y-190325190D01*
X285798780Y-190563285D02*
X284798780Y-190563285D01*
X284798780Y-190182333D01*
X284846400Y-190087095D01*
X284894019Y-190039476D01*
X284989257Y-189991857D01*
X285132114Y-189991857D01*
X285227352Y-190039476D01*
X285274971Y-190087095D01*
X285322590Y-190182333D01*
X285322590Y-190563285D01*
X285798780Y-189039476D02*
X285798780Y-189610904D01*
X285798780Y-189325190D02*
X284798780Y-189325190D01*
X284941638Y-189420428D01*
X285036876Y-189515666D01*
X285084495Y-189610904D01*
X285798780Y-188087095D02*
X285798780Y-188658523D01*
X285798780Y-188372809D02*
X284798780Y-188372809D01*
X284941638Y-188468047D01*
X285036876Y-188563285D01*
X285084495Y-188658523D01*
%TO.C,R12*%
X282718780Y-189991857D02*
X282242590Y-190325190D01*
X282718780Y-190563285D02*
X281718780Y-190563285D01*
X281718780Y-190182333D01*
X281766400Y-190087095D01*
X281814019Y-190039476D01*
X281909257Y-189991857D01*
X282052114Y-189991857D01*
X282147352Y-190039476D01*
X282194971Y-190087095D01*
X282242590Y-190182333D01*
X282242590Y-190563285D01*
X282718780Y-189039476D02*
X282718780Y-189610904D01*
X282718780Y-189325190D02*
X281718780Y-189325190D01*
X281861638Y-189420428D01*
X281956876Y-189515666D01*
X282004495Y-189610904D01*
X281814019Y-188658523D02*
X281766400Y-188610904D01*
X281718780Y-188515666D01*
X281718780Y-188277571D01*
X281766400Y-188182333D01*
X281814019Y-188134714D01*
X281909257Y-188087095D01*
X282004495Y-188087095D01*
X282147352Y-188134714D01*
X282718780Y-188706142D01*
X282718780Y-188087095D01*
%TO.C,R13*%
X267808780Y-66461857D02*
X267332590Y-66795190D01*
X267808780Y-67033285D02*
X266808780Y-67033285D01*
X266808780Y-66652333D01*
X266856400Y-66557095D01*
X266904019Y-66509476D01*
X266999257Y-66461857D01*
X267142114Y-66461857D01*
X267237352Y-66509476D01*
X267284971Y-66557095D01*
X267332590Y-66652333D01*
X267332590Y-67033285D01*
X267808780Y-65509476D02*
X267808780Y-66080904D01*
X267808780Y-65795190D02*
X266808780Y-65795190D01*
X266951638Y-65890428D01*
X267046876Y-65985666D01*
X267094495Y-66080904D01*
X266808780Y-65176142D02*
X266808780Y-64557095D01*
X267189733Y-64890428D01*
X267189733Y-64747571D01*
X267237352Y-64652333D01*
X267284971Y-64604714D01*
X267380209Y-64557095D01*
X267618304Y-64557095D01*
X267713542Y-64604714D01*
X267761161Y-64652333D01*
X267808780Y-64747571D01*
X267808780Y-65033285D01*
X267761161Y-65128523D01*
X267713542Y-65176142D01*
%TO.C,R14*%
X273788780Y-66461857D02*
X273312590Y-66795190D01*
X273788780Y-67033285D02*
X272788780Y-67033285D01*
X272788780Y-66652333D01*
X272836400Y-66557095D01*
X272884019Y-66509476D01*
X272979257Y-66461857D01*
X273122114Y-66461857D01*
X273217352Y-66509476D01*
X273264971Y-66557095D01*
X273312590Y-66652333D01*
X273312590Y-67033285D01*
X273788780Y-65509476D02*
X273788780Y-66080904D01*
X273788780Y-65795190D02*
X272788780Y-65795190D01*
X272931638Y-65890428D01*
X273026876Y-65985666D01*
X273074495Y-66080904D01*
X273122114Y-64652333D02*
X273788780Y-64652333D01*
X272741161Y-64890428D02*
X273455447Y-65128523D01*
X273455447Y-64509476D01*
%TO.C,R15*%
X207508780Y-139381857D02*
X207032590Y-139715190D01*
X207508780Y-139953285D02*
X206508780Y-139953285D01*
X206508780Y-139572333D01*
X206556400Y-139477095D01*
X206604019Y-139429476D01*
X206699257Y-139381857D01*
X206842114Y-139381857D01*
X206937352Y-139429476D01*
X206984971Y-139477095D01*
X207032590Y-139572333D01*
X207032590Y-139953285D01*
X207508780Y-138429476D02*
X207508780Y-139000904D01*
X207508780Y-138715190D02*
X206508780Y-138715190D01*
X206651638Y-138810428D01*
X206746876Y-138905666D01*
X206794495Y-139000904D01*
X206508780Y-137524714D02*
X206508780Y-138000904D01*
X206984971Y-138048523D01*
X206937352Y-138000904D01*
X206889733Y-137905666D01*
X206889733Y-137667571D01*
X206937352Y-137572333D01*
X206984971Y-137524714D01*
X207080209Y-137477095D01*
X207318304Y-137477095D01*
X207413542Y-137524714D01*
X207461161Y-137572333D01*
X207508780Y-137667571D01*
X207508780Y-137905666D01*
X207461161Y-138000904D01*
X207413542Y-138048523D01*
%TO.C,R16*%
X210568780Y-139381857D02*
X210092590Y-139715190D01*
X210568780Y-139953285D02*
X209568780Y-139953285D01*
X209568780Y-139572333D01*
X209616400Y-139477095D01*
X209664019Y-139429476D01*
X209759257Y-139381857D01*
X209902114Y-139381857D01*
X209997352Y-139429476D01*
X210044971Y-139477095D01*
X210092590Y-139572333D01*
X210092590Y-139953285D01*
X210568780Y-138429476D02*
X210568780Y-139000904D01*
X210568780Y-138715190D02*
X209568780Y-138715190D01*
X209711638Y-138810428D01*
X209806876Y-138905666D01*
X209854495Y-139000904D01*
X209568780Y-137572333D02*
X209568780Y-137762809D01*
X209616400Y-137858047D01*
X209664019Y-137905666D01*
X209806876Y-138000904D01*
X209997352Y-138048523D01*
X210378304Y-138048523D01*
X210473542Y-138000904D01*
X210521161Y-137953285D01*
X210568780Y-137858047D01*
X210568780Y-137667571D01*
X210521161Y-137572333D01*
X210473542Y-137524714D01*
X210378304Y-137477095D01*
X210140209Y-137477095D01*
X210044971Y-137524714D01*
X209997352Y-137572333D01*
X209949733Y-137667571D01*
X209949733Y-137858047D01*
X209997352Y-137953285D01*
X210044971Y-138000904D01*
X210140209Y-138048523D01*
%TO.C,R17*%
X204468780Y-139381857D02*
X203992590Y-139715190D01*
X204468780Y-139953285D02*
X203468780Y-139953285D01*
X203468780Y-139572333D01*
X203516400Y-139477095D01*
X203564019Y-139429476D01*
X203659257Y-139381857D01*
X203802114Y-139381857D01*
X203897352Y-139429476D01*
X203944971Y-139477095D01*
X203992590Y-139572333D01*
X203992590Y-139953285D01*
X204468780Y-138429476D02*
X204468780Y-139000904D01*
X204468780Y-138715190D02*
X203468780Y-138715190D01*
X203611638Y-138810428D01*
X203706876Y-138905666D01*
X203754495Y-139000904D01*
X203468780Y-138096142D02*
X203468780Y-137429476D01*
X204468780Y-137858047D01*
%TO.C,R18*%
X217818780Y-139381857D02*
X217342590Y-139715190D01*
X217818780Y-139953285D02*
X216818780Y-139953285D01*
X216818780Y-139572333D01*
X216866400Y-139477095D01*
X216914019Y-139429476D01*
X217009257Y-139381857D01*
X217152114Y-139381857D01*
X217247352Y-139429476D01*
X217294971Y-139477095D01*
X217342590Y-139572333D01*
X217342590Y-139953285D01*
X217818780Y-138429476D02*
X217818780Y-139000904D01*
X217818780Y-138715190D02*
X216818780Y-138715190D01*
X216961638Y-138810428D01*
X217056876Y-138905666D01*
X217104495Y-139000904D01*
X217247352Y-137858047D02*
X217199733Y-137953285D01*
X217152114Y-138000904D01*
X217056876Y-138048523D01*
X217009257Y-138048523D01*
X216914019Y-138000904D01*
X216866400Y-137953285D01*
X216818780Y-137858047D01*
X216818780Y-137667571D01*
X216866400Y-137572333D01*
X216914019Y-137524714D01*
X217009257Y-137477095D01*
X217056876Y-137477095D01*
X217152114Y-137524714D01*
X217199733Y-137572333D01*
X217247352Y-137667571D01*
X217247352Y-137858047D01*
X217294971Y-137953285D01*
X217342590Y-138000904D01*
X217437828Y-138048523D01*
X217628304Y-138048523D01*
X217723542Y-138000904D01*
X217771161Y-137953285D01*
X217818780Y-137858047D01*
X217818780Y-137667571D01*
X217771161Y-137572333D01*
X217723542Y-137524714D01*
X217628304Y-137477095D01*
X217437828Y-137477095D01*
X217342590Y-137524714D01*
X217294971Y-137572333D01*
X217247352Y-137667571D01*
%TO.C,R19*%
X291598778Y-66461857D02*
X291122588Y-66795190D01*
X291598778Y-67033285D02*
X290598778Y-67033285D01*
X290598778Y-66652333D01*
X290646398Y-66557095D01*
X290694017Y-66509476D01*
X290789255Y-66461857D01*
X290932112Y-66461857D01*
X291027350Y-66509476D01*
X291074969Y-66557095D01*
X291122588Y-66652333D01*
X291122588Y-67033285D01*
X291598778Y-65509476D02*
X291598778Y-66080904D01*
X291598778Y-65795190D02*
X290598778Y-65795190D01*
X290741636Y-65890428D01*
X290836874Y-65985666D01*
X290884493Y-66080904D01*
X291598778Y-65033285D02*
X291598778Y-64842809D01*
X291551159Y-64747571D01*
X291503540Y-64699952D01*
X291360683Y-64604714D01*
X291170207Y-64557095D01*
X290789255Y-64557095D01*
X290694017Y-64604714D01*
X290646398Y-64652333D01*
X290598778Y-64747571D01*
X290598778Y-64938047D01*
X290646398Y-65033285D01*
X290694017Y-65080904D01*
X290789255Y-65128523D01*
X291027350Y-65128523D01*
X291122588Y-65080904D01*
X291170207Y-65033285D01*
X291217826Y-64938047D01*
X291217826Y-64747571D01*
X291170207Y-64652333D01*
X291122588Y-64604714D01*
X291027350Y-64557095D01*
%TO.C,R20*%
X220858780Y-139381857D02*
X220382590Y-139715190D01*
X220858780Y-139953285D02*
X219858780Y-139953285D01*
X219858780Y-139572333D01*
X219906400Y-139477095D01*
X219954019Y-139429476D01*
X220049257Y-139381857D01*
X220192114Y-139381857D01*
X220287352Y-139429476D01*
X220334971Y-139477095D01*
X220382590Y-139572333D01*
X220382590Y-139953285D01*
X219954019Y-139000904D02*
X219906400Y-138953285D01*
X219858780Y-138858047D01*
X219858780Y-138619952D01*
X219906400Y-138524714D01*
X219954019Y-138477095D01*
X220049257Y-138429476D01*
X220144495Y-138429476D01*
X220287352Y-138477095D01*
X220858780Y-139048523D01*
X220858780Y-138429476D01*
X219858780Y-137810428D02*
X219858780Y-137715190D01*
X219906400Y-137619952D01*
X219954019Y-137572333D01*
X220049257Y-137524714D01*
X220239733Y-137477095D01*
X220477828Y-137477095D01*
X220668304Y-137524714D01*
X220763542Y-137572333D01*
X220811161Y-137619952D01*
X220858780Y-137715190D01*
X220858780Y-137810428D01*
X220811161Y-137905666D01*
X220763542Y-137953285D01*
X220668304Y-138000904D01*
X220477828Y-138048523D01*
X220239733Y-138048523D01*
X220049257Y-138000904D01*
X219954019Y-137953285D01*
X219906400Y-137905666D01*
X219858780Y-137810428D01*
%TO.C,R21*%
X288878780Y-189991857D02*
X288402590Y-190325190D01*
X288878780Y-190563285D02*
X287878780Y-190563285D01*
X287878780Y-190182333D01*
X287926400Y-190087095D01*
X287974019Y-190039476D01*
X288069257Y-189991857D01*
X288212114Y-189991857D01*
X288307352Y-190039476D01*
X288354971Y-190087095D01*
X288402590Y-190182333D01*
X288402590Y-190563285D01*
X287974019Y-189610904D02*
X287926400Y-189563285D01*
X287878780Y-189468047D01*
X287878780Y-189229952D01*
X287926400Y-189134714D01*
X287974019Y-189087095D01*
X288069257Y-189039476D01*
X288164495Y-189039476D01*
X288307352Y-189087095D01*
X288878780Y-189658523D01*
X288878780Y-189039476D01*
X288878780Y-188087095D02*
X288878780Y-188658523D01*
X288878780Y-188372809D02*
X287878780Y-188372809D01*
X288021638Y-188468047D01*
X288116876Y-188563285D01*
X288164495Y-188658523D01*
%TO.C,R22*%
X130498780Y-128201857D02*
X130022590Y-128535190D01*
X130498780Y-128773285D02*
X129498780Y-128773285D01*
X129498780Y-128392333D01*
X129546400Y-128297095D01*
X129594019Y-128249476D01*
X129689257Y-128201857D01*
X129832114Y-128201857D01*
X129927352Y-128249476D01*
X129974971Y-128297095D01*
X130022590Y-128392333D01*
X130022590Y-128773285D01*
X129594019Y-127820904D02*
X129546400Y-127773285D01*
X129498780Y-127678047D01*
X129498780Y-127439952D01*
X129546400Y-127344714D01*
X129594019Y-127297095D01*
X129689257Y-127249476D01*
X129784495Y-127249476D01*
X129927352Y-127297095D01*
X130498780Y-127868523D01*
X130498780Y-127249476D01*
X129594019Y-126868523D02*
X129546400Y-126820904D01*
X129498780Y-126725666D01*
X129498780Y-126487571D01*
X129546400Y-126392333D01*
X129594019Y-126344714D01*
X129689257Y-126297095D01*
X129784495Y-126297095D01*
X129927352Y-126344714D01*
X130498780Y-126916142D01*
X130498780Y-126297095D01*
%TO.C,R23*%
X236448780Y-65591857D02*
X235972590Y-65925190D01*
X236448780Y-66163285D02*
X235448780Y-66163285D01*
X235448780Y-65782333D01*
X235496400Y-65687095D01*
X235544019Y-65639476D01*
X235639257Y-65591857D01*
X235782114Y-65591857D01*
X235877352Y-65639476D01*
X235924971Y-65687095D01*
X235972590Y-65782333D01*
X235972590Y-66163285D01*
X235544019Y-65210904D02*
X235496400Y-65163285D01*
X235448780Y-65068047D01*
X235448780Y-64829952D01*
X235496400Y-64734714D01*
X235544019Y-64687095D01*
X235639257Y-64639476D01*
X235734495Y-64639476D01*
X235877352Y-64687095D01*
X236448780Y-65258523D01*
X236448780Y-64639476D01*
X235448780Y-64306142D02*
X235448780Y-63687095D01*
X235829733Y-64020428D01*
X235829733Y-63877571D01*
X235877352Y-63782333D01*
X235924971Y-63734714D01*
X236020209Y-63687095D01*
X236258304Y-63687095D01*
X236353542Y-63734714D01*
X236401161Y-63782333D01*
X236448780Y-63877571D01*
X236448780Y-64163285D01*
X236401161Y-64258523D01*
X236353542Y-64306142D01*
%TO.C,R24*%
X106058780Y-169581857D02*
X105582590Y-169915190D01*
X106058780Y-170153285D02*
X105058780Y-170153285D01*
X105058780Y-169772333D01*
X105106400Y-169677095D01*
X105154019Y-169629476D01*
X105249257Y-169581857D01*
X105392114Y-169581857D01*
X105487352Y-169629476D01*
X105534971Y-169677095D01*
X105582590Y-169772333D01*
X105582590Y-170153285D01*
X105154019Y-169200904D02*
X105106400Y-169153285D01*
X105058780Y-169058047D01*
X105058780Y-168819952D01*
X105106400Y-168724714D01*
X105154019Y-168677095D01*
X105249257Y-168629476D01*
X105344495Y-168629476D01*
X105487352Y-168677095D01*
X106058780Y-169248523D01*
X106058780Y-168629476D01*
X105392114Y-167772333D02*
X106058780Y-167772333D01*
X105011161Y-168010428D02*
X105725447Y-168248523D01*
X105725447Y-167629476D01*
%TO.C,R25*%
X101208780Y-170741857D02*
X100732590Y-171075190D01*
X101208780Y-171313285D02*
X100208780Y-171313285D01*
X100208780Y-170932333D01*
X100256400Y-170837095D01*
X100304019Y-170789476D01*
X100399257Y-170741857D01*
X100542114Y-170741857D01*
X100637352Y-170789476D01*
X100684971Y-170837095D01*
X100732590Y-170932333D01*
X100732590Y-171313285D01*
X100304019Y-170360904D02*
X100256400Y-170313285D01*
X100208780Y-170218047D01*
X100208780Y-169979952D01*
X100256400Y-169884714D01*
X100304019Y-169837095D01*
X100399257Y-169789476D01*
X100494495Y-169789476D01*
X100637352Y-169837095D01*
X101208780Y-170408523D01*
X101208780Y-169789476D01*
X100208780Y-168884714D02*
X100208780Y-169360904D01*
X100684971Y-169408523D01*
X100637352Y-169360904D01*
X100589733Y-169265666D01*
X100589733Y-169027571D01*
X100637352Y-168932333D01*
X100684971Y-168884714D01*
X100780209Y-168837095D01*
X101018304Y-168837095D01*
X101113542Y-168884714D01*
X101161161Y-168932333D01*
X101208780Y-169027571D01*
X101208780Y-169265666D01*
X101161161Y-169360904D01*
X101113542Y-169408523D01*
%TO.C,R26*%
X229218780Y-66891857D02*
X228742590Y-67225190D01*
X229218780Y-67463285D02*
X228218780Y-67463285D01*
X228218780Y-67082333D01*
X228266400Y-66987095D01*
X228314019Y-66939476D01*
X228409257Y-66891857D01*
X228552114Y-66891857D01*
X228647352Y-66939476D01*
X228694971Y-66987095D01*
X228742590Y-67082333D01*
X228742590Y-67463285D01*
X228314019Y-66510904D02*
X228266400Y-66463285D01*
X228218780Y-66368047D01*
X228218780Y-66129952D01*
X228266400Y-66034714D01*
X228314019Y-65987095D01*
X228409257Y-65939476D01*
X228504495Y-65939476D01*
X228647352Y-65987095D01*
X229218780Y-66558523D01*
X229218780Y-65939476D01*
X228218780Y-65082333D02*
X228218780Y-65272809D01*
X228266400Y-65368047D01*
X228314019Y-65415666D01*
X228456876Y-65510904D01*
X228647352Y-65558523D01*
X229028304Y-65558523D01*
X229123542Y-65510904D01*
X229171161Y-65463285D01*
X229218780Y-65368047D01*
X229218780Y-65177571D01*
X229171161Y-65082333D01*
X229123542Y-65034714D01*
X229028304Y-64987095D01*
X228790209Y-64987095D01*
X228694971Y-65034714D01*
X228647352Y-65082333D01*
X228599733Y-65177571D01*
X228599733Y-65368047D01*
X228647352Y-65463285D01*
X228694971Y-65510904D01*
X228790209Y-65558523D01*
%TO.C,R27*%
X225578780Y-66891857D02*
X225102590Y-67225190D01*
X225578780Y-67463285D02*
X224578780Y-67463285D01*
X224578780Y-67082333D01*
X224626400Y-66987095D01*
X224674019Y-66939476D01*
X224769257Y-66891857D01*
X224912114Y-66891857D01*
X225007352Y-66939476D01*
X225054971Y-66987095D01*
X225102590Y-67082333D01*
X225102590Y-67463285D01*
X224674019Y-66510904D02*
X224626400Y-66463285D01*
X224578780Y-66368047D01*
X224578780Y-66129952D01*
X224626400Y-66034714D01*
X224674019Y-65987095D01*
X224769257Y-65939476D01*
X224864495Y-65939476D01*
X225007352Y-65987095D01*
X225578780Y-66558523D01*
X225578780Y-65939476D01*
X224578780Y-65606142D02*
X224578780Y-64939476D01*
X225578780Y-65368047D01*
%TO.C,R29*%
X282798780Y-66471857D02*
X282322590Y-66805190D01*
X282798780Y-67043285D02*
X281798780Y-67043285D01*
X281798780Y-66662333D01*
X281846400Y-66567095D01*
X281894019Y-66519476D01*
X281989257Y-66471857D01*
X282132114Y-66471857D01*
X282227352Y-66519476D01*
X282274971Y-66567095D01*
X282322590Y-66662333D01*
X282322590Y-67043285D01*
X281894019Y-66090904D02*
X281846400Y-66043285D01*
X281798780Y-65948047D01*
X281798780Y-65709952D01*
X281846400Y-65614714D01*
X281894019Y-65567095D01*
X281989257Y-65519476D01*
X282084495Y-65519476D01*
X282227352Y-65567095D01*
X282798780Y-66138523D01*
X282798780Y-65519476D01*
X282798780Y-65043285D02*
X282798780Y-64852809D01*
X282751161Y-64757571D01*
X282703542Y-64709952D01*
X282560685Y-64614714D01*
X282370209Y-64567095D01*
X281989257Y-64567095D01*
X281894019Y-64614714D01*
X281846400Y-64662333D01*
X281798780Y-64757571D01*
X281798780Y-64948047D01*
X281846400Y-65043285D01*
X281894019Y-65090904D01*
X281989257Y-65138523D01*
X282227352Y-65138523D01*
X282322590Y-65090904D01*
X282370209Y-65043285D01*
X282417828Y-64948047D01*
X282417828Y-64757571D01*
X282370209Y-64662333D01*
X282322590Y-64614714D01*
X282227352Y-64567095D01*
%TO.C,R31*%
X276498780Y-139331857D02*
X276022590Y-139665190D01*
X276498780Y-139903285D02*
X275498780Y-139903285D01*
X275498780Y-139522333D01*
X275546400Y-139427095D01*
X275594019Y-139379476D01*
X275689257Y-139331857D01*
X275832114Y-139331857D01*
X275927352Y-139379476D01*
X275974971Y-139427095D01*
X276022590Y-139522333D01*
X276022590Y-139903285D01*
X275498780Y-138998523D02*
X275498780Y-138379476D01*
X275879733Y-138712809D01*
X275879733Y-138569952D01*
X275927352Y-138474714D01*
X275974971Y-138427095D01*
X276070209Y-138379476D01*
X276308304Y-138379476D01*
X276403542Y-138427095D01*
X276451161Y-138474714D01*
X276498780Y-138569952D01*
X276498780Y-138855666D01*
X276451161Y-138950904D01*
X276403542Y-138998523D01*
X276498780Y-137427095D02*
X276498780Y-137998523D01*
X276498780Y-137712809D02*
X275498780Y-137712809D01*
X275641638Y-137808047D01*
X275736876Y-137903285D01*
X275784495Y-137998523D01*
%TO.C,TC1*%
X293408780Y-193400904D02*
X293408780Y-192829476D01*
X294408780Y-193115190D02*
X293408780Y-193115190D01*
X294313542Y-191924714D02*
X294361161Y-191972333D01*
X294408780Y-192115190D01*
X294408780Y-192210428D01*
X294361161Y-192353285D01*
X294265923Y-192448523D01*
X294170685Y-192496142D01*
X293980209Y-192543761D01*
X293837352Y-192543761D01*
X293646876Y-192496142D01*
X293551638Y-192448523D01*
X293456400Y-192353285D01*
X293408780Y-192210428D01*
X293408780Y-192115190D01*
X293456400Y-191972333D01*
X293504019Y-191924714D01*
X294408780Y-190972333D02*
X294408780Y-191543761D01*
X294408780Y-191258047D02*
X293408780Y-191258047D01*
X293551638Y-191353285D01*
X293646876Y-191448523D01*
X293694495Y-191543761D01*
%TO.C,X1*%
X298146876Y-180131380D02*
X298813542Y-181131380D01*
X298813542Y-180131380D02*
X298146876Y-181131380D01*
X299718304Y-181131380D02*
X299146876Y-181131380D01*
X299432590Y-181131380D02*
X299432590Y-180131380D01*
X299337352Y-180274238D01*
X299242114Y-180369476D01*
X299146876Y-180417095D01*
%TO.C,IC7*%
X113270209Y-170821380D02*
X113270209Y-169821380D01*
X114317828Y-170726142D02*
X114270209Y-170773761D01*
X114127352Y-170821380D01*
X114032114Y-170821380D01*
X113889257Y-170773761D01*
X113794019Y-170678523D01*
X113746400Y-170583285D01*
X113698780Y-170392809D01*
X113698780Y-170249952D01*
X113746400Y-170059476D01*
X113794019Y-169964238D01*
X113889257Y-169869000D01*
X114032114Y-169821380D01*
X114127352Y-169821380D01*
X114270209Y-169869000D01*
X114317828Y-169916619D01*
X114651161Y-169821380D02*
X115317828Y-169821380D01*
X114889257Y-170821380D01*
%TO.C,IC12*%
X271374019Y-113041380D02*
X271374019Y-112041380D01*
X272421638Y-112946142D02*
X272374019Y-112993761D01*
X272231161Y-113041380D01*
X272135923Y-113041380D01*
X271993066Y-112993761D01*
X271897828Y-112898523D01*
X271850209Y-112803285D01*
X271802590Y-112612809D01*
X271802590Y-112469952D01*
X271850209Y-112279476D01*
X271897828Y-112184238D01*
X271993066Y-112089000D01*
X272135923Y-112041380D01*
X272231161Y-112041380D01*
X272374019Y-112089000D01*
X272421638Y-112136619D01*
X273374019Y-113041380D02*
X272802590Y-113041380D01*
X273088304Y-113041380D02*
X273088304Y-112041380D01*
X272993066Y-112184238D01*
X272897828Y-112279476D01*
X272802590Y-112327095D01*
X273754971Y-112136619D02*
X273802590Y-112089000D01*
X273897828Y-112041380D01*
X274135923Y-112041380D01*
X274231161Y-112089000D01*
X274278780Y-112136619D01*
X274326400Y-112231857D01*
X274326400Y-112327095D01*
X274278780Y-112469952D01*
X273707352Y-113041380D01*
X274326400Y-113041380D01*
%TO.C,IC6*%
X140390209Y-126041380D02*
X140390209Y-125041380D01*
X141437828Y-125946142D02*
X141390209Y-125993761D01*
X141247352Y-126041380D01*
X141152114Y-126041380D01*
X141009257Y-125993761D01*
X140914019Y-125898523D01*
X140866400Y-125803285D01*
X140818780Y-125612809D01*
X140818780Y-125469952D01*
X140866400Y-125279476D01*
X140914019Y-125184238D01*
X141009257Y-125089000D01*
X141152114Y-125041380D01*
X141247352Y-125041380D01*
X141390209Y-125089000D01*
X141437828Y-125136619D01*
X142294971Y-125041380D02*
X142104495Y-125041380D01*
X142009257Y-125089000D01*
X141961638Y-125136619D01*
X141866400Y-125279476D01*
X141818780Y-125469952D01*
X141818780Y-125850904D01*
X141866400Y-125946142D01*
X141914019Y-125993761D01*
X142009257Y-126041380D01*
X142199733Y-126041380D01*
X142294971Y-125993761D01*
X142342590Y-125946142D01*
X142390209Y-125850904D01*
X142390209Y-125612809D01*
X142342590Y-125517571D01*
X142294971Y-125469952D01*
X142199733Y-125422333D01*
X142009257Y-125422333D01*
X141914019Y-125469952D01*
X141866400Y-125517571D01*
X141818780Y-125612809D01*
%TO.C,IC8*%
X238700209Y-174071380D02*
X238700209Y-173071380D01*
X239747828Y-173976142D02*
X239700209Y-174023761D01*
X239557352Y-174071380D01*
X239462114Y-174071380D01*
X239319257Y-174023761D01*
X239224019Y-173928523D01*
X239176400Y-173833285D01*
X239128780Y-173642809D01*
X239128780Y-173499952D01*
X239176400Y-173309476D01*
X239224019Y-173214238D01*
X239319257Y-173119000D01*
X239462114Y-173071380D01*
X239557352Y-173071380D01*
X239700209Y-173119000D01*
X239747828Y-173166619D01*
X240319257Y-173499952D02*
X240224019Y-173452333D01*
X240176400Y-173404714D01*
X240128780Y-173309476D01*
X240128780Y-173261857D01*
X240176400Y-173166619D01*
X240224019Y-173119000D01*
X240319257Y-173071380D01*
X240509733Y-173071380D01*
X240604971Y-173119000D01*
X240652590Y-173166619D01*
X240700209Y-173261857D01*
X240700209Y-173309476D01*
X240652590Y-173404714D01*
X240604971Y-173452333D01*
X240509733Y-173499952D01*
X240319257Y-173499952D01*
X240224019Y-173547571D01*
X240176400Y-173595190D01*
X240128780Y-173690428D01*
X240128780Y-173880904D01*
X240176400Y-173976142D01*
X240224019Y-174023761D01*
X240319257Y-174071380D01*
X240509733Y-174071380D01*
X240604971Y-174023761D01*
X240652590Y-173976142D01*
X240700209Y-173880904D01*
X240700209Y-173690428D01*
X240652590Y-173595190D01*
X240604971Y-173547571D01*
X240509733Y-173499952D01*
%TO.C,IC11*%
X251594019Y-111683880D02*
X251594019Y-110683880D01*
X252641638Y-111588642D02*
X252594019Y-111636261D01*
X252451161Y-111683880D01*
X252355923Y-111683880D01*
X252213066Y-111636261D01*
X252117828Y-111541023D01*
X252070209Y-111445785D01*
X252022590Y-111255309D01*
X252022590Y-111112452D01*
X252070209Y-110921976D01*
X252117828Y-110826738D01*
X252213066Y-110731500D01*
X252355923Y-110683880D01*
X252451161Y-110683880D01*
X252594019Y-110731500D01*
X252641638Y-110779119D01*
X253594019Y-111683880D02*
X253022590Y-111683880D01*
X253308304Y-111683880D02*
X253308304Y-110683880D01*
X253213066Y-110826738D01*
X253117828Y-110921976D01*
X253022590Y-110969595D01*
X254546400Y-111683880D02*
X253974971Y-111683880D01*
X254260685Y-111683880D02*
X254260685Y-110683880D01*
X254165447Y-110826738D01*
X254070209Y-110921976D01*
X253974971Y-110969595D01*
%TO.C,D9*%
X105298780Y-118197095D02*
X104298780Y-118197095D01*
X104298780Y-117959000D01*
X104346400Y-117816142D01*
X104441638Y-117720904D01*
X104536876Y-117673285D01*
X104727352Y-117625666D01*
X104870209Y-117625666D01*
X105060685Y-117673285D01*
X105155923Y-117720904D01*
X105251161Y-117816142D01*
X105298780Y-117959000D01*
X105298780Y-118197095D01*
X105298780Y-117149476D02*
X105298780Y-116959000D01*
X105251161Y-116863761D01*
X105203542Y-116816142D01*
X105060685Y-116720904D01*
X104870209Y-116673285D01*
X104489257Y-116673285D01*
X104394019Y-116720904D01*
X104346400Y-116768523D01*
X104298780Y-116863761D01*
X104298780Y-117054238D01*
X104346400Y-117149476D01*
X104394019Y-117197095D01*
X104489257Y-117244714D01*
X104727352Y-117244714D01*
X104822590Y-117197095D01*
X104870209Y-117149476D01*
X104917828Y-117054238D01*
X104917828Y-116863761D01*
X104870209Y-116768523D01*
X104822590Y-116720904D01*
X104727352Y-116673285D01*
%TO.C,CN2*%
X172185923Y-139386142D02*
X172138304Y-139433761D01*
X171995447Y-139481380D01*
X171900209Y-139481380D01*
X171757352Y-139433761D01*
X171662114Y-139338523D01*
X171614495Y-139243285D01*
X171566876Y-139052809D01*
X171566876Y-138909952D01*
X171614495Y-138719476D01*
X171662114Y-138624238D01*
X171757352Y-138529000D01*
X171900209Y-138481380D01*
X171995447Y-138481380D01*
X172138304Y-138529000D01*
X172185923Y-138576619D01*
X172614495Y-139481380D02*
X172614495Y-138481380D01*
X173185923Y-139481380D01*
X173185923Y-138481380D01*
X173614495Y-138576619D02*
X173662114Y-138529000D01*
X173757352Y-138481380D01*
X173995447Y-138481380D01*
X174090685Y-138529000D01*
X174138304Y-138576619D01*
X174185923Y-138671857D01*
X174185923Y-138767095D01*
X174138304Y-138909952D01*
X173566876Y-139481380D01*
X174185923Y-139481380D01*
%TO.C,IC2*%
X270580209Y-173361380D02*
X270580209Y-172361380D01*
X271627828Y-173266142D02*
X271580209Y-173313761D01*
X271437352Y-173361380D01*
X271342114Y-173361380D01*
X271199257Y-173313761D01*
X271104019Y-173218523D01*
X271056400Y-173123285D01*
X271008780Y-172932809D01*
X271008780Y-172789952D01*
X271056400Y-172599476D01*
X271104019Y-172504238D01*
X271199257Y-172409000D01*
X271342114Y-172361380D01*
X271437352Y-172361380D01*
X271580209Y-172409000D01*
X271627828Y-172456619D01*
X272008780Y-172456619D02*
X272056400Y-172409000D01*
X272151638Y-172361380D01*
X272389733Y-172361380D01*
X272484971Y-172409000D01*
X272532590Y-172456619D01*
X272580209Y-172551857D01*
X272580209Y-172647095D01*
X272532590Y-172789952D01*
X271961161Y-173361380D01*
X272580209Y-173361380D01*
%TO.C,CN3*%
X227533542Y-111001976D02*
X227581161Y-111049595D01*
X227628780Y-111192452D01*
X227628780Y-111287690D01*
X227581161Y-111430547D01*
X227485923Y-111525785D01*
X227390685Y-111573404D01*
X227200209Y-111621023D01*
X227057352Y-111621023D01*
X226866876Y-111573404D01*
X226771638Y-111525785D01*
X226676400Y-111430547D01*
X226628780Y-111287690D01*
X226628780Y-111192452D01*
X226676400Y-111049595D01*
X226724019Y-111001976D01*
X227628780Y-110573404D02*
X226628780Y-110573404D01*
X227628780Y-110001976D01*
X226628780Y-110001976D01*
X226628780Y-109621023D02*
X226628780Y-109001976D01*
X227009733Y-109335309D01*
X227009733Y-109192452D01*
X227057352Y-109097214D01*
X227104971Y-109049595D01*
X227200209Y-109001976D01*
X227438304Y-109001976D01*
X227533542Y-109049595D01*
X227581161Y-109097214D01*
X227628780Y-109192452D01*
X227628780Y-109478166D01*
X227581161Y-109573404D01*
X227533542Y-109621023D01*
%TO.C,IC1*%
X209130209Y-173571380D02*
X209130209Y-172571380D01*
X210177828Y-173476142D02*
X210130209Y-173523761D01*
X209987352Y-173571380D01*
X209892114Y-173571380D01*
X209749257Y-173523761D01*
X209654019Y-173428523D01*
X209606400Y-173333285D01*
X209558780Y-173142809D01*
X209558780Y-172999952D01*
X209606400Y-172809476D01*
X209654019Y-172714238D01*
X209749257Y-172619000D01*
X209892114Y-172571380D01*
X209987352Y-172571380D01*
X210130209Y-172619000D01*
X210177828Y-172666619D01*
X211130209Y-173571380D02*
X210558780Y-173571380D01*
X210844495Y-173571380D02*
X210844495Y-172571380D01*
X210749257Y-172714238D01*
X210654019Y-172809476D01*
X210558780Y-172857095D01*
%TO.C,D11*%
X107338780Y-122370904D02*
X106338780Y-122370904D01*
X107338780Y-121799476D02*
X106767352Y-122228047D01*
X106338780Y-121799476D02*
X106910209Y-122370904D01*
X109938780Y-114990785D02*
X108938780Y-114990785D01*
X108938780Y-114752690D01*
X108986400Y-114609833D01*
X109081638Y-114514595D01*
X109176876Y-114466976D01*
X109367352Y-114419357D01*
X109510209Y-114419357D01*
X109700685Y-114466976D01*
X109795923Y-114514595D01*
X109891161Y-114609833D01*
X109938780Y-114752690D01*
X109938780Y-114990785D01*
X109938780Y-113466976D02*
X109938780Y-114038404D01*
X109938780Y-113752690D02*
X108938780Y-113752690D01*
X109081638Y-113847928D01*
X109176876Y-113943166D01*
X109224495Y-114038404D01*
X109938780Y-112514595D02*
X109938780Y-113086023D01*
X109938780Y-112800309D02*
X108938780Y-112800309D01*
X109081638Y-112895547D01*
X109176876Y-112990785D01*
X109224495Y-113086023D01*
%TO.C,IC5*%
X174130209Y-173641380D02*
X174130209Y-172641380D01*
X175177828Y-173546142D02*
X175130209Y-173593761D01*
X174987352Y-173641380D01*
X174892114Y-173641380D01*
X174749257Y-173593761D01*
X174654019Y-173498523D01*
X174606400Y-173403285D01*
X174558780Y-173212809D01*
X174558780Y-173069952D01*
X174606400Y-172879476D01*
X174654019Y-172784238D01*
X174749257Y-172689000D01*
X174892114Y-172641380D01*
X174987352Y-172641380D01*
X175130209Y-172689000D01*
X175177828Y-172736619D01*
X176082590Y-172641380D02*
X175606400Y-172641380D01*
X175558780Y-173117571D01*
X175606400Y-173069952D01*
X175701638Y-173022333D01*
X175939733Y-173022333D01*
X176034971Y-173069952D01*
X176082590Y-173117571D01*
X176130209Y-173212809D01*
X176130209Y-173450904D01*
X176082590Y-173546142D01*
X176034971Y-173593761D01*
X175939733Y-173641380D01*
X175701638Y-173641380D01*
X175606400Y-173593761D01*
X175558780Y-173546142D01*
%TO.C,D10*%
X113148780Y-122310904D02*
X112148780Y-122310904D01*
X113148780Y-121739476D02*
X112577352Y-122168047D01*
X112148780Y-121739476D02*
X112720209Y-122310904D01*
X115748780Y-114930785D02*
X114748780Y-114930785D01*
X114748780Y-114692690D01*
X114796400Y-114549833D01*
X114891638Y-114454595D01*
X114986876Y-114406976D01*
X115177352Y-114359357D01*
X115320209Y-114359357D01*
X115510685Y-114406976D01*
X115605923Y-114454595D01*
X115701161Y-114549833D01*
X115748780Y-114692690D01*
X115748780Y-114930785D01*
X115748780Y-113406976D02*
X115748780Y-113978404D01*
X115748780Y-113692690D02*
X114748780Y-113692690D01*
X114891638Y-113787928D01*
X114986876Y-113883166D01*
X115034495Y-113978404D01*
X114748780Y-112787928D02*
X114748780Y-112692690D01*
X114796400Y-112597452D01*
X114844019Y-112549833D01*
X114939257Y-112502214D01*
X115129733Y-112454595D01*
X115367828Y-112454595D01*
X115558304Y-112502214D01*
X115653542Y-112549833D01*
X115701161Y-112597452D01*
X115748780Y-112692690D01*
X115748780Y-112787928D01*
X115701161Y-112883166D01*
X115653542Y-112930785D01*
X115558304Y-112978404D01*
X115367828Y-113026023D01*
X115129733Y-113026023D01*
X114939257Y-112978404D01*
X114844019Y-112930785D01*
X114796400Y-112883166D01*
X114748780Y-112787928D01*
%TO.C,D8*%
X101058780Y-118177095D02*
X100058780Y-118177095D01*
X100058780Y-117939000D01*
X100106400Y-117796142D01*
X100201638Y-117700904D01*
X100296876Y-117653285D01*
X100487352Y-117605666D01*
X100630209Y-117605666D01*
X100820685Y-117653285D01*
X100915923Y-117700904D01*
X101011161Y-117796142D01*
X101058780Y-117939000D01*
X101058780Y-118177095D01*
X100487352Y-117034238D02*
X100439733Y-117129476D01*
X100392114Y-117177095D01*
X100296876Y-117224714D01*
X100249257Y-117224714D01*
X100154019Y-117177095D01*
X100106400Y-117129476D01*
X100058780Y-117034238D01*
X100058780Y-116843761D01*
X100106400Y-116748523D01*
X100154019Y-116700904D01*
X100249257Y-116653285D01*
X100296876Y-116653285D01*
X100392114Y-116700904D01*
X100439733Y-116748523D01*
X100487352Y-116843761D01*
X100487352Y-117034238D01*
X100534971Y-117129476D01*
X100582590Y-117177095D01*
X100677828Y-117224714D01*
X100868304Y-117224714D01*
X100963542Y-117177095D01*
X101011161Y-117129476D01*
X101058780Y-117034238D01*
X101058780Y-116843761D01*
X101011161Y-116748523D01*
X100963542Y-116700904D01*
X100868304Y-116653285D01*
X100677828Y-116653285D01*
X100582590Y-116700904D01*
X100534971Y-116748523D01*
X100487352Y-116843761D01*
%TO.C,IC10*%
X235794019Y-111733880D02*
X235794019Y-110733880D01*
X236841638Y-111638642D02*
X236794019Y-111686261D01*
X236651161Y-111733880D01*
X236555923Y-111733880D01*
X236413066Y-111686261D01*
X236317828Y-111591023D01*
X236270209Y-111495785D01*
X236222590Y-111305309D01*
X236222590Y-111162452D01*
X236270209Y-110971976D01*
X236317828Y-110876738D01*
X236413066Y-110781500D01*
X236555923Y-110733880D01*
X236651161Y-110733880D01*
X236794019Y-110781500D01*
X236841638Y-110829119D01*
X237794019Y-111733880D02*
X237222590Y-111733880D01*
X237508304Y-111733880D02*
X237508304Y-110733880D01*
X237413066Y-110876738D01*
X237317828Y-110971976D01*
X237222590Y-111019595D01*
X238413066Y-110733880D02*
X238508304Y-110733880D01*
X238603542Y-110781500D01*
X238651161Y-110829119D01*
X238698780Y-110924357D01*
X238746400Y-111114833D01*
X238746400Y-111352928D01*
X238698780Y-111543404D01*
X238651161Y-111638642D01*
X238603542Y-111686261D01*
X238508304Y-111733880D01*
X238413066Y-111733880D01*
X238317828Y-111686261D01*
X238270209Y-111638642D01*
X238222590Y-111543404D01*
X238174971Y-111352928D01*
X238174971Y-111114833D01*
X238222590Y-110924357D01*
X238270209Y-110829119D01*
X238317828Y-110781500D01*
X238413066Y-110733880D01*
%TO.C,C36*%
X127223542Y-106846142D02*
X127175923Y-106893761D01*
X127033066Y-106941380D01*
X126937828Y-106941380D01*
X126794971Y-106893761D01*
X126699733Y-106798523D01*
X126652114Y-106703285D01*
X126604495Y-106512809D01*
X126604495Y-106369952D01*
X126652114Y-106179476D01*
X126699733Y-106084238D01*
X126794971Y-105989000D01*
X126937828Y-105941380D01*
X127033066Y-105941380D01*
X127175923Y-105989000D01*
X127223542Y-106036619D01*
X127556876Y-105941380D02*
X128175923Y-105941380D01*
X127842590Y-106322333D01*
X127985447Y-106322333D01*
X128080685Y-106369952D01*
X128128304Y-106417571D01*
X128175923Y-106512809D01*
X128175923Y-106750904D01*
X128128304Y-106846142D01*
X128080685Y-106893761D01*
X127985447Y-106941380D01*
X127699733Y-106941380D01*
X127604495Y-106893761D01*
X127556876Y-106846142D01*
X129033066Y-105941380D02*
X128842590Y-105941380D01*
X128747352Y-105989000D01*
X128699733Y-106036619D01*
X128604495Y-106179476D01*
X128556876Y-106369952D01*
X128556876Y-106750904D01*
X128604495Y-106846142D01*
X128652114Y-106893761D01*
X128747352Y-106941380D01*
X128937828Y-106941380D01*
X129033066Y-106893761D01*
X129080685Y-106846142D01*
X129128304Y-106750904D01*
X129128304Y-106512809D01*
X129080685Y-106417571D01*
X129033066Y-106369952D01*
X128937828Y-106322333D01*
X128747352Y-106322333D01*
X128652114Y-106369952D01*
X128604495Y-106417571D01*
X128556876Y-106512809D01*
%TO.C,CN4*%
X262533542Y-111001976D02*
X262581161Y-111049595D01*
X262628780Y-111192452D01*
X262628780Y-111287690D01*
X262581161Y-111430547D01*
X262485923Y-111525785D01*
X262390685Y-111573404D01*
X262200209Y-111621023D01*
X262057352Y-111621023D01*
X261866876Y-111573404D01*
X261771638Y-111525785D01*
X261676400Y-111430547D01*
X261628780Y-111287690D01*
X261628780Y-111192452D01*
X261676400Y-111049595D01*
X261724019Y-111001976D01*
X262628780Y-110573404D02*
X261628780Y-110573404D01*
X262628780Y-110001976D01*
X261628780Y-110001976D01*
X261962114Y-109097214D02*
X262628780Y-109097214D01*
X261581161Y-109335309D02*
X262295447Y-109573404D01*
X262295447Y-108954357D01*
%TO.C,C42*%
X107593542Y-74876142D02*
X107545923Y-74923761D01*
X107403066Y-74971380D01*
X107307828Y-74971380D01*
X107164971Y-74923761D01*
X107069733Y-74828523D01*
X107022114Y-74733285D01*
X106974495Y-74542809D01*
X106974495Y-74399952D01*
X107022114Y-74209476D01*
X107069733Y-74114238D01*
X107164971Y-74019000D01*
X107307828Y-73971380D01*
X107403066Y-73971380D01*
X107545923Y-74019000D01*
X107593542Y-74066619D01*
X108450685Y-74304714D02*
X108450685Y-74971380D01*
X108212590Y-73923761D02*
X107974495Y-74638047D01*
X108593542Y-74638047D01*
X108926876Y-74066619D02*
X108974495Y-74019000D01*
X109069733Y-73971380D01*
X109307828Y-73971380D01*
X109403066Y-74019000D01*
X109450685Y-74066619D01*
X109498304Y-74161857D01*
X109498304Y-74257095D01*
X109450685Y-74399952D01*
X108879257Y-74971380D01*
X109498304Y-74971380D01*
D13*
%TO.C,R28*%
X125872114Y-137901857D02*
X125529257Y-138141857D01*
X125872114Y-138313285D02*
X125152114Y-138313285D01*
X125152114Y-138039000D01*
X125186400Y-137970428D01*
X125220685Y-137936142D01*
X125289257Y-137901857D01*
X125392114Y-137901857D01*
X125460685Y-137936142D01*
X125494971Y-137970428D01*
X125529257Y-138039000D01*
X125529257Y-138313285D01*
X125220685Y-137627571D02*
X125186400Y-137593285D01*
X125152114Y-137524714D01*
X125152114Y-137353285D01*
X125186400Y-137284714D01*
X125220685Y-137250428D01*
X125289257Y-137216142D01*
X125357828Y-137216142D01*
X125460685Y-137250428D01*
X125872114Y-137661857D01*
X125872114Y-137216142D01*
X125460685Y-136804714D02*
X125426400Y-136873285D01*
X125392114Y-136907571D01*
X125323542Y-136941857D01*
X125289257Y-136941857D01*
X125220685Y-136907571D01*
X125186400Y-136873285D01*
X125152114Y-136804714D01*
X125152114Y-136667571D01*
X125186400Y-136599000D01*
X125220685Y-136564714D01*
X125289257Y-136530428D01*
X125323542Y-136530428D01*
X125392114Y-136564714D01*
X125426400Y-136599000D01*
X125460685Y-136667571D01*
X125460685Y-136804714D01*
X125494971Y-136873285D01*
X125529257Y-136907571D01*
X125597828Y-136941857D01*
X125734971Y-136941857D01*
X125803542Y-136907571D01*
X125837828Y-136873285D01*
X125872114Y-136804714D01*
X125872114Y-136667571D01*
X125837828Y-136599000D01*
X125803542Y-136564714D01*
X125734971Y-136530428D01*
X125597828Y-136530428D01*
X125529257Y-136564714D01*
X125494971Y-136599000D01*
X125460685Y-136667571D01*
D11*
%TO.C,D5*%
X152748780Y-124227095D02*
X151748780Y-124227095D01*
X151748780Y-123989000D01*
X151796400Y-123846142D01*
X151891638Y-123750904D01*
X151986876Y-123703285D01*
X152177352Y-123655666D01*
X152320209Y-123655666D01*
X152510685Y-123703285D01*
X152605923Y-123750904D01*
X152701161Y-123846142D01*
X152748780Y-123989000D01*
X152748780Y-124227095D01*
X151748780Y-122750904D02*
X151748780Y-123227095D01*
X152224971Y-123274714D01*
X152177352Y-123227095D01*
X152129733Y-123131857D01*
X152129733Y-122893761D01*
X152177352Y-122798523D01*
X152224971Y-122750904D01*
X152320209Y-122703285D01*
X152558304Y-122703285D01*
X152653542Y-122750904D01*
X152701161Y-122798523D01*
X152748780Y-122893761D01*
X152748780Y-123131857D01*
X152701161Y-123227095D01*
X152653542Y-123274714D01*
%TO.C,CN1*%
X305504019Y-72884714D02*
X305456400Y-72837095D01*
X305408780Y-72741857D01*
X305408780Y-72503761D01*
X305456400Y-72408523D01*
X305504019Y-72360904D01*
X305599257Y-72313285D01*
X305694495Y-72313285D01*
X305837352Y-72360904D01*
X306408780Y-72932333D01*
X306408780Y-72313285D01*
X305642114Y-126784714D02*
X306308780Y-126784714D01*
X305261161Y-127022809D02*
X305975447Y-127260904D01*
X305975447Y-126641857D01*
X305308780Y-126070428D02*
X305308780Y-125975190D01*
X305356400Y-125879952D01*
X305404019Y-125832333D01*
X305499257Y-125784714D01*
X305689733Y-125737095D01*
X305927828Y-125737095D01*
X306118304Y-125784714D01*
X306213542Y-125832333D01*
X306261161Y-125879952D01*
X306308780Y-125975190D01*
X306308780Y-126070428D01*
X306261161Y-126165666D01*
X306213542Y-126213285D01*
X306118304Y-126260904D01*
X305927828Y-126308523D01*
X305689733Y-126308523D01*
X305499257Y-126260904D01*
X305404019Y-126213285D01*
X305356400Y-126165666D01*
X305308780Y-126070428D01*
X305888780Y-71449000D02*
X306126876Y-71449000D01*
X306031638Y-71687095D02*
X306126876Y-71449000D01*
X306031638Y-71210904D01*
X306317352Y-71591857D02*
X306126876Y-71449000D01*
X306317352Y-71306142D01*
X298548780Y-126568523D02*
X298548780Y-125949476D01*
X298929733Y-126282809D01*
X298929733Y-126139952D01*
X298977352Y-126044714D01*
X299024971Y-125997095D01*
X299120209Y-125949476D01*
X299358304Y-125949476D01*
X299453542Y-125997095D01*
X299501161Y-126044714D01*
X299548780Y-126139952D01*
X299548780Y-126425666D01*
X299501161Y-126520904D01*
X299453542Y-126568523D01*
X299548780Y-125473285D02*
X299548780Y-125282809D01*
X299501161Y-125187571D01*
X299453542Y-125139952D01*
X299310685Y-125044714D01*
X299120209Y-124997095D01*
X298739257Y-124997095D01*
X298644019Y-125044714D01*
X298596400Y-125092333D01*
X298548780Y-125187571D01*
X298548780Y-125378047D01*
X298596400Y-125473285D01*
X298644019Y-125520904D01*
X298739257Y-125568523D01*
X298977352Y-125568523D01*
X299072590Y-125520904D01*
X299120209Y-125473285D01*
X299167828Y-125378047D01*
X299167828Y-125187571D01*
X299120209Y-125092333D01*
X299072590Y-125044714D01*
X298977352Y-124997095D01*
X299978780Y-73713285D02*
X299978780Y-74284714D01*
X299978780Y-73999000D02*
X298978780Y-73999000D01*
X299121638Y-74094238D01*
X299216876Y-74189476D01*
X299264495Y-74284714D01*
%TO.C,R30*%
X279558780Y-139331857D02*
X279082590Y-139665190D01*
X279558780Y-139903285D02*
X278558780Y-139903285D01*
X278558780Y-139522333D01*
X278606400Y-139427095D01*
X278654019Y-139379476D01*
X278749257Y-139331857D01*
X278892114Y-139331857D01*
X278987352Y-139379476D01*
X279034971Y-139427095D01*
X279082590Y-139522333D01*
X279082590Y-139903285D01*
X278558780Y-138998523D02*
X278558780Y-138379476D01*
X278939733Y-138712809D01*
X278939733Y-138569952D01*
X278987352Y-138474714D01*
X279034971Y-138427095D01*
X279130209Y-138379476D01*
X279368304Y-138379476D01*
X279463542Y-138427095D01*
X279511161Y-138474714D01*
X279558780Y-138569952D01*
X279558780Y-138855666D01*
X279511161Y-138950904D01*
X279463542Y-138998523D01*
X278558780Y-137760428D02*
X278558780Y-137665190D01*
X278606400Y-137569952D01*
X278654019Y-137522333D01*
X278749257Y-137474714D01*
X278939733Y-137427095D01*
X279177828Y-137427095D01*
X279368304Y-137474714D01*
X279463542Y-137522333D01*
X279511161Y-137569952D01*
X279558780Y-137665190D01*
X279558780Y-137760428D01*
X279511161Y-137855666D01*
X279463542Y-137903285D01*
X279368304Y-137950904D01*
X279177828Y-137998523D01*
X278939733Y-137998523D01*
X278749257Y-137950904D01*
X278654019Y-137903285D01*
X278606400Y-137855666D01*
X278558780Y-137760428D01*
%TO.C,FB5*%
X213128780Y-129089000D02*
X213366876Y-129089000D01*
X213271638Y-129327095D02*
X213366876Y-129089000D01*
X213271638Y-128850904D01*
X213557352Y-129231857D02*
X213366876Y-129089000D01*
X213557352Y-128946142D01*
%TO.C,C13*%
X301603542Y-192626142D02*
X301555923Y-192673761D01*
X301413066Y-192721380D01*
X301317828Y-192721380D01*
X301174971Y-192673761D01*
X301079733Y-192578523D01*
X301032114Y-192483285D01*
X300984495Y-192292809D01*
X300984495Y-192149952D01*
X301032114Y-191959476D01*
X301079733Y-191864238D01*
X301174971Y-191769000D01*
X301317828Y-191721380D01*
X301413066Y-191721380D01*
X301555923Y-191769000D01*
X301603542Y-191816619D01*
X302555923Y-192721380D02*
X301984495Y-192721380D01*
X302270209Y-192721380D02*
X302270209Y-191721380D01*
X302174971Y-191864238D01*
X302079733Y-191959476D01*
X301984495Y-192007095D01*
X302889257Y-191721380D02*
X303508304Y-191721380D01*
X303174971Y-192102333D01*
X303317828Y-192102333D01*
X303413066Y-192149952D01*
X303460685Y-192197571D01*
X303508304Y-192292809D01*
X303508304Y-192530904D01*
X303460685Y-192626142D01*
X303413066Y-192673761D01*
X303317828Y-192721380D01*
X303032114Y-192721380D01*
X302936876Y-192673761D01*
X302889257Y-192626142D01*
%TO.C,H999003*%
X99381618Y-201061380D02*
X99381618Y-200061380D01*
X99381618Y-200537571D02*
X99953047Y-200537571D01*
X99953047Y-201061380D02*
X99953047Y-200061380D01*
X100476856Y-201061380D02*
X100667333Y-201061380D01*
X100762571Y-201013761D01*
X100810190Y-200966142D01*
X100905428Y-200823285D01*
X100953047Y-200632809D01*
X100953047Y-200251857D01*
X100905428Y-200156619D01*
X100857809Y-200109000D01*
X100762571Y-200061380D01*
X100572095Y-200061380D01*
X100476856Y-200109000D01*
X100429237Y-200156619D01*
X100381618Y-200251857D01*
X100381618Y-200489952D01*
X100429237Y-200585190D01*
X100476856Y-200632809D01*
X100572095Y-200680428D01*
X100762571Y-200680428D01*
X100857809Y-200632809D01*
X100905428Y-200585190D01*
X100953047Y-200489952D01*
X101429237Y-201061380D02*
X101619714Y-201061380D01*
X101714952Y-201013761D01*
X101762571Y-200966142D01*
X101857809Y-200823285D01*
X101905428Y-200632809D01*
X101905428Y-200251857D01*
X101857809Y-200156619D01*
X101810190Y-200109000D01*
X101714952Y-200061380D01*
X101524476Y-200061380D01*
X101429237Y-200109000D01*
X101381618Y-200156619D01*
X101333999Y-200251857D01*
X101333999Y-200489952D01*
X101381618Y-200585190D01*
X101429237Y-200632809D01*
X101524476Y-200680428D01*
X101714952Y-200680428D01*
X101810190Y-200632809D01*
X101857809Y-200585190D01*
X101905428Y-200489952D01*
X102381618Y-201061380D02*
X102572095Y-201061380D01*
X102667333Y-201013761D01*
X102714952Y-200966142D01*
X102810190Y-200823285D01*
X102857809Y-200632809D01*
X102857809Y-200251857D01*
X102810190Y-200156619D01*
X102762571Y-200109000D01*
X102667333Y-200061380D01*
X102476856Y-200061380D01*
X102381618Y-200109000D01*
X102333999Y-200156619D01*
X102286380Y-200251857D01*
X102286380Y-200489952D01*
X102333999Y-200585190D01*
X102381618Y-200632809D01*
X102476856Y-200680428D01*
X102667333Y-200680428D01*
X102762571Y-200632809D01*
X102810190Y-200585190D01*
X102857809Y-200489952D01*
X103476856Y-200061380D02*
X103572095Y-200061380D01*
X103667333Y-200109000D01*
X103714952Y-200156619D01*
X103762571Y-200251857D01*
X103810190Y-200442333D01*
X103810190Y-200680428D01*
X103762571Y-200870904D01*
X103714952Y-200966142D01*
X103667333Y-201013761D01*
X103572095Y-201061380D01*
X103476856Y-201061380D01*
X103381618Y-201013761D01*
X103333999Y-200966142D01*
X103286380Y-200870904D01*
X103238761Y-200680428D01*
X103238761Y-200442333D01*
X103286380Y-200251857D01*
X103333999Y-200156619D01*
X103381618Y-200109000D01*
X103476856Y-200061380D01*
X104429237Y-200061380D02*
X104524475Y-200061380D01*
X104619714Y-200109000D01*
X104667333Y-200156619D01*
X104714952Y-200251857D01*
X104762571Y-200442333D01*
X104762571Y-200680428D01*
X104714952Y-200870904D01*
X104667333Y-200966142D01*
X104619714Y-201013761D01*
X104524475Y-201061380D01*
X104429237Y-201061380D01*
X104333999Y-201013761D01*
X104286380Y-200966142D01*
X104238761Y-200870904D01*
X104191142Y-200680428D01*
X104191142Y-200442333D01*
X104238761Y-200251857D01*
X104286380Y-200156619D01*
X104333999Y-200109000D01*
X104429237Y-200061380D01*
X105095904Y-200061380D02*
X105714952Y-200061380D01*
X105381618Y-200442333D01*
X105524476Y-200442333D01*
X105619714Y-200489952D01*
X105667333Y-200537571D01*
X105714952Y-200632809D01*
X105714952Y-200870904D01*
X105667333Y-200966142D01*
X105619714Y-201013761D01*
X105524476Y-201061380D01*
X105238761Y-201061380D01*
X105143523Y-201013761D01*
X105095904Y-200966142D01*
%TO.C,FB4*%
X271928780Y-143859000D02*
X272166876Y-143859000D01*
X272071638Y-144097095D02*
X272166876Y-143859000D01*
X272071638Y-143620904D01*
X272357352Y-144001857D02*
X272166876Y-143859000D01*
X272357352Y-143716142D01*
D10*
%TO.C,C12*%
X251822114Y-194973285D02*
X251866876Y-195018047D01*
X251911638Y-195152333D01*
X251911638Y-195241857D01*
X251866876Y-195376142D01*
X251777352Y-195465666D01*
X251687828Y-195510428D01*
X251508780Y-195555190D01*
X251374495Y-195555190D01*
X251195447Y-195510428D01*
X251105923Y-195465666D01*
X251016400Y-195376142D01*
X250971638Y-195241857D01*
X250971638Y-195152333D01*
X251016400Y-195018047D01*
X251061161Y-194973285D01*
X251911638Y-194078047D02*
X251911638Y-194615190D01*
X251911638Y-194346619D02*
X250971638Y-194346619D01*
X251105923Y-194436142D01*
X251195447Y-194525666D01*
X251240209Y-194615190D01*
X251061161Y-193719952D02*
X251016400Y-193675190D01*
X250971638Y-193585666D01*
X250971638Y-193361857D01*
X251016400Y-193272333D01*
X251061161Y-193227571D01*
X251150685Y-193182809D01*
X251240209Y-193182809D01*
X251374495Y-193227571D01*
X251911638Y-193764714D01*
X251911638Y-193182809D01*
D11*
%TO.C,A1*%
X97476400Y-78621380D02*
X97476400Y-78859476D01*
X97238304Y-78764238D02*
X97476400Y-78859476D01*
X97714495Y-78764238D01*
X97333542Y-79049952D02*
X97476400Y-78859476D01*
X97619257Y-79049952D01*
%TO.C,A2*%
X97406400Y-85981380D02*
X97406400Y-86219476D01*
X97168304Y-86124238D02*
X97406400Y-86219476D01*
X97644495Y-86124238D01*
X97263542Y-86409952D02*
X97406400Y-86219476D01*
X97549257Y-86409952D01*
%TO.C,A3*%
X97476400Y-96051380D02*
X97476400Y-96289476D01*
X97238304Y-96194238D02*
X97476400Y-96289476D01*
X97714495Y-96194238D01*
X97333542Y-96479952D02*
X97476400Y-96289476D01*
X97619257Y-96479952D01*
%TO.C,IC14*%
X199874019Y-113241380D02*
X199874019Y-112241380D01*
X200921638Y-113146142D02*
X200874019Y-113193761D01*
X200731161Y-113241380D01*
X200635923Y-113241380D01*
X200493066Y-113193761D01*
X200397828Y-113098523D01*
X200350209Y-113003285D01*
X200302590Y-112812809D01*
X200302590Y-112669952D01*
X200350209Y-112479476D01*
X200397828Y-112384238D01*
X200493066Y-112289000D01*
X200635923Y-112241380D01*
X200731161Y-112241380D01*
X200874019Y-112289000D01*
X200921638Y-112336619D01*
X201874019Y-113241380D02*
X201302590Y-113241380D01*
X201588304Y-113241380D02*
X201588304Y-112241380D01*
X201493066Y-112384238D01*
X201397828Y-112479476D01*
X201302590Y-112527095D01*
X202731161Y-112574714D02*
X202731161Y-113241380D01*
X202493066Y-112193761D02*
X202254971Y-112908047D01*
X202874019Y-112908047D01*
D10*
%TO.C,C50*%
X248902114Y-98094714D02*
X248857352Y-98139476D01*
X248723066Y-98184238D01*
X248633542Y-98184238D01*
X248499257Y-98139476D01*
X248409733Y-98049952D01*
X248364971Y-97960428D01*
X248320209Y-97781380D01*
X248320209Y-97647095D01*
X248364971Y-97468047D01*
X248409733Y-97378523D01*
X248499257Y-97289000D01*
X248633542Y-97244238D01*
X248723066Y-97244238D01*
X248857352Y-97289000D01*
X248902114Y-97333761D01*
X249752590Y-97244238D02*
X249304971Y-97244238D01*
X249260209Y-97691857D01*
X249304971Y-97647095D01*
X249394495Y-97602333D01*
X249618304Y-97602333D01*
X249707828Y-97647095D01*
X249752590Y-97691857D01*
X249797352Y-97781380D01*
X249797352Y-98005190D01*
X249752590Y-98094714D01*
X249707828Y-98139476D01*
X249618304Y-98184238D01*
X249394495Y-98184238D01*
X249304971Y-98139476D01*
X249260209Y-98094714D01*
X250379257Y-97244238D02*
X250468780Y-97244238D01*
X250558304Y-97289000D01*
X250603066Y-97333761D01*
X250647828Y-97423285D01*
X250692590Y-97602333D01*
X250692590Y-97826142D01*
X250647828Y-98005190D01*
X250603066Y-98094714D01*
X250558304Y-98139476D01*
X250468780Y-98184238D01*
X250379257Y-98184238D01*
X250289733Y-98139476D01*
X250244971Y-98094714D01*
X250200209Y-98005190D01*
X250155447Y-97826142D01*
X250155447Y-97602333D01*
X250200209Y-97423285D01*
X250244971Y-97333761D01*
X250289733Y-97289000D01*
X250379257Y-97244238D01*
D11*
%TO.C,D7*%
X281898780Y-66711857D02*
X281898780Y-67283285D01*
X281898780Y-66997571D02*
X280898780Y-66997571D01*
X281041638Y-67092809D01*
X281136876Y-67188047D01*
X281184495Y-67283285D01*
X281898780Y-66283285D02*
X280898780Y-66283285D01*
X281898780Y-65711857D01*
X280898780Y-65711857D01*
X281232114Y-64807095D02*
X281898780Y-64807095D01*
X280851161Y-65045190D02*
X281565447Y-65283285D01*
X281565447Y-64664238D01*
X281898780Y-63759476D02*
X281898780Y-64330904D01*
X281898780Y-64045190D02*
X280898780Y-64045190D01*
X281041638Y-64140428D01*
X281136876Y-64235666D01*
X281184495Y-64330904D01*
X281232114Y-62902333D02*
X281898780Y-62902333D01*
X280851161Y-63140428D02*
X281565447Y-63378523D01*
X281565447Y-62759476D01*
X281327352Y-62235666D02*
X281279733Y-62330904D01*
X281232114Y-62378523D01*
X281136876Y-62426142D01*
X281089257Y-62426142D01*
X280994019Y-62378523D01*
X280946400Y-62330904D01*
X280898780Y-62235666D01*
X280898780Y-62045190D01*
X280946400Y-61949952D01*
X280994019Y-61902333D01*
X281089257Y-61854714D01*
X281136876Y-61854714D01*
X281232114Y-61902333D01*
X281279733Y-61949952D01*
X281327352Y-62045190D01*
X281327352Y-62235666D01*
X281374971Y-62330904D01*
X281422590Y-62378523D01*
X281517828Y-62426142D01*
X281708304Y-62426142D01*
X281803542Y-62378523D01*
X281851161Y-62330904D01*
X281898780Y-62235666D01*
X281898780Y-62045190D01*
X281851161Y-61949952D01*
X281803542Y-61902333D01*
X281708304Y-61854714D01*
X281517828Y-61854714D01*
X281422590Y-61902333D01*
X281374971Y-61949952D01*
X281327352Y-62045190D01*
D12*
X279688304Y-64859476D02*
X278888304Y-64859476D01*
X278888304Y-64669000D01*
X278926400Y-64554714D01*
X279002590Y-64478523D01*
X279078780Y-64440428D01*
X279231161Y-64402333D01*
X279345447Y-64402333D01*
X279497828Y-64440428D01*
X279574019Y-64478523D01*
X279650209Y-64554714D01*
X279688304Y-64669000D01*
X279688304Y-64859476D01*
X278888304Y-64135666D02*
X278888304Y-63602333D01*
X279688304Y-63945190D01*
D10*
%TO.C,C45*%
X214202114Y-125664714D02*
X214157352Y-125709476D01*
X214023066Y-125754238D01*
X213933542Y-125754238D01*
X213799257Y-125709476D01*
X213709733Y-125619952D01*
X213664971Y-125530428D01*
X213620209Y-125351380D01*
X213620209Y-125217095D01*
X213664971Y-125038047D01*
X213709733Y-124948523D01*
X213799257Y-124859000D01*
X213933542Y-124814238D01*
X214023066Y-124814238D01*
X214157352Y-124859000D01*
X214202114Y-124903761D01*
X215007828Y-125127571D02*
X215007828Y-125754238D01*
X214784019Y-124769476D02*
X214560209Y-125440904D01*
X215142114Y-125440904D01*
X215947828Y-124814238D02*
X215500209Y-124814238D01*
X215455447Y-125261857D01*
X215500209Y-125217095D01*
X215589733Y-125172333D01*
X215813542Y-125172333D01*
X215903066Y-125217095D01*
X215947828Y-125261857D01*
X215992590Y-125351380D01*
X215992590Y-125575190D01*
X215947828Y-125664714D01*
X215903066Y-125709476D01*
X215813542Y-125754238D01*
X215589733Y-125754238D01*
X215500209Y-125709476D01*
X215455447Y-125664714D01*
%TO.C,C53*%
X199412114Y-125664714D02*
X199367352Y-125709476D01*
X199233066Y-125754238D01*
X199143542Y-125754238D01*
X199009257Y-125709476D01*
X198919733Y-125619952D01*
X198874971Y-125530428D01*
X198830209Y-125351380D01*
X198830209Y-125217095D01*
X198874971Y-125038047D01*
X198919733Y-124948523D01*
X199009257Y-124859000D01*
X199143542Y-124814238D01*
X199233066Y-124814238D01*
X199367352Y-124859000D01*
X199412114Y-124903761D01*
X200262590Y-124814238D02*
X199814971Y-124814238D01*
X199770209Y-125261857D01*
X199814971Y-125217095D01*
X199904495Y-125172333D01*
X200128304Y-125172333D01*
X200217828Y-125217095D01*
X200262590Y-125261857D01*
X200307352Y-125351380D01*
X200307352Y-125575190D01*
X200262590Y-125664714D01*
X200217828Y-125709476D01*
X200128304Y-125754238D01*
X199904495Y-125754238D01*
X199814971Y-125709476D01*
X199770209Y-125664714D01*
X200620685Y-124814238D02*
X201202590Y-124814238D01*
X200889257Y-125172333D01*
X201023542Y-125172333D01*
X201113066Y-125217095D01*
X201157828Y-125261857D01*
X201202590Y-125351380D01*
X201202590Y-125575190D01*
X201157828Y-125664714D01*
X201113066Y-125709476D01*
X201023542Y-125754238D01*
X200754971Y-125754238D01*
X200665447Y-125709476D01*
X200620685Y-125664714D01*
D11*
%TO.C,IC22*%
X283874019Y-86671380D02*
X283874019Y-85671380D01*
X284921638Y-86576142D02*
X284874019Y-86623761D01*
X284731161Y-86671380D01*
X284635923Y-86671380D01*
X284493066Y-86623761D01*
X284397828Y-86528523D01*
X284350209Y-86433285D01*
X284302590Y-86242809D01*
X284302590Y-86099952D01*
X284350209Y-85909476D01*
X284397828Y-85814238D01*
X284493066Y-85719000D01*
X284635923Y-85671380D01*
X284731161Y-85671380D01*
X284874019Y-85719000D01*
X284921638Y-85766619D01*
X285302590Y-85766619D02*
X285350209Y-85719000D01*
X285445447Y-85671380D01*
X285683542Y-85671380D01*
X285778780Y-85719000D01*
X285826400Y-85766619D01*
X285874019Y-85861857D01*
X285874019Y-85957095D01*
X285826400Y-86099952D01*
X285254971Y-86671380D01*
X285874019Y-86671380D01*
X286254971Y-85766619D02*
X286302590Y-85719000D01*
X286397828Y-85671380D01*
X286635923Y-85671380D01*
X286731161Y-85719000D01*
X286778780Y-85766619D01*
X286826400Y-85861857D01*
X286826400Y-85957095D01*
X286778780Y-86099952D01*
X286207352Y-86671380D01*
X286826400Y-86671380D01*
%TO.C,IC16*%
X212249019Y-84841380D02*
X212249019Y-83841380D01*
X213296638Y-84746142D02*
X213249019Y-84793761D01*
X213106161Y-84841380D01*
X213010923Y-84841380D01*
X212868066Y-84793761D01*
X212772828Y-84698523D01*
X212725209Y-84603285D01*
X212677590Y-84412809D01*
X212677590Y-84269952D01*
X212725209Y-84079476D01*
X212772828Y-83984238D01*
X212868066Y-83889000D01*
X213010923Y-83841380D01*
X213106161Y-83841380D01*
X213249019Y-83889000D01*
X213296638Y-83936619D01*
X214249019Y-84841380D02*
X213677590Y-84841380D01*
X213963304Y-84841380D02*
X213963304Y-83841380D01*
X213868066Y-83984238D01*
X213772828Y-84079476D01*
X213677590Y-84127095D01*
X215106161Y-83841380D02*
X214915685Y-83841380D01*
X214820447Y-83889000D01*
X214772828Y-83936619D01*
X214677590Y-84079476D01*
X214629971Y-84269952D01*
X214629971Y-84650904D01*
X214677590Y-84746142D01*
X214725209Y-84793761D01*
X214820447Y-84841380D01*
X215010923Y-84841380D01*
X215106161Y-84793761D01*
X215153780Y-84746142D01*
X215201400Y-84650904D01*
X215201400Y-84412809D01*
X215153780Y-84317571D01*
X215106161Y-84269952D01*
X215010923Y-84222333D01*
X214820447Y-84222333D01*
X214725209Y-84269952D01*
X214677590Y-84317571D01*
X214629971Y-84412809D01*
%TO.C,IC20*%
X249374019Y-84841380D02*
X249374019Y-83841380D01*
X250421638Y-84746142D02*
X250374019Y-84793761D01*
X250231161Y-84841380D01*
X250135923Y-84841380D01*
X249993066Y-84793761D01*
X249897828Y-84698523D01*
X249850209Y-84603285D01*
X249802590Y-84412809D01*
X249802590Y-84269952D01*
X249850209Y-84079476D01*
X249897828Y-83984238D01*
X249993066Y-83889000D01*
X250135923Y-83841380D01*
X250231161Y-83841380D01*
X250374019Y-83889000D01*
X250421638Y-83936619D01*
X250802590Y-83936619D02*
X250850209Y-83889000D01*
X250945447Y-83841380D01*
X251183542Y-83841380D01*
X251278780Y-83889000D01*
X251326400Y-83936619D01*
X251374019Y-84031857D01*
X251374019Y-84127095D01*
X251326400Y-84269952D01*
X250754971Y-84841380D01*
X251374019Y-84841380D01*
X251993066Y-83841380D02*
X252088304Y-83841380D01*
X252183542Y-83889000D01*
X252231161Y-83936619D01*
X252278780Y-84031857D01*
X252326400Y-84222333D01*
X252326400Y-84460428D01*
X252278780Y-84650904D01*
X252231161Y-84746142D01*
X252183542Y-84793761D01*
X252088304Y-84841380D01*
X251993066Y-84841380D01*
X251897828Y-84793761D01*
X251850209Y-84746142D01*
X251802590Y-84650904D01*
X251754971Y-84460428D01*
X251754971Y-84222333D01*
X251802590Y-84031857D01*
X251850209Y-83936619D01*
X251897828Y-83889000D01*
X251993066Y-83841380D01*
%TO.C,C54*%
X296340891Y-61036142D02*
X296293272Y-61083761D01*
X296150415Y-61131380D01*
X296055177Y-61131380D01*
X295912320Y-61083761D01*
X295817082Y-60988523D01*
X295769463Y-60893285D01*
X295721844Y-60702809D01*
X295721844Y-60559952D01*
X295769463Y-60369476D01*
X295817082Y-60274238D01*
X295912320Y-60179000D01*
X296055177Y-60131380D01*
X296150415Y-60131380D01*
X296293272Y-60179000D01*
X296340891Y-60226619D01*
X297245653Y-60131380D02*
X296769463Y-60131380D01*
X296721844Y-60607571D01*
X296769463Y-60559952D01*
X296864701Y-60512333D01*
X297102796Y-60512333D01*
X297198034Y-60559952D01*
X297245653Y-60607571D01*
X297293272Y-60702809D01*
X297293272Y-60940904D01*
X297245653Y-61036142D01*
X297198034Y-61083761D01*
X297102796Y-61131380D01*
X296864701Y-61131380D01*
X296769463Y-61083761D01*
X296721844Y-61036142D01*
X298150415Y-60464714D02*
X298150415Y-61131380D01*
X297912320Y-60083761D02*
X297674225Y-60798047D01*
X298293272Y-60798047D01*
%TO.C,IC19*%
X224624019Y-84841380D02*
X224624019Y-83841380D01*
X225671638Y-84746142D02*
X225624019Y-84793761D01*
X225481161Y-84841380D01*
X225385923Y-84841380D01*
X225243066Y-84793761D01*
X225147828Y-84698523D01*
X225100209Y-84603285D01*
X225052590Y-84412809D01*
X225052590Y-84269952D01*
X225100209Y-84079476D01*
X225147828Y-83984238D01*
X225243066Y-83889000D01*
X225385923Y-83841380D01*
X225481161Y-83841380D01*
X225624019Y-83889000D01*
X225671638Y-83936619D01*
X226624019Y-84841380D02*
X226052590Y-84841380D01*
X226338304Y-84841380D02*
X226338304Y-83841380D01*
X226243066Y-83984238D01*
X226147828Y-84079476D01*
X226052590Y-84127095D01*
X227100209Y-84841380D02*
X227290685Y-84841380D01*
X227385923Y-84793761D01*
X227433542Y-84746142D01*
X227528780Y-84603285D01*
X227576400Y-84412809D01*
X227576400Y-84031857D01*
X227528780Y-83936619D01*
X227481161Y-83889000D01*
X227385923Y-83841380D01*
X227195447Y-83841380D01*
X227100209Y-83889000D01*
X227052590Y-83936619D01*
X227004971Y-84031857D01*
X227004971Y-84269952D01*
X227052590Y-84365190D01*
X227100209Y-84412809D01*
X227195447Y-84460428D01*
X227385923Y-84460428D01*
X227481161Y-84412809D01*
X227528780Y-84365190D01*
X227576400Y-84269952D01*
%TO.C,IC17*%
X199874019Y-84841380D02*
X199874019Y-83841380D01*
X200921638Y-84746142D02*
X200874019Y-84793761D01*
X200731161Y-84841380D01*
X200635923Y-84841380D01*
X200493066Y-84793761D01*
X200397828Y-84698523D01*
X200350209Y-84603285D01*
X200302590Y-84412809D01*
X200302590Y-84269952D01*
X200350209Y-84079476D01*
X200397828Y-83984238D01*
X200493066Y-83889000D01*
X200635923Y-83841380D01*
X200731161Y-83841380D01*
X200874019Y-83889000D01*
X200921638Y-83936619D01*
X201874019Y-84841380D02*
X201302590Y-84841380D01*
X201588304Y-84841380D02*
X201588304Y-83841380D01*
X201493066Y-83984238D01*
X201397828Y-84079476D01*
X201302590Y-84127095D01*
X202207352Y-83841380D02*
X202874019Y-83841380D01*
X202445447Y-84841380D01*
D10*
%TO.C,C48*%
X236542114Y-98094714D02*
X236497352Y-98139476D01*
X236363066Y-98184238D01*
X236273542Y-98184238D01*
X236139257Y-98139476D01*
X236049733Y-98049952D01*
X236004971Y-97960428D01*
X235960209Y-97781380D01*
X235960209Y-97647095D01*
X236004971Y-97468047D01*
X236049733Y-97378523D01*
X236139257Y-97289000D01*
X236273542Y-97244238D01*
X236363066Y-97244238D01*
X236497352Y-97289000D01*
X236542114Y-97333761D01*
X237347828Y-97557571D02*
X237347828Y-98184238D01*
X237124019Y-97199476D02*
X236900209Y-97870904D01*
X237482114Y-97870904D01*
X237974495Y-97647095D02*
X237884971Y-97602333D01*
X237840209Y-97557571D01*
X237795447Y-97468047D01*
X237795447Y-97423285D01*
X237840209Y-97333761D01*
X237884971Y-97289000D01*
X237974495Y-97244238D01*
X238153542Y-97244238D01*
X238243066Y-97289000D01*
X238287828Y-97333761D01*
X238332590Y-97423285D01*
X238332590Y-97468047D01*
X238287828Y-97557571D01*
X238243066Y-97602333D01*
X238153542Y-97647095D01*
X237974495Y-97647095D01*
X237884971Y-97691857D01*
X237840209Y-97736619D01*
X237795447Y-97826142D01*
X237795447Y-98005190D01*
X237840209Y-98094714D01*
X237884971Y-98139476D01*
X237974495Y-98184238D01*
X238153542Y-98184238D01*
X238243066Y-98139476D01*
X238287828Y-98094714D01*
X238332590Y-98005190D01*
X238332590Y-97826142D01*
X238287828Y-97736619D01*
X238243066Y-97691857D01*
X238153542Y-97647095D01*
D12*
%TO.C,D12*%
X288648304Y-62910428D02*
X287848304Y-62910428D01*
X287848304Y-62719952D01*
X287886400Y-62605666D01*
X287962590Y-62529476D01*
X288038780Y-62491380D01*
X288191161Y-62453285D01*
X288305447Y-62453285D01*
X288457828Y-62491380D01*
X288534019Y-62529476D01*
X288610209Y-62605666D01*
X288648304Y-62719952D01*
X288648304Y-62910428D01*
X288648304Y-61691380D02*
X288648304Y-62148523D01*
X288648304Y-61919952D02*
X287848304Y-61919952D01*
X287962590Y-61996142D01*
X288038780Y-62072333D01*
X288076876Y-62148523D01*
X287924495Y-61386619D02*
X287886400Y-61348523D01*
X287848304Y-61272333D01*
X287848304Y-61081857D01*
X287886400Y-61005666D01*
X287924495Y-60967571D01*
X288000685Y-60929476D01*
X288076876Y-60929476D01*
X288191161Y-60967571D01*
X288648304Y-61424714D01*
X288648304Y-60929476D01*
D10*
%TO.C,C46*%
X211732114Y-98094714D02*
X211687352Y-98139476D01*
X211553066Y-98184238D01*
X211463542Y-98184238D01*
X211329257Y-98139476D01*
X211239733Y-98049952D01*
X211194971Y-97960428D01*
X211150209Y-97781380D01*
X211150209Y-97647095D01*
X211194971Y-97468047D01*
X211239733Y-97378523D01*
X211329257Y-97289000D01*
X211463542Y-97244238D01*
X211553066Y-97244238D01*
X211687352Y-97289000D01*
X211732114Y-97333761D01*
X212537828Y-97557571D02*
X212537828Y-98184238D01*
X212314019Y-97199476D02*
X212090209Y-97870904D01*
X212672114Y-97870904D01*
X213433066Y-97244238D02*
X213254019Y-97244238D01*
X213164495Y-97289000D01*
X213119733Y-97333761D01*
X213030209Y-97468047D01*
X212985447Y-97647095D01*
X212985447Y-98005190D01*
X213030209Y-98094714D01*
X213074971Y-98139476D01*
X213164495Y-98184238D01*
X213343542Y-98184238D01*
X213433066Y-98139476D01*
X213477828Y-98094714D01*
X213522590Y-98005190D01*
X213522590Y-97781380D01*
X213477828Y-97691857D01*
X213433066Y-97647095D01*
X213343542Y-97602333D01*
X213164495Y-97602333D01*
X213074971Y-97647095D01*
X213030209Y-97691857D01*
X212985447Y-97781380D01*
D11*
%TO.C,J7*%
X265943542Y-102607095D02*
X265991161Y-102654714D01*
X266038780Y-102797571D01*
X266038780Y-102892809D01*
X265991161Y-103035666D01*
X265895923Y-103130904D01*
X265800685Y-103178523D01*
X265610209Y-103226142D01*
X265467352Y-103226142D01*
X265276876Y-103178523D01*
X265181638Y-103130904D01*
X265086400Y-103035666D01*
X265038780Y-102892809D01*
X265038780Y-102797571D01*
X265086400Y-102654714D01*
X265134019Y-102607095D01*
X266038780Y-102035666D02*
X265991161Y-102130904D01*
X265943542Y-102178523D01*
X265848304Y-102226142D01*
X265562590Y-102226142D01*
X265467352Y-102178523D01*
X265419733Y-102130904D01*
X265372114Y-102035666D01*
X265372114Y-101892809D01*
X265419733Y-101797571D01*
X265467352Y-101749952D01*
X265562590Y-101702333D01*
X265848304Y-101702333D01*
X265943542Y-101749952D01*
X265991161Y-101797571D01*
X266038780Y-101892809D01*
X266038780Y-102035666D01*
X265372114Y-101273761D02*
X266038780Y-101273761D01*
X265467352Y-101273761D02*
X265419733Y-101226142D01*
X265372114Y-101130904D01*
X265372114Y-100988047D01*
X265419733Y-100892809D01*
X265514971Y-100845190D01*
X266038780Y-100845190D01*
X265372114Y-100369000D02*
X266038780Y-100369000D01*
X265467352Y-100369000D02*
X265419733Y-100321380D01*
X265372114Y-100226142D01*
X265372114Y-100083285D01*
X265419733Y-99988047D01*
X265514971Y-99940428D01*
X266038780Y-99940428D01*
X266134019Y-99702333D02*
X266134019Y-98940428D01*
X265038780Y-98511857D02*
X265038780Y-98416619D01*
X265086400Y-98321380D01*
X265134019Y-98273761D01*
X265229257Y-98226142D01*
X265419733Y-98178523D01*
X265657828Y-98178523D01*
X265848304Y-98226142D01*
X265943542Y-98273761D01*
X265991161Y-98321380D01*
X266038780Y-98416619D01*
X266038780Y-98511857D01*
X265991161Y-98607095D01*
X265943542Y-98654714D01*
X265848304Y-98702333D01*
X265657828Y-98749952D01*
X265419733Y-98749952D01*
X265229257Y-98702333D01*
X265134019Y-98654714D01*
X265086400Y-98607095D01*
X265038780Y-98511857D01*
X266038780Y-97226142D02*
X266038780Y-97797571D01*
X266038780Y-97511857D02*
X265038780Y-97511857D01*
X265181638Y-97607095D01*
X265276876Y-97702333D01*
X265324495Y-97797571D01*
X266038780Y-96892809D02*
X265372114Y-96369000D01*
X265372114Y-96892809D02*
X266038780Y-96369000D01*
X265038780Y-95797571D02*
X265038780Y-95702333D01*
X265086400Y-95607095D01*
X265134019Y-95559476D01*
X265229257Y-95511857D01*
X265419733Y-95464238D01*
X265657828Y-95464238D01*
X265848304Y-95511857D01*
X265943542Y-95559476D01*
X265991161Y-95607095D01*
X266038780Y-95702333D01*
X266038780Y-95797571D01*
X265991161Y-95892809D01*
X265943542Y-95940428D01*
X265848304Y-95988047D01*
X265657828Y-96035666D01*
X265419733Y-96035666D01*
X265229257Y-95988047D01*
X265134019Y-95940428D01*
X265086400Y-95892809D01*
X265038780Y-95797571D01*
X265134019Y-95083285D02*
X265086400Y-95035666D01*
X265038780Y-94940428D01*
X265038780Y-94702333D01*
X265086400Y-94607095D01*
X265134019Y-94559476D01*
X265229257Y-94511857D01*
X265324495Y-94511857D01*
X265467352Y-94559476D01*
X266038780Y-95130904D01*
X266038780Y-94511857D01*
X268853066Y-98321380D02*
X268853066Y-99035666D01*
X268805447Y-99178523D01*
X268710209Y-99273761D01*
X268567352Y-99321380D01*
X268472114Y-99321380D01*
X269234019Y-98321380D02*
X269900685Y-98321380D01*
X269472114Y-99321380D01*
%TO.C,J8*%
X183668780Y-78042333D02*
X184383066Y-78042333D01*
X184525923Y-78089952D01*
X184621161Y-78185190D01*
X184668780Y-78328047D01*
X184668780Y-78423285D01*
X184097352Y-77423285D02*
X184049733Y-77518523D01*
X184002114Y-77566142D01*
X183906876Y-77613761D01*
X183859257Y-77613761D01*
X183764019Y-77566142D01*
X183716400Y-77518523D01*
X183668780Y-77423285D01*
X183668780Y-77232809D01*
X183716400Y-77137571D01*
X183764019Y-77089952D01*
X183859257Y-77042333D01*
X183906876Y-77042333D01*
X184002114Y-77089952D01*
X184049733Y-77137571D01*
X184097352Y-77232809D01*
X184097352Y-77423285D01*
X184144971Y-77518523D01*
X184192590Y-77566142D01*
X184287828Y-77613761D01*
X184478304Y-77613761D01*
X184573542Y-77566142D01*
X184621161Y-77518523D01*
X184668780Y-77423285D01*
X184668780Y-77232809D01*
X184621161Y-77137571D01*
X184573542Y-77089952D01*
X184478304Y-77042333D01*
X184287828Y-77042333D01*
X184192590Y-77089952D01*
X184144971Y-77137571D01*
X184097352Y-77232809D01*
D10*
%TO.C,C51*%
X265602114Y-91983285D02*
X265646876Y-92028047D01*
X265691638Y-92162333D01*
X265691638Y-92251857D01*
X265646876Y-92386142D01*
X265557352Y-92475666D01*
X265467828Y-92520428D01*
X265288780Y-92565190D01*
X265154495Y-92565190D01*
X264975447Y-92520428D01*
X264885923Y-92475666D01*
X264796400Y-92386142D01*
X264751638Y-92251857D01*
X264751638Y-92162333D01*
X264796400Y-92028047D01*
X264841161Y-91983285D01*
X264751638Y-91132809D02*
X264751638Y-91580428D01*
X265199257Y-91625190D01*
X265154495Y-91580428D01*
X265109733Y-91490904D01*
X265109733Y-91267095D01*
X265154495Y-91177571D01*
X265199257Y-91132809D01*
X265288780Y-91088047D01*
X265512590Y-91088047D01*
X265602114Y-91132809D01*
X265646876Y-91177571D01*
X265691638Y-91267095D01*
X265691638Y-91490904D01*
X265646876Y-91580428D01*
X265602114Y-91625190D01*
X265691638Y-90192809D02*
X265691638Y-90729952D01*
X265691638Y-90461380D02*
X264751638Y-90461380D01*
X264885923Y-90550904D01*
X264975447Y-90640428D01*
X265020209Y-90729952D01*
D11*
%TO.C,IC21*%
X271574019Y-85441380D02*
X271574019Y-84441380D01*
X272621638Y-85346142D02*
X272574019Y-85393761D01*
X272431161Y-85441380D01*
X272335923Y-85441380D01*
X272193066Y-85393761D01*
X272097828Y-85298523D01*
X272050209Y-85203285D01*
X272002590Y-85012809D01*
X272002590Y-84869952D01*
X272050209Y-84679476D01*
X272097828Y-84584238D01*
X272193066Y-84489000D01*
X272335923Y-84441380D01*
X272431161Y-84441380D01*
X272574019Y-84489000D01*
X272621638Y-84536619D01*
X273002590Y-84536619D02*
X273050209Y-84489000D01*
X273145447Y-84441380D01*
X273383542Y-84441380D01*
X273478780Y-84489000D01*
X273526400Y-84536619D01*
X273574019Y-84631857D01*
X273574019Y-84727095D01*
X273526400Y-84869952D01*
X272954971Y-85441380D01*
X273574019Y-85441380D01*
X274526400Y-85441380D02*
X273954971Y-85441380D01*
X274240685Y-85441380D02*
X274240685Y-84441380D01*
X274145447Y-84584238D01*
X274050209Y-84679476D01*
X273954971Y-84727095D01*
%TO.C,SW2*%
X169968780Y-42155000D02*
X170206876Y-42155000D01*
X170111638Y-42393095D02*
X170206876Y-42155000D01*
X170111638Y-41916904D01*
X170397352Y-42297857D02*
X170206876Y-42155000D01*
X170397352Y-42012142D01*
X169968780Y-42155000D02*
X170206876Y-42155000D01*
X170111638Y-42393095D02*
X170206876Y-42155000D01*
X170111638Y-41916904D01*
X170397352Y-42297857D02*
X170206876Y-42155000D01*
X170397352Y-42012142D01*
%TO.C,R32*%
X223908780Y-139381857D02*
X223432590Y-139715190D01*
X223908780Y-139953285D02*
X222908780Y-139953285D01*
X222908780Y-139572333D01*
X222956400Y-139477095D01*
X223004019Y-139429476D01*
X223099257Y-139381857D01*
X223242114Y-139381857D01*
X223337352Y-139429476D01*
X223384971Y-139477095D01*
X223432590Y-139572333D01*
X223432590Y-139953285D01*
X222908780Y-139048523D02*
X222908780Y-138429476D01*
X223289733Y-138762809D01*
X223289733Y-138619952D01*
X223337352Y-138524714D01*
X223384971Y-138477095D01*
X223480209Y-138429476D01*
X223718304Y-138429476D01*
X223813542Y-138477095D01*
X223861161Y-138524714D01*
X223908780Y-138619952D01*
X223908780Y-138905666D01*
X223861161Y-139000904D01*
X223813542Y-139048523D01*
X223004019Y-138048523D02*
X222956400Y-138000904D01*
X222908780Y-137905666D01*
X222908780Y-137667571D01*
X222956400Y-137572333D01*
X223004019Y-137524714D01*
X223099257Y-137477095D01*
X223194495Y-137477095D01*
X223337352Y-137524714D01*
X223908780Y-138096142D01*
X223908780Y-137477095D01*
%TO.C,IC18*%
X236999019Y-84841380D02*
X236999019Y-83841380D01*
X238046638Y-84746142D02*
X237999019Y-84793761D01*
X237856161Y-84841380D01*
X237760923Y-84841380D01*
X237618066Y-84793761D01*
X237522828Y-84698523D01*
X237475209Y-84603285D01*
X237427590Y-84412809D01*
X237427590Y-84269952D01*
X237475209Y-84079476D01*
X237522828Y-83984238D01*
X237618066Y-83889000D01*
X237760923Y-83841380D01*
X237856161Y-83841380D01*
X237999019Y-83889000D01*
X238046638Y-83936619D01*
X238999019Y-84841380D02*
X238427590Y-84841380D01*
X238713304Y-84841380D02*
X238713304Y-83841380D01*
X238618066Y-83984238D01*
X238522828Y-84079476D01*
X238427590Y-84127095D01*
X239570447Y-84269952D02*
X239475209Y-84222333D01*
X239427590Y-84174714D01*
X239379971Y-84079476D01*
X239379971Y-84031857D01*
X239427590Y-83936619D01*
X239475209Y-83889000D01*
X239570447Y-83841380D01*
X239760923Y-83841380D01*
X239856161Y-83889000D01*
X239903780Y-83936619D01*
X239951400Y-84031857D01*
X239951400Y-84079476D01*
X239903780Y-84174714D01*
X239856161Y-84222333D01*
X239760923Y-84269952D01*
X239570447Y-84269952D01*
X239475209Y-84317571D01*
X239427590Y-84365190D01*
X239379971Y-84460428D01*
X239379971Y-84650904D01*
X239427590Y-84746142D01*
X239475209Y-84793761D01*
X239570447Y-84841380D01*
X239760923Y-84841380D01*
X239856161Y-84793761D01*
X239903780Y-84746142D01*
X239951400Y-84650904D01*
X239951400Y-84460428D01*
X239903780Y-84365190D01*
X239856161Y-84317571D01*
X239760923Y-84269952D01*
D10*
%TO.C,C49*%
X221672114Y-99163285D02*
X221716876Y-99208047D01*
X221761638Y-99342333D01*
X221761638Y-99431857D01*
X221716876Y-99566142D01*
X221627352Y-99655666D01*
X221537828Y-99700428D01*
X221358780Y-99745190D01*
X221224495Y-99745190D01*
X221045447Y-99700428D01*
X220955923Y-99655666D01*
X220866400Y-99566142D01*
X220821638Y-99431857D01*
X220821638Y-99342333D01*
X220866400Y-99208047D01*
X220911161Y-99163285D01*
X221134971Y-98357571D02*
X221761638Y-98357571D01*
X220776876Y-98581380D02*
X221448304Y-98805190D01*
X221448304Y-98223285D01*
X221761638Y-97820428D02*
X221761638Y-97641380D01*
X221716876Y-97551857D01*
X221672114Y-97507095D01*
X221537828Y-97417571D01*
X221358780Y-97372809D01*
X221000685Y-97372809D01*
X220911161Y-97417571D01*
X220866400Y-97462333D01*
X220821638Y-97551857D01*
X220821638Y-97730904D01*
X220866400Y-97820428D01*
X220911161Y-97865190D01*
X221000685Y-97909952D01*
X221224495Y-97909952D01*
X221314019Y-97865190D01*
X221358780Y-97820428D01*
X221403542Y-97730904D01*
X221403542Y-97551857D01*
X221358780Y-97462333D01*
X221314019Y-97417571D01*
X221224495Y-97372809D01*
%TO.C,C47*%
X199392114Y-98094714D02*
X199347352Y-98139476D01*
X199213066Y-98184238D01*
X199123542Y-98184238D01*
X198989257Y-98139476D01*
X198899733Y-98049952D01*
X198854971Y-97960428D01*
X198810209Y-97781380D01*
X198810209Y-97647095D01*
X198854971Y-97468047D01*
X198899733Y-97378523D01*
X198989257Y-97289000D01*
X199123542Y-97244238D01*
X199213066Y-97244238D01*
X199347352Y-97289000D01*
X199392114Y-97333761D01*
X200197828Y-97557571D02*
X200197828Y-98184238D01*
X199974019Y-97199476D02*
X199750209Y-97870904D01*
X200332114Y-97870904D01*
X200600685Y-97244238D02*
X201227352Y-97244238D01*
X200824495Y-98184238D01*
D11*
%TO.C,IC3*%
X171610209Y-90756380D02*
X171610209Y-89756380D01*
X172657828Y-90661142D02*
X172610209Y-90708761D01*
X172467352Y-90756380D01*
X172372114Y-90756380D01*
X172229257Y-90708761D01*
X172134019Y-90613523D01*
X172086400Y-90518285D01*
X172038780Y-90327809D01*
X172038780Y-90184952D01*
X172086400Y-89994476D01*
X172134019Y-89899238D01*
X172229257Y-89804000D01*
X172372114Y-89756380D01*
X172467352Y-89756380D01*
X172610209Y-89804000D01*
X172657828Y-89851619D01*
X172991161Y-89756380D02*
X173610209Y-89756380D01*
X173276876Y-90137333D01*
X173419733Y-90137333D01*
X173514971Y-90184952D01*
X173562590Y-90232571D01*
X173610209Y-90327809D01*
X173610209Y-90565904D01*
X173562590Y-90661142D01*
X173514971Y-90708761D01*
X173419733Y-90756380D01*
X173134019Y-90756380D01*
X173038780Y-90708761D01*
X172991161Y-90661142D01*
%TO.C,IC15*%
X214674019Y-113241380D02*
X214674019Y-112241380D01*
X215721638Y-113146142D02*
X215674019Y-113193761D01*
X215531161Y-113241380D01*
X215435923Y-113241380D01*
X215293066Y-113193761D01*
X215197828Y-113098523D01*
X215150209Y-113003285D01*
X215102590Y-112812809D01*
X215102590Y-112669952D01*
X215150209Y-112479476D01*
X215197828Y-112384238D01*
X215293066Y-112289000D01*
X215435923Y-112241380D01*
X215531161Y-112241380D01*
X215674019Y-112289000D01*
X215721638Y-112336619D01*
X216674019Y-113241380D02*
X216102590Y-113241380D01*
X216388304Y-113241380D02*
X216388304Y-112241380D01*
X216293066Y-112384238D01*
X216197828Y-112479476D01*
X216102590Y-112527095D01*
X217578780Y-112241380D02*
X217102590Y-112241380D01*
X217054971Y-112717571D01*
X217102590Y-112669952D01*
X217197828Y-112622333D01*
X217435923Y-112622333D01*
X217531161Y-112669952D01*
X217578780Y-112717571D01*
X217626400Y-112812809D01*
X217626400Y-113050904D01*
X217578780Y-113146142D01*
X217531161Y-113193761D01*
X217435923Y-113241380D01*
X217197828Y-113241380D01*
X217102590Y-113193761D01*
X217054971Y-113146142D01*
D14*
%TO.C,C2*%
X140126400Y-203609000D02*
X140126400Y-201109000D01*
X140126400Y-201109000D02*
X135426400Y-201109000D01*
X135426400Y-203609000D02*
X140126400Y-203609000D01*
X135426400Y-201109000D02*
X135426400Y-203609000D01*
%TO.C,C4*%
X230976400Y-200859000D02*
X235676400Y-200859000D01*
X230976400Y-198359000D02*
X230976400Y-200859000D01*
X235676400Y-200859000D02*
X235676400Y-198359000D01*
X235676400Y-198359000D02*
X230976400Y-198359000D01*
%TO.C,C5*%
X233586400Y-124079000D02*
X233586400Y-126579000D01*
X238286400Y-124079000D02*
X233586400Y-124079000D01*
X233586400Y-126579000D02*
X238286400Y-126579000D01*
X238286400Y-126579000D02*
X238286400Y-124079000D01*
%TO.C,C6*%
X249386400Y-126579000D02*
X254086400Y-126579000D01*
X249386400Y-124079000D02*
X249386400Y-126579000D01*
X254086400Y-126579000D02*
X254086400Y-124079000D01*
X254086400Y-124079000D02*
X249386400Y-124079000D01*
%TO.C,C7*%
X271376400Y-58349000D02*
X276076400Y-58349000D01*
X276076400Y-55849000D02*
X271376400Y-55849000D01*
X276076400Y-58349000D02*
X276076400Y-55849000D01*
X271376400Y-55849000D02*
X271376400Y-58349000D01*
%TO.C,C8*%
X281057683Y-54301500D02*
X281057683Y-54801500D01*
X280807683Y-54551500D02*
X281307683Y-54551500D01*
X285441288Y-55639000D02*
G75*
G03*
X285441288Y-55639000I-2500000J0D01*
G01*
%TO.C,C9*%
X198983159Y-198026500D02*
X198983159Y-197226500D01*
X199383159Y-197626500D02*
X198583159Y-197626500D01*
X199956400Y-195879000D02*
G75*
G03*
X199956400Y-195879000I-4000000J0D01*
G01*
%TO.C,C10*%
X197876400Y-160269000D02*
X197876400Y-164969000D01*
X197876400Y-164969000D02*
X200376400Y-164969000D01*
X200376400Y-164969000D02*
X200376400Y-160269000D01*
X200376400Y-160269000D02*
X197876400Y-160269000D01*
%TO.C,C11*%
X260873159Y-197986500D02*
X260073159Y-197986500D01*
X260473159Y-198386500D02*
X260473159Y-197586500D01*
X261446400Y-196239000D02*
G75*
G03*
X261446400Y-196239000I-4000000J0D01*
G01*
%TO.C,C14*%
X282286400Y-200689000D02*
X282286400Y-203689000D01*
X282286400Y-203689000D02*
X289486400Y-203689000D01*
X289486400Y-200689000D02*
X282286400Y-200689000D01*
X289486400Y-203689000D02*
X289486400Y-200689000D01*
%TO.C,C15*%
X289486400Y-197609000D02*
X282286400Y-197609000D01*
X282286400Y-200109000D02*
X289486400Y-200109000D01*
X282286400Y-197609000D02*
X282286400Y-200109000D01*
X289486400Y-200109000D02*
X289486400Y-197609000D01*
%TO.C,C16*%
X282106400Y-97619000D02*
X277406400Y-97619000D01*
X282106400Y-100119000D02*
X282106400Y-97619000D01*
X277406400Y-97619000D02*
X277406400Y-100119000D01*
X277406400Y-100119000D02*
X282106400Y-100119000D01*
%TO.C,C17*%
X286683066Y-59939000D02*
X284183066Y-59939000D01*
X284183066Y-67139000D02*
X286683066Y-67139000D01*
X284183066Y-59939000D02*
X284183066Y-67139000D01*
X286683066Y-67139000D02*
X286683066Y-59939000D01*
%TO.C,C18*%
X172336400Y-203599000D02*
X172336400Y-201099000D01*
X167636400Y-203599000D02*
X172336400Y-203599000D01*
X172336400Y-201099000D02*
X167636400Y-201099000D01*
X167636400Y-201099000D02*
X167636400Y-203599000D01*
%TO.C,C19*%
X143353900Y-99420283D02*
X143353900Y-99920283D01*
X143603900Y-99670283D02*
X143103900Y-99670283D01*
X144766400Y-101553888D02*
G75*
G03*
X144766400Y-101553888I-2500000J0D01*
G01*
%TO.C,C20*%
X150821400Y-100728888D02*
X148321400Y-100728888D01*
X150821400Y-105428888D02*
X150821400Y-100728888D01*
X148321400Y-100728888D02*
X148321400Y-105428888D01*
X148321400Y-105428888D02*
X150821400Y-105428888D01*
%TO.C,C21*%
X154966400Y-107049000D02*
X154966400Y-99849000D01*
X152466400Y-107049000D02*
X154966400Y-107049000D01*
X154966400Y-99849000D02*
X152466400Y-99849000D01*
X152466400Y-99849000D02*
X152466400Y-107049000D01*
%TO.C,C22*%
X160226400Y-91739000D02*
X160226400Y-96439000D01*
X162726400Y-91739000D02*
X160226400Y-91739000D01*
X162726400Y-96439000D02*
X162726400Y-91739000D01*
X160226400Y-96439000D02*
X162726400Y-96439000D01*
%TO.C,C23*%
X153716400Y-83369000D02*
X156216400Y-83369000D01*
X156216400Y-83369000D02*
X156216400Y-76169000D01*
X153716400Y-76169000D02*
X153716400Y-83369000D01*
X156216400Y-76169000D02*
X153716400Y-76169000D01*
%TO.C,C25*%
X199786400Y-66489000D02*
X199786400Y-63989000D01*
X195086400Y-63989000D02*
X195086400Y-66489000D01*
X199786400Y-63989000D02*
X195086400Y-63989000D01*
X195086400Y-66489000D02*
X199786400Y-66489000D01*
%TO.C,C24*%
X199786400Y-60379000D02*
X195086400Y-60379000D01*
X195086400Y-62879000D02*
X199786400Y-62879000D01*
X199786400Y-62879000D02*
X199786400Y-60379000D01*
X195086400Y-60379000D02*
X195086400Y-62879000D01*
%TO.C,C26*%
X219436400Y-62309000D02*
X216936400Y-62309000D01*
X216936400Y-70309000D02*
X219436400Y-70309000D01*
X219436400Y-70309000D02*
X219436400Y-62309000D01*
X216936400Y-62309000D02*
X216936400Y-70309000D01*
%TO.C,C27*%
X203406400Y-66449000D02*
X211406400Y-66449000D01*
X211406400Y-66449000D02*
X211406400Y-63949000D01*
X203406400Y-63949000D02*
X203406400Y-66449000D01*
X211406400Y-63949000D02*
X203406400Y-63949000D01*
%TO.C,C28*%
X203406400Y-62909000D02*
X211406400Y-62909000D01*
X211406400Y-62909000D02*
X211406400Y-60409000D01*
X211406400Y-60409000D02*
X203406400Y-60409000D01*
X203406400Y-60409000D02*
X203406400Y-62909000D01*
%TO.C,C29*%
X174956400Y-62399000D02*
X177456400Y-62399000D01*
X174956400Y-54399000D02*
X174956400Y-62399000D01*
X177456400Y-62399000D02*
X177456400Y-54399000D01*
X177456400Y-54399000D02*
X174956400Y-54399000D01*
%TO.C,C30*%
X171716400Y-62399000D02*
X174216400Y-62399000D01*
X174216400Y-54399000D02*
X171716400Y-54399000D01*
X171716400Y-54399000D02*
X171716400Y-62399000D01*
X174216400Y-62399000D02*
X174216400Y-54399000D01*
%TO.C,C31*%
X160096400Y-104569000D02*
X162596400Y-104569000D01*
X162596400Y-99869000D02*
X160096400Y-99869000D01*
X160096400Y-99869000D02*
X160096400Y-104569000D01*
X162596400Y-104569000D02*
X162596400Y-99869000D01*
%TO.C,C32*%
X127856400Y-121049000D02*
G75*
G03*
X127856400Y-121049000I-2500000J0D01*
G01*
%TO.C,C33*%
X233566400Y-62499000D02*
X231066400Y-62499000D01*
X233566400Y-70499000D02*
X233566400Y-62499000D01*
X231066400Y-62499000D02*
X231066400Y-70499000D01*
X231066400Y-70499000D02*
X233566400Y-70499000D01*
%TO.C,C34*%
X108973159Y-188366500D02*
X108173159Y-188366500D01*
X108573159Y-188766500D02*
X108573159Y-187966500D01*
X109546400Y-186619000D02*
G75*
G03*
X109546400Y-186619000I-4000000J0D01*
G01*
%TO.C,C35*%
X107896400Y-195739000D02*
X107896400Y-193239000D01*
X107896400Y-193239000D02*
X103196400Y-193239000D01*
X103196400Y-195739000D02*
X107896400Y-195739000D01*
X103196400Y-193239000D02*
X103196400Y-195739000D01*
%TO.C,C37*%
X102936400Y-156159000D02*
X107636400Y-156159000D01*
X107636400Y-156159000D02*
X107636400Y-153659000D01*
X107636400Y-153659000D02*
X102936400Y-153659000D01*
X102936400Y-153659000D02*
X102936400Y-156159000D01*
%TO.C,C38*%
X112336990Y-130631500D02*
X112336990Y-131431500D01*
X111936990Y-131031500D02*
X112736990Y-131031500D01*
X119363749Y-132779000D02*
G75*
G03*
X119363749Y-132779000I-4000000J0D01*
G01*
%TO.C,C39*%
X102936400Y-157639000D02*
X102936400Y-160139000D01*
X107636400Y-157639000D02*
X102936400Y-157639000D01*
X107636400Y-160139000D02*
X107636400Y-157639000D01*
X102936400Y-160139000D02*
X107636400Y-160139000D01*
%TO.C,C40*%
X106326400Y-101939000D02*
X98326400Y-101939000D01*
X106326400Y-104439000D02*
X106326400Y-101939000D01*
X98326400Y-101939000D02*
X98326400Y-104439000D01*
X98326400Y-104439000D02*
X106326400Y-104439000D01*
%TO.C,C41*%
X106326400Y-108599000D02*
X106326400Y-106099000D01*
X98326400Y-106099000D02*
X98326400Y-108599000D01*
X98326400Y-108599000D02*
X106326400Y-108599000D01*
X106326400Y-106099000D02*
X98326400Y-106099000D01*
%TO.C,C43*%
X112186400Y-80689000D02*
X112186400Y-78189000D01*
X104186400Y-78189000D02*
X104186400Y-80689000D01*
X104186400Y-80689000D02*
X112186400Y-80689000D01*
X112186400Y-78189000D02*
X104186400Y-78189000D01*
%TO.C,C44*%
X145041400Y-111224000D02*
X145041400Y-108724000D01*
X140341400Y-108724000D02*
X140341400Y-111224000D01*
X140341400Y-111224000D02*
X145041400Y-111224000D01*
X145041400Y-108724000D02*
X140341400Y-108724000D01*
%TO.C,C55*%
X282916400Y-72779000D02*
X282916400Y-75279000D01*
X287616400Y-72779000D02*
X282916400Y-72779000D01*
X282916400Y-75279000D02*
X287616400Y-75279000D01*
X287616400Y-75279000D02*
X287616400Y-72779000D01*
%TO.C,C1*%
X299296400Y-71839000D02*
X299296400Y-69339000D01*
X294596400Y-69339000D02*
X294596400Y-71839000D01*
X299296400Y-69339000D02*
X294596400Y-69339000D01*
X294596400Y-71839000D02*
X299296400Y-71839000D01*
%TO.C,D1*%
X277346400Y-63779000D02*
X275346400Y-63779000D01*
X277346400Y-63179000D02*
X275346400Y-63179000D01*
X277346400Y-67179000D02*
X277346400Y-63179000D01*
X276346400Y-68989000D02*
X276346400Y-67179000D01*
X275346400Y-67179000D02*
X277346400Y-67179000D01*
X275346400Y-63179000D02*
X275346400Y-67179000D01*
X276346400Y-61369000D02*
X276346400Y-63179000D01*
X277346400Y-63679000D02*
X275346400Y-63679000D01*
X277346400Y-63879000D02*
X275346400Y-63879000D01*
%TO.C,D2*%
X264256400Y-70889000D02*
X264256400Y-69079000D01*
X265256400Y-65079000D02*
X263256400Y-65079000D01*
X265256400Y-69079000D02*
X265256400Y-65079000D01*
X263256400Y-68579000D02*
X265256400Y-68579000D01*
X263256400Y-68379000D02*
X265256400Y-68379000D01*
X263256400Y-69079000D02*
X265256400Y-69079000D01*
X263256400Y-68479000D02*
X265256400Y-68479000D01*
X263256400Y-65079000D02*
X263256400Y-69079000D01*
X264256400Y-63269000D02*
X264256400Y-65079000D01*
%TO.C,D3*%
X270366400Y-63269000D02*
X270366400Y-65079000D01*
X271366400Y-65579000D02*
X269366400Y-65579000D01*
X271366400Y-69079000D02*
X271366400Y-65079000D01*
X271366400Y-65679000D02*
X269366400Y-65679000D01*
X271366400Y-65079000D02*
X269366400Y-65079000D01*
X269366400Y-65079000D02*
X269366400Y-69079000D01*
X271366400Y-65779000D02*
X269366400Y-65779000D01*
X270366400Y-70889000D02*
X270366400Y-69079000D01*
X269366400Y-69079000D02*
X271366400Y-69079000D01*
%TO.C,D4*%
X241926400Y-61309000D02*
X241926400Y-63119000D01*
X240926400Y-63119000D02*
X240926400Y-67119000D01*
X242926400Y-63119000D02*
X240926400Y-63119000D01*
X240926400Y-66519000D02*
X242926400Y-66519000D01*
X240926400Y-67119000D02*
X242926400Y-67119000D01*
X241926400Y-68929000D02*
X241926400Y-67119000D01*
X240926400Y-66619000D02*
X242926400Y-66619000D01*
X240926400Y-66419000D02*
X242926400Y-66419000D01*
X242926400Y-67119000D02*
X242926400Y-63119000D01*
%TO.C,D6*%
X157136400Y-121239000D02*
X154436400Y-121239000D01*
X157136400Y-120459000D02*
X154436400Y-120459000D01*
X155786400Y-117979000D02*
X155786400Y-120459000D01*
X157136400Y-125659000D02*
X157136400Y-120459000D01*
X157136400Y-121339000D02*
X154436400Y-121339000D01*
X154436400Y-120459000D02*
X154436400Y-125659000D01*
X154436400Y-125659000D02*
X157136400Y-125659000D01*
X155786400Y-128139000D02*
X155786400Y-125659000D01*
X157136400Y-121139000D02*
X154436400Y-121139000D01*
D15*
%TO.C,FB1*%
X108353800Y-96513800D02*
X111859000Y-96513800D01*
X111859000Y-87014200D02*
X108353800Y-87014200D01*
X110741400Y-83229600D02*
X109471400Y-83229600D01*
X110106400Y-84779000D02*
X110106400Y-87014200D01*
X108353800Y-87014200D02*
X108353800Y-96513800D01*
X110106400Y-98749000D02*
X110106400Y-96513800D01*
X110106400Y-82594600D02*
X110106400Y-83864600D01*
X111859000Y-96513800D02*
X111859000Y-87014200D01*
%TO.C,FB2*%
X103733800Y-96703800D02*
X107239000Y-96703800D01*
X103733800Y-87204200D02*
X103733800Y-96703800D01*
X107239000Y-87204200D02*
X103733800Y-87204200D01*
X107239000Y-96703800D02*
X107239000Y-87204200D01*
X105486400Y-82784600D02*
X105486400Y-84054600D01*
X106121400Y-83419600D02*
X104851400Y-83419600D01*
X105486400Y-98939000D02*
X105486400Y-96703800D01*
X105486400Y-84969000D02*
X105486400Y-87204200D01*
%TO.C,FB3*%
X237956400Y-199549000D02*
X240191600Y-199549000D01*
X240191600Y-201301600D02*
X249691200Y-201301600D01*
X251926400Y-199549000D02*
X249691200Y-199549000D01*
X249691200Y-197796400D02*
X240191600Y-197796400D01*
X253475800Y-200184000D02*
X253475800Y-198914000D01*
X240191600Y-197796400D02*
X240191600Y-201301600D01*
X249691200Y-201301600D02*
X249691200Y-197796400D01*
X254110800Y-199549000D02*
X252840800Y-199549000D01*
D14*
%TO.C,Q1*%
X97496400Y-146969000D02*
X97496400Y-136969000D01*
X106746400Y-141969000D02*
X110556400Y-141969000D01*
X97496400Y-146969000D02*
X91096400Y-146969000D01*
X106746400Y-136969000D02*
X106746400Y-146969000D01*
X91096400Y-146969000D02*
X91096400Y-136969000D01*
X106746400Y-144509000D02*
X110556400Y-144509000D01*
X106746400Y-146969000D02*
X97496400Y-146969000D01*
X97496400Y-136969000D02*
X106746400Y-136969000D01*
X91096400Y-136969000D02*
X97496400Y-136969000D01*
X97496400Y-136969000D02*
X97496400Y-146969000D01*
X106746400Y-139429000D02*
X110556400Y-139429000D01*
X95746400Y-141969000D02*
G75*
G03*
X95746400Y-141969000I-1850000J0D01*
G01*
%TO.C,R1*%
X131836400Y-199759000D02*
X131836400Y-197829000D01*
X133086400Y-197829000D02*
X133086400Y-191529000D01*
X133086400Y-191529000D02*
X130586400Y-191529000D01*
X130586400Y-197829000D02*
X133086400Y-197829000D01*
X130586400Y-191529000D02*
X130586400Y-197829000D01*
X131836400Y-189599000D02*
X131836400Y-191529000D01*
%TO.C,R2*%
X158896400Y-197849000D02*
X161396400Y-197849000D01*
X161396400Y-197849000D02*
X161396400Y-191549000D01*
X160146400Y-199779000D02*
X160146400Y-197849000D01*
X161396400Y-191549000D02*
X158896400Y-191549000D01*
X158896400Y-191549000D02*
X158896400Y-197849000D01*
X160146400Y-189619000D02*
X160146400Y-191549000D01*
%TO.C,R3*%
X127006400Y-191469000D02*
X127006400Y-197769000D01*
X129506400Y-197769000D02*
X129506400Y-191469000D01*
X129506400Y-191469000D02*
X127006400Y-191469000D01*
X128256400Y-189539000D02*
X128256400Y-191469000D01*
X128256400Y-199699000D02*
X128256400Y-197769000D01*
X127006400Y-197769000D02*
X129506400Y-197769000D01*
%TO.C,R4*%
X133446400Y-122479000D02*
X133446400Y-124409000D01*
X133446400Y-132639000D02*
X133446400Y-130709000D01*
X132196400Y-124409000D02*
X132196400Y-130709000D01*
X132196400Y-130709000D02*
X134696400Y-130709000D01*
X134696400Y-130709000D02*
X134696400Y-124409000D01*
X134696400Y-124409000D02*
X132196400Y-124409000D01*
%TO.C,R5*%
X214316400Y-71249000D02*
X214316400Y-69849000D01*
X212516400Y-59949000D02*
X212516400Y-69849000D01*
X216116400Y-69849000D02*
X216116400Y-59949000D01*
X214316400Y-58549000D02*
X214316400Y-59949000D01*
X212516400Y-69849000D02*
X216116400Y-69849000D01*
X216116400Y-59949000D02*
X212516400Y-59949000D01*
%TO.C,R6*%
X184626400Y-99969000D02*
X184626400Y-93669000D01*
X183376400Y-91739000D02*
X183376400Y-93669000D01*
X182126400Y-99969000D02*
X184626400Y-99969000D01*
X182126400Y-93669000D02*
X182126400Y-99969000D01*
X183376400Y-101899000D02*
X183376400Y-99969000D01*
X184626400Y-93669000D02*
X182126400Y-93669000D01*
%TO.C,R7*%
X186366400Y-92279000D02*
X188866400Y-92279000D01*
X187616400Y-94209000D02*
X187616400Y-92279000D01*
X187616400Y-84049000D02*
X187616400Y-85979000D01*
X186366400Y-85979000D02*
X186366400Y-92279000D01*
X188866400Y-85979000D02*
X186366400Y-85979000D01*
X188866400Y-92279000D02*
X188866400Y-85979000D01*
%TO.C,R8*%
X158956400Y-128049000D02*
X158956400Y-126119000D01*
X160206400Y-119819000D02*
X157706400Y-119819000D01*
X160206400Y-126119000D02*
X160206400Y-119819000D01*
X158956400Y-117889000D02*
X158956400Y-119819000D01*
X157706400Y-119819000D02*
X157706400Y-126119000D01*
X157706400Y-126119000D02*
X160206400Y-126119000D01*
%TO.C,R9*%
X187726400Y-191479000D02*
X185226400Y-191479000D01*
X185226400Y-197779000D02*
X187726400Y-197779000D01*
X186476400Y-199709000D02*
X186476400Y-197779000D01*
X185226400Y-191479000D02*
X185226400Y-197779000D01*
X187726400Y-197779000D02*
X187726400Y-191479000D01*
X186476400Y-189549000D02*
X186476400Y-191479000D01*
%TO.C,R10*%
X135256400Y-189569000D02*
X135256400Y-191499000D01*
X134006400Y-197799000D02*
X136506400Y-197799000D01*
X136506400Y-191499000D02*
X134006400Y-191499000D01*
X136506400Y-197799000D02*
X136506400Y-191499000D01*
X134006400Y-191499000D02*
X134006400Y-197799000D01*
X135256400Y-199729000D02*
X135256400Y-197799000D01*
%TO.C,R11*%
X286596400Y-192499000D02*
X286596400Y-186199000D01*
X284096400Y-186199000D02*
X284096400Y-192499000D01*
X286596400Y-186199000D02*
X284096400Y-186199000D01*
X285346400Y-194429000D02*
X285346400Y-192499000D01*
X284096400Y-192499000D02*
X286596400Y-192499000D01*
X285346400Y-184269000D02*
X285346400Y-186199000D01*
%TO.C,R12*%
X281016400Y-192499000D02*
X283516400Y-192499000D01*
X281016400Y-186199000D02*
X281016400Y-192499000D01*
X283516400Y-192499000D02*
X283516400Y-186199000D01*
X283516400Y-186199000D02*
X281016400Y-186199000D01*
X282266400Y-184269000D02*
X282266400Y-186199000D01*
X282266400Y-194429000D02*
X282266400Y-192499000D01*
%TO.C,R13*%
X266106400Y-62669000D02*
X266106400Y-68969000D01*
X267356400Y-70899000D02*
X267356400Y-68969000D01*
X266106400Y-68969000D02*
X268606400Y-68969000D01*
X267356400Y-60739000D02*
X267356400Y-62669000D01*
X268606400Y-62669000D02*
X266106400Y-62669000D01*
X268606400Y-68969000D02*
X268606400Y-62669000D01*
%TO.C,R14*%
X274586400Y-62669000D02*
X272086400Y-62669000D01*
X272086400Y-62669000D02*
X272086400Y-68969000D01*
X273336400Y-60739000D02*
X273336400Y-62669000D01*
X272086400Y-68969000D02*
X274586400Y-68969000D01*
X274586400Y-68969000D02*
X274586400Y-62669000D01*
X273336400Y-70899000D02*
X273336400Y-68969000D01*
%TO.C,R15*%
X207056400Y-143819000D02*
X207056400Y-141889000D01*
X208306400Y-135589000D02*
X205806400Y-135589000D01*
X205806400Y-141889000D02*
X208306400Y-141889000D01*
X207056400Y-133659000D02*
X207056400Y-135589000D01*
X205806400Y-135589000D02*
X205806400Y-141889000D01*
X208306400Y-141889000D02*
X208306400Y-135589000D01*
%TO.C,R16*%
X210116400Y-133659000D02*
X210116400Y-135589000D01*
X208866400Y-141889000D02*
X211366400Y-141889000D01*
X211366400Y-135589000D02*
X208866400Y-135589000D01*
X211366400Y-141889000D02*
X211366400Y-135589000D01*
X208866400Y-135589000D02*
X208866400Y-141889000D01*
X210116400Y-143819000D02*
X210116400Y-141889000D01*
%TO.C,R17*%
X204016400Y-143819000D02*
X204016400Y-141889000D01*
X202766400Y-141889000D02*
X205266400Y-141889000D01*
X204016400Y-133659000D02*
X204016400Y-135589000D01*
X205266400Y-141889000D02*
X205266400Y-135589000D01*
X202766400Y-135589000D02*
X202766400Y-141889000D01*
X205266400Y-135589000D02*
X202766400Y-135589000D01*
%TO.C,R18*%
X216116400Y-135589000D02*
X216116400Y-141889000D01*
X217366400Y-143819000D02*
X217366400Y-141889000D01*
X217366400Y-133659000D02*
X217366400Y-135589000D01*
X218616400Y-135589000D02*
X216116400Y-135589000D01*
X218616400Y-141889000D02*
X218616400Y-135589000D01*
X216116400Y-141889000D02*
X218616400Y-141889000D01*
%TO.C,R19*%
X291146398Y-60739000D02*
X291146398Y-62669000D01*
X289896398Y-68969000D02*
X292396398Y-68969000D01*
X292396398Y-62669000D02*
X289896398Y-62669000D01*
X289896398Y-62669000D02*
X289896398Y-68969000D01*
X292396398Y-68969000D02*
X292396398Y-62669000D01*
X291146398Y-70899000D02*
X291146398Y-68969000D01*
%TO.C,R20*%
X221656400Y-135589000D02*
X219156400Y-135589000D01*
X221656400Y-141889000D02*
X221656400Y-135589000D01*
X220406400Y-133659000D02*
X220406400Y-135589000D01*
X220406400Y-143819000D02*
X220406400Y-141889000D01*
X219156400Y-141889000D02*
X221656400Y-141889000D01*
X219156400Y-135589000D02*
X219156400Y-141889000D01*
%TO.C,R21*%
X287176400Y-192499000D02*
X289676400Y-192499000D01*
X289676400Y-192499000D02*
X289676400Y-186199000D01*
X288426400Y-194429000D02*
X288426400Y-192499000D01*
X287176400Y-186199000D02*
X287176400Y-192499000D01*
X289676400Y-186199000D02*
X287176400Y-186199000D01*
X288426400Y-184269000D02*
X288426400Y-186199000D01*
%TO.C,R22*%
X128796400Y-124409000D02*
X128796400Y-130709000D01*
X128796400Y-130709000D02*
X131296400Y-130709000D01*
X130046400Y-122479000D02*
X130046400Y-124409000D01*
X130046400Y-132639000D02*
X130046400Y-130709000D01*
X131296400Y-124409000D02*
X128796400Y-124409000D01*
X131296400Y-130709000D02*
X131296400Y-124409000D01*
%TO.C,R23*%
X234196400Y-69899000D02*
X237796400Y-69899000D01*
X235996400Y-71299000D02*
X235996400Y-69899000D01*
X237796400Y-59999000D02*
X234196400Y-59999000D01*
X234196400Y-59999000D02*
X234196400Y-69899000D01*
X237796400Y-69899000D02*
X237796400Y-59999000D01*
X235996400Y-58599000D02*
X235996400Y-59999000D01*
%TO.C,R24*%
X105606400Y-163859000D02*
X105606400Y-165789000D01*
X105606400Y-174019000D02*
X105606400Y-172089000D01*
X106856400Y-172089000D02*
X106856400Y-165789000D01*
X104356400Y-172089000D02*
X106856400Y-172089000D01*
X106856400Y-165789000D02*
X104356400Y-165789000D01*
X104356400Y-165789000D02*
X104356400Y-172089000D01*
%TO.C,R25*%
X99156400Y-165599000D02*
X99156400Y-174599000D01*
X102356400Y-174599000D02*
X102356400Y-165599000D01*
X100756400Y-163749000D02*
X100756400Y-165599000D01*
X102356400Y-165599000D02*
X99156400Y-165599000D01*
X100756400Y-176449000D02*
X100756400Y-174599000D01*
X99156400Y-174599000D02*
X102356400Y-174599000D01*
%TO.C,R26*%
X227516400Y-69399000D02*
X230016400Y-69399000D01*
X230016400Y-63099000D02*
X227516400Y-63099000D01*
X228766400Y-71329000D02*
X228766400Y-69399000D01*
X228766400Y-61169000D02*
X228766400Y-63099000D01*
X227516400Y-63099000D02*
X227516400Y-69399000D01*
X230016400Y-69399000D02*
X230016400Y-63099000D01*
%TO.C,R27*%
X226376400Y-63099000D02*
X223876400Y-63099000D01*
X226376400Y-69399000D02*
X226376400Y-63099000D01*
X225126400Y-71329000D02*
X225126400Y-69399000D01*
X225126400Y-61169000D02*
X225126400Y-63099000D01*
X223876400Y-63099000D02*
X223876400Y-69399000D01*
X223876400Y-69399000D02*
X226376400Y-69399000D01*
%TO.C,R29*%
X281096400Y-62679000D02*
X281096400Y-68979000D01*
X282346400Y-70909000D02*
X282346400Y-68979000D01*
X281096400Y-68979000D02*
X283596400Y-68979000D01*
X282346400Y-60749000D02*
X282346400Y-62679000D01*
X283596400Y-62679000D02*
X281096400Y-62679000D01*
X283596400Y-68979000D02*
X283596400Y-62679000D01*
%TO.C,R31*%
X277296400Y-141839000D02*
X277296400Y-135539000D01*
X274796400Y-135539000D02*
X274796400Y-141839000D01*
X276046400Y-133609000D02*
X276046400Y-135539000D01*
X276046400Y-143769000D02*
X276046400Y-141839000D01*
X277296400Y-135539000D02*
X274796400Y-135539000D01*
X274796400Y-141839000D02*
X277296400Y-141839000D01*
%TO.C,TC1*%
X290356400Y-188539000D02*
X290356400Y-195739000D01*
X297556400Y-188539000D02*
X290356400Y-188539000D01*
X297556400Y-195739000D02*
X297556400Y-188539000D01*
X290356400Y-195739000D02*
X297556400Y-195739000D01*
D16*
%TO.C,JK3*%
X242666732Y-40699000D02*
X242666732Y-56099000D01*
X222666732Y-56099000D02*
X222666732Y-40699000D01*
X222666732Y-40699000D02*
X242666732Y-40699000D01*
X242666732Y-56099000D02*
X222666732Y-56099000D01*
D17*
X227722732Y-56983000D02*
G75*
G03*
X227722732Y-56983000I-100000J0D01*
G01*
D14*
%TO.C,X1*%
X293556400Y-172179000D02*
X293556400Y-185179000D01*
X304806400Y-185279000D02*
X293206400Y-185279000D01*
X301456400Y-186179000D02*
X301456400Y-187179000D01*
X304806400Y-185179000D02*
X304806400Y-185279000D01*
X296556400Y-185179000D02*
X296556400Y-186179000D01*
X304456400Y-172179000D02*
X293556400Y-172179000D01*
X293206400Y-185179000D02*
X304806400Y-185179000D01*
X301456400Y-185179000D02*
X301456400Y-186179000D01*
X296556400Y-186179000D02*
X296556400Y-187179000D01*
X293556400Y-185179000D02*
X304456400Y-185179000D01*
X304456400Y-185179000D02*
X304456400Y-172179000D01*
X293206400Y-185279000D02*
X293206400Y-185179000D01*
%TO.C,IC7*%
X109166400Y-160149000D02*
X109166400Y-180589000D01*
X119326400Y-180589000D02*
X119326400Y-160149000D01*
X119326400Y-160149000D02*
X109166400Y-160149000D01*
X109166400Y-180589000D02*
X119326400Y-180589000D01*
X117421400Y-160209000D02*
X117421400Y-180529000D01*
X111071400Y-161209000D02*
X112071400Y-160209000D01*
X112071400Y-160209000D02*
X117421400Y-160209000D01*
X111071400Y-180529000D02*
X111071400Y-161209000D01*
X117421400Y-180529000D02*
X111071400Y-180529000D01*
%TO.C,IC12*%
X267746400Y-102369000D02*
X267746400Y-122809000D01*
X276001400Y-102429000D02*
X276001400Y-122749000D01*
X277906400Y-122809000D02*
X277906400Y-102369000D01*
X267746400Y-122809000D02*
X277906400Y-122809000D01*
X269651400Y-103429000D02*
X270651400Y-102429000D01*
X276001400Y-122749000D02*
X269651400Y-122749000D01*
X277906400Y-102369000D02*
X267746400Y-102369000D01*
X269651400Y-122749000D02*
X269651400Y-103429000D01*
X270651400Y-102429000D02*
X276001400Y-102429000D01*
%TO.C,IC6*%
X136286400Y-138349000D02*
X146446400Y-138349000D01*
X146446400Y-138349000D02*
X146446400Y-112829000D01*
X144541400Y-112889000D02*
X144541400Y-138289000D01*
X138191400Y-113889000D02*
X139191400Y-112889000D01*
X144541400Y-138289000D02*
X138191400Y-138289000D01*
X138191400Y-138289000D02*
X138191400Y-113889000D01*
X139191400Y-112889000D02*
X144541400Y-112889000D01*
X136286400Y-112829000D02*
X136286400Y-138349000D01*
X146446400Y-112829000D02*
X136286400Y-112829000D01*
%TO.C,IC8*%
X247041400Y-190399000D02*
X246041400Y-191399000D01*
X230786400Y-191459000D02*
X248566400Y-191459000D01*
X247041400Y-155839000D02*
X247041400Y-190399000D01*
X232311400Y-155839000D02*
X247041400Y-155839000D01*
X248566400Y-155779000D02*
X230786400Y-155779000D01*
X230786400Y-155779000D02*
X230786400Y-191459000D01*
X246041400Y-191399000D02*
X232311400Y-191399000D01*
X232311400Y-191399000D02*
X232311400Y-155839000D01*
X248566400Y-191459000D02*
X248566400Y-155779000D01*
%TO.C,IC11*%
X258126400Y-99741500D02*
X247966400Y-99741500D01*
X247966400Y-99741500D02*
X247966400Y-122721500D01*
X258126400Y-122721500D02*
X258126400Y-99741500D01*
X247966400Y-122721500D02*
X258126400Y-122721500D01*
X249871400Y-122661500D02*
X249871400Y-100801500D01*
X256221400Y-122661500D02*
X249871400Y-122661500D01*
X256221400Y-99801500D02*
X256221400Y-122661500D01*
X249871400Y-100801500D02*
X250871400Y-99801500D01*
X250871400Y-99801500D02*
X256221400Y-99801500D01*
%TO.C,D9*%
X106196400Y-115349000D02*
X103496400Y-115349000D01*
X106196400Y-115149000D02*
X103496400Y-115149000D01*
X104846400Y-111989000D02*
X104846400Y-114469000D01*
X103496400Y-119669000D02*
X106196400Y-119669000D01*
X104846400Y-122149000D02*
X104846400Y-119669000D01*
X106196400Y-115249000D02*
X103496400Y-115249000D01*
X106196400Y-114469000D02*
X103496400Y-114469000D01*
X103496400Y-114469000D02*
X103496400Y-119669000D01*
X106196400Y-119669000D02*
X106196400Y-114469000D01*
%TO.C,CN2*%
X152556400Y-139664000D02*
X152556400Y-137759000D01*
X152556400Y-137759000D02*
X193196400Y-137759000D01*
X193196400Y-137759000D02*
X193196400Y-140299000D01*
X193196400Y-140299000D02*
X153191400Y-140299000D01*
X153191400Y-140299000D02*
X152556400Y-139664000D01*
%TO.C,IC2*%
X278921400Y-147509000D02*
X278921400Y-197309000D01*
X280446400Y-198369000D02*
X280446400Y-147449000D01*
X280446400Y-147449000D02*
X262666400Y-147449000D01*
X262666400Y-147449000D02*
X262666400Y-198369000D01*
X262666400Y-198369000D02*
X280446400Y-198369000D01*
X277921400Y-198309000D02*
X264191400Y-198309000D01*
X264191400Y-198309000D02*
X264191400Y-147509000D01*
X264191400Y-147509000D02*
X278921400Y-147509000D01*
X278921400Y-197309000D02*
X277921400Y-198309000D01*
%TO.C,CN3*%
X223516400Y-96161500D02*
X225871400Y-96161500D01*
X223516400Y-95181500D02*
X223516400Y-96161500D01*
X225871400Y-96161500D02*
X225876400Y-124581500D01*
X226356400Y-95181500D02*
X230816400Y-95181500D01*
X223416400Y-124581500D02*
X225876400Y-124581500D01*
X223416400Y-125481500D02*
X223416400Y-124581500D01*
X226356400Y-95181500D02*
X223516400Y-95181500D01*
X230816400Y-125481500D02*
X223416400Y-125481500D01*
X230816400Y-95181500D02*
X230816400Y-125481500D01*
%TO.C,IC1*%
X201216400Y-198579000D02*
X218996400Y-198579000D01*
X201216400Y-147659000D02*
X201216400Y-198579000D01*
X202741400Y-198519000D02*
X202741400Y-148719000D01*
X217471400Y-198519000D02*
X202741400Y-198519000D01*
X202741400Y-148719000D02*
X203741400Y-147719000D01*
X217471400Y-147719000D02*
X217471400Y-198519000D01*
X203741400Y-147719000D02*
X217471400Y-147719000D01*
X218996400Y-147659000D02*
X201216400Y-147659000D01*
X218996400Y-198579000D02*
X218996400Y-147659000D01*
%TO.C,D11*%
X106886400Y-117914000D02*
X112086400Y-117914000D01*
X109486400Y-106869000D02*
X109486400Y-109739000D01*
X112086400Y-109739000D02*
X106886400Y-109739000D01*
X112086400Y-119239000D02*
X112086400Y-109739000D01*
X106886400Y-109739000D02*
X106886400Y-119239000D01*
X106886400Y-119239000D02*
X112086400Y-119239000D01*
X106886400Y-117814000D02*
X112086400Y-117814000D01*
X109486400Y-122109000D02*
X109486400Y-119239000D01*
X106886400Y-117714000D02*
X112086400Y-117714000D01*
%TO.C,IC4*%
X154961400Y-147599000D02*
X154961400Y-198399000D01*
X138706400Y-147539000D02*
X138706400Y-198459000D01*
X140231400Y-198399000D02*
X140231400Y-148599000D01*
X156486400Y-198459000D02*
X156486400Y-147539000D01*
X154961400Y-198399000D02*
X140231400Y-198399000D01*
X140231400Y-148599000D02*
X141231400Y-147599000D01*
X138706400Y-198459000D02*
X156486400Y-198459000D01*
X141231400Y-147599000D02*
X154961400Y-147599000D01*
X156486400Y-147539000D02*
X138706400Y-147539000D01*
%TO.C,IC5*%
X166216400Y-147729000D02*
X166216400Y-198649000D01*
X183996400Y-198649000D02*
X183996400Y-147729000D01*
X182471400Y-198589000D02*
X167741400Y-198589000D01*
X183996400Y-147729000D02*
X166216400Y-147729000D01*
X167741400Y-198589000D02*
X167741400Y-148789000D01*
X167741400Y-148789000D02*
X168741400Y-147789000D01*
X168741400Y-147789000D02*
X182471400Y-147789000D01*
X182471400Y-147789000D02*
X182471400Y-198589000D01*
X166216400Y-198649000D02*
X183996400Y-198649000D01*
%TO.C,D10*%
X117896400Y-119179000D02*
X117896400Y-109679000D01*
X115296400Y-122049000D02*
X115296400Y-119179000D01*
X112696400Y-117754000D02*
X117896400Y-117754000D01*
X115296400Y-106809000D02*
X115296400Y-109679000D01*
X117896400Y-109679000D02*
X112696400Y-109679000D01*
X112696400Y-109679000D02*
X112696400Y-119179000D01*
X112696400Y-117654000D02*
X117896400Y-117654000D01*
X112696400Y-117854000D02*
X117896400Y-117854000D01*
X112696400Y-119179000D02*
X117896400Y-119179000D01*
D16*
%TO.C,JK4*%
X264796400Y-56499000D02*
X244796400Y-56499000D01*
X264796400Y-40699000D02*
X264796400Y-56499000D01*
X244796400Y-40699000D02*
X264796400Y-40699000D01*
X244796400Y-56499000D02*
X244796400Y-40699000D01*
D17*
X244132400Y-53293000D02*
G75*
G03*
X244132400Y-53293000I-100000J0D01*
G01*
D14*
%TO.C,D8*%
X101956400Y-114449000D02*
X99256400Y-114449000D01*
X99256400Y-119649000D02*
X101956400Y-119649000D01*
X101956400Y-115229000D02*
X99256400Y-115229000D01*
X101956400Y-115329000D02*
X99256400Y-115329000D01*
X100606400Y-122129000D02*
X100606400Y-119649000D01*
X100606400Y-111969000D02*
X100606400Y-114449000D01*
X101956400Y-119649000D02*
X101956400Y-114449000D01*
X101956400Y-115129000D02*
X99256400Y-115129000D01*
X99256400Y-114449000D02*
X99256400Y-119649000D01*
D16*
%TO.C,JK2*%
X198596400Y-40699000D02*
X198596400Y-56199000D01*
X198596400Y-56199000D02*
X178596400Y-56199000D01*
X178596400Y-56199000D02*
X178596400Y-40699000D01*
X178596400Y-40699000D02*
X198596400Y-40699000D01*
D17*
X177932400Y-53293000D02*
G75*
G03*
X177932400Y-53293000I-100000J0D01*
G01*
D16*
%TO.C,JK1*%
X220726066Y-56199000D02*
X200726066Y-56199000D01*
X200726066Y-56199000D02*
X200726066Y-40699000D01*
X220726066Y-40699000D02*
X220726066Y-56199000D01*
X200726066Y-40699000D02*
X220726066Y-40699000D01*
D17*
X200062066Y-53293000D02*
G75*
G03*
X200062066Y-53293000I-100000J0D01*
G01*
D14*
%TO.C,IC10*%
X232166400Y-99791500D02*
X232166400Y-122771500D01*
X240421400Y-99851500D02*
X240421400Y-122711500D01*
X232166400Y-122771500D02*
X242326400Y-122771500D01*
X235071400Y-99851500D02*
X240421400Y-99851500D01*
X242326400Y-122771500D02*
X242326400Y-99791500D01*
X240421400Y-122711500D02*
X234071400Y-122711500D01*
X242326400Y-99791500D02*
X232166400Y-99791500D01*
X234071400Y-122711500D02*
X234071400Y-100851500D01*
X234071400Y-100851500D02*
X235071400Y-99851500D01*
%TO.C,C36*%
X121791232Y-102181500D02*
X121791232Y-103781500D01*
X120991232Y-102981500D02*
X122591232Y-102981500D01*
X135866400Y-106489000D02*
G75*
G03*
X135866400Y-106489000I-8000000J0D01*
G01*
D16*
%TO.C,RY1*%
X262516400Y-61164000D02*
X262516400Y-71114000D01*
X244496400Y-61164000D02*
X262516400Y-61164000D01*
X262516400Y-71114000D02*
X244496400Y-71114000D01*
X244496400Y-71114000D02*
X244496400Y-61164000D01*
D17*
X244006400Y-69949000D02*
G75*
G03*
X244006400Y-69949000I-100000J0D01*
G01*
D14*
%TO.C,CN4*%
X265816400Y-125481500D02*
X258416400Y-125481500D01*
X261356400Y-95181500D02*
X258516400Y-95181500D01*
X260871400Y-96161500D02*
X260876400Y-124581500D01*
X258516400Y-96161500D02*
X260871400Y-96161500D01*
X258416400Y-125481500D02*
X258416400Y-124581500D01*
X258516400Y-95181500D02*
X258516400Y-96161500D01*
X258416400Y-124581500D02*
X260876400Y-124581500D01*
X261356400Y-95181500D02*
X265816400Y-95181500D01*
X265816400Y-95181500D02*
X265816400Y-125481500D01*
%TO.C,C42*%
X104236400Y-73269000D02*
X104236400Y-75769000D01*
X112236400Y-75769000D02*
X112236400Y-73269000D01*
X104236400Y-75769000D02*
X112236400Y-75769000D01*
X112236400Y-73269000D02*
X104236400Y-73269000D01*
%TO.C,R28*%
X124746400Y-139239000D02*
X126346400Y-139239000D01*
X126346400Y-139239000D02*
X126346400Y-135639000D01*
X125546400Y-133629000D02*
X125546400Y-135639000D01*
X126346400Y-135639000D02*
X124746400Y-135639000D01*
X125546400Y-141249000D02*
X125546400Y-139239000D01*
X124746400Y-135639000D02*
X124746400Y-139239000D01*
%TO.C,D5*%
X153646400Y-121279000D02*
X150946400Y-121279000D01*
X153646400Y-121379000D02*
X150946400Y-121379000D01*
X153646400Y-121179000D02*
X150946400Y-121179000D01*
X152296400Y-128179000D02*
X152296400Y-125699000D01*
X152296400Y-118019000D02*
X152296400Y-120499000D01*
X153646400Y-120499000D02*
X150946400Y-120499000D01*
X150946400Y-125699000D02*
X153646400Y-125699000D01*
X153646400Y-125699000D02*
X153646400Y-120499000D01*
X150946400Y-120499000D02*
X150946400Y-125699000D01*
D15*
%TO.C,CN1*%
X313369400Y-77320000D02*
X313369400Y-84686000D01*
X307146400Y-124729100D02*
X318093800Y-124729100D01*
X318093800Y-74868900D02*
X307146400Y-74868900D01*
X307146400Y-122278000D02*
X313369400Y-122278000D01*
X307146400Y-77320000D02*
X313369400Y-77320000D01*
X307146400Y-114912000D02*
X307146400Y-122278000D01*
X313369400Y-122278000D02*
X313369400Y-114912000D01*
X307146400Y-74868900D02*
X307146400Y-124729100D01*
X307146400Y-84686000D02*
X307146400Y-77320000D01*
X318093800Y-124729100D02*
X318093800Y-74868900D01*
X308162400Y-75669000D02*
G75*
G03*
X308162400Y-75669000I-381000J0D01*
G01*
D14*
%TO.C,R30*%
X277856400Y-141839000D02*
X280356400Y-141839000D01*
X277856400Y-135539000D02*
X277856400Y-141839000D01*
X279106400Y-133609000D02*
X279106400Y-135539000D01*
X280356400Y-135539000D02*
X277856400Y-135539000D01*
X280356400Y-141839000D02*
X280356400Y-135539000D01*
X279106400Y-143769000D02*
X279106400Y-141839000D01*
D15*
%TO.C,FB5*%
X214311400Y-127539600D02*
X213041400Y-127539600D01*
X215429000Y-131324200D02*
X211923800Y-131324200D01*
X215429000Y-140823800D02*
X215429000Y-131324200D01*
X211923800Y-131324200D02*
X211923800Y-140823800D01*
X211923800Y-140823800D02*
X215429000Y-140823800D01*
X213676400Y-129089000D02*
X213676400Y-131324200D01*
X213676400Y-143059000D02*
X213676400Y-140823800D01*
X213676400Y-126904600D02*
X213676400Y-128174600D01*
D14*
%TO.C,C13*%
X298496400Y-189769000D02*
X298496400Y-194769000D01*
X305996400Y-194769000D02*
X305996400Y-189769000D01*
X305996400Y-189769000D02*
X298496400Y-189769000D01*
X298496400Y-194769000D02*
X305996400Y-194769000D01*
D15*
%TO.C,FB4*%
X274229000Y-132124200D02*
X270723800Y-132124200D01*
X270723800Y-132124200D02*
X270723800Y-141623800D01*
X272476400Y-143859000D02*
X272476400Y-141623800D01*
X270723800Y-141623800D02*
X274229000Y-141623800D01*
X272476400Y-146043400D02*
X272476400Y-144773400D01*
X272476400Y-129889000D02*
X272476400Y-132124200D01*
X271841400Y-145408400D02*
X273111400Y-145408400D01*
X274229000Y-141623800D02*
X274229000Y-132124200D01*
D14*
%TO.C,C12*%
X252736400Y-196719000D02*
X252736400Y-192019000D01*
X250236400Y-192019000D02*
X250236400Y-196719000D01*
X250236400Y-196719000D02*
X252736400Y-196719000D01*
X252736400Y-192019000D02*
X250236400Y-192019000D01*
%TO.C,A1*%
X99063900Y-80756500D02*
X99063900Y-77581500D01*
X95888900Y-80756500D02*
X99063900Y-80756500D01*
X99063900Y-77581500D02*
X95888900Y-77581500D01*
X95888900Y-77581500D02*
X95888900Y-80756500D01*
X97857400Y-77264000D02*
G75*
G03*
X97857400Y-77264000I-381000J0D01*
G01*
%TO.C,A2*%
X98993900Y-84941500D02*
X95818900Y-84941500D01*
X95818900Y-88116500D02*
X98993900Y-88116500D01*
X98993900Y-88116500D02*
X98993900Y-84941500D01*
X95818900Y-84941500D02*
X95818900Y-88116500D01*
X97787400Y-84624000D02*
G75*
G03*
X97787400Y-84624000I-381000J0D01*
G01*
%TO.C,A3*%
X99063900Y-98186500D02*
X99063900Y-95011500D01*
X99063900Y-95011500D02*
X95888900Y-95011500D01*
X95888900Y-95011500D02*
X95888900Y-98186500D01*
X95888900Y-98186500D02*
X99063900Y-98186500D01*
X97857400Y-94694000D02*
G75*
G03*
X97857400Y-94694000I-381000J0D01*
G01*
%TO.C,IC14*%
X199151400Y-102629000D02*
X204501400Y-102629000D01*
X198151400Y-122949000D02*
X198151400Y-103629000D01*
X206406400Y-102569000D02*
X196246400Y-102569000D01*
X196246400Y-102569000D02*
X196246400Y-123009000D01*
X204501400Y-102629000D02*
X204501400Y-122949000D01*
X198151400Y-103629000D02*
X199151400Y-102629000D01*
X204501400Y-122949000D02*
X198151400Y-122949000D01*
X196246400Y-123009000D02*
X206406400Y-123009000D01*
X206406400Y-123009000D02*
X206406400Y-102569000D01*
%TO.C,C50*%
X247156400Y-96509000D02*
X247156400Y-99009000D01*
X251856400Y-99009000D02*
X251856400Y-96509000D01*
X247156400Y-99009000D02*
X251856400Y-99009000D01*
X251856400Y-96509000D02*
X247156400Y-96509000D01*
%TO.C,D7*%
X278326400Y-65869000D02*
X280326400Y-65869000D01*
X279326400Y-60759000D02*
X279326400Y-62569000D01*
X278326400Y-65969000D02*
X280326400Y-65969000D01*
X278326400Y-66069000D02*
X280326400Y-66069000D01*
X278326400Y-66569000D02*
X280326400Y-66569000D01*
X279326400Y-68379000D02*
X279326400Y-66569000D01*
X278326400Y-62569000D02*
X278326400Y-66569000D01*
X280326400Y-62569000D02*
X278326400Y-62569000D01*
X280326400Y-66569000D02*
X280326400Y-62569000D01*
%TO.C,C45*%
X217156400Y-124079000D02*
X212456400Y-124079000D01*
X212456400Y-124079000D02*
X212456400Y-126579000D01*
X217156400Y-126579000D02*
X217156400Y-124079000D01*
X212456400Y-126579000D02*
X217156400Y-126579000D01*
%TO.C,C53*%
X197666400Y-126579000D02*
X202366400Y-126579000D01*
X202366400Y-124079000D02*
X197666400Y-124079000D01*
X202366400Y-126579000D02*
X202366400Y-124079000D01*
X197666400Y-124079000D02*
X197666400Y-126579000D01*
%TO.C,IC22*%
X280246400Y-95169000D02*
X290406400Y-95169000D01*
X282151400Y-95109000D02*
X282151400Y-78329000D01*
X280246400Y-77269000D02*
X280246400Y-95169000D01*
X283151400Y-77329000D02*
X288501400Y-77329000D01*
X282151400Y-78329000D02*
X283151400Y-77329000D01*
X290406400Y-77269000D02*
X280246400Y-77269000D01*
X288501400Y-77329000D02*
X288501400Y-95109000D01*
X288501400Y-95109000D02*
X282151400Y-95109000D01*
X290406400Y-95169000D02*
X290406400Y-77269000D01*
%TO.C,IC16*%
X210526400Y-75229000D02*
X211526400Y-74229000D01*
X208621400Y-74169000D02*
X208621400Y-94609000D01*
X208621400Y-94609000D02*
X218781400Y-94609000D01*
X216876400Y-94549000D02*
X210526400Y-94549000D01*
X216876400Y-74229000D02*
X216876400Y-94549000D01*
X218781400Y-74169000D02*
X208621400Y-74169000D01*
X211526400Y-74229000D02*
X216876400Y-74229000D01*
X218781400Y-94609000D02*
X218781400Y-74169000D01*
X210526400Y-94549000D02*
X210526400Y-75229000D01*
%TO.C,IC20*%
X247651400Y-75229000D02*
X248651400Y-74229000D01*
X247651400Y-94549000D02*
X247651400Y-75229000D01*
X245746400Y-94609000D02*
X255906400Y-94609000D01*
X245746400Y-74169000D02*
X245746400Y-94609000D01*
X255906400Y-74169000D02*
X245746400Y-74169000D01*
X255906400Y-94609000D02*
X255906400Y-74169000D01*
X248651400Y-74229000D02*
X254001400Y-74229000D01*
X254001400Y-74229000D02*
X254001400Y-94549000D01*
X254001400Y-94549000D02*
X247651400Y-94549000D01*
%TO.C,C54*%
X293556990Y-58931500D02*
X294356990Y-58931500D01*
X293956990Y-58531500D02*
X293956990Y-59331500D01*
X300983749Y-60679000D02*
G75*
G03*
X300983749Y-60679000I-4000000J0D01*
G01*
%TO.C,IC19*%
X231156400Y-74169000D02*
X220996400Y-74169000D01*
X231156400Y-94609000D02*
X231156400Y-74169000D01*
X220996400Y-74169000D02*
X220996400Y-94609000D01*
X229251400Y-94549000D02*
X222901400Y-94549000D01*
X220996400Y-94609000D02*
X231156400Y-94609000D01*
X222901400Y-75229000D02*
X223901400Y-74229000D01*
X222901400Y-94549000D02*
X222901400Y-75229000D01*
X229251400Y-74229000D02*
X229251400Y-94549000D01*
X223901400Y-74229000D02*
X229251400Y-74229000D01*
%TO.C,IC17*%
X196246400Y-74169000D02*
X196246400Y-94609000D01*
X206406400Y-74169000D02*
X196246400Y-74169000D01*
X198151400Y-75229000D02*
X199151400Y-74229000D01*
X198151400Y-94549000D02*
X198151400Y-75229000D01*
X206406400Y-94609000D02*
X206406400Y-74169000D01*
X204501400Y-74229000D02*
X204501400Y-94549000D01*
X199151400Y-74229000D02*
X204501400Y-74229000D01*
X204501400Y-94549000D02*
X198151400Y-94549000D01*
X196246400Y-94609000D02*
X206406400Y-94609000D01*
%TO.C,C48*%
X234796400Y-99009000D02*
X239496400Y-99009000D01*
X234796400Y-96509000D02*
X234796400Y-99009000D01*
X239496400Y-99009000D02*
X239496400Y-96509000D01*
X239496400Y-96509000D02*
X234796400Y-96509000D01*
%TO.C,D12*%
X287286400Y-63739000D02*
X289286400Y-63739000D01*
X287286400Y-63639000D02*
X289286400Y-63639000D01*
X289286400Y-60239000D02*
X287286400Y-60239000D01*
X288286400Y-58429000D02*
X288286400Y-60239000D01*
X287286400Y-63539000D02*
X289286400Y-63539000D01*
X288286400Y-66049000D02*
X288286400Y-64239000D01*
X287286400Y-60239000D02*
X287286400Y-64239000D01*
X289286400Y-64239000D02*
X289286400Y-60239000D01*
X287286400Y-64239000D02*
X289286400Y-64239000D01*
%TO.C,C46*%
X209986400Y-96509000D02*
X209986400Y-99009000D01*
X214686400Y-96509000D02*
X209986400Y-96509000D01*
X209986400Y-99009000D02*
X214686400Y-99009000D01*
X214686400Y-99009000D02*
X214686400Y-96509000D01*
%TO.C,J7*%
X271091400Y-97599000D02*
X271726400Y-98234000D01*
X266646400Y-97599000D02*
X271091400Y-97599000D01*
X271726400Y-98234000D02*
X271726400Y-100139000D01*
X266646400Y-100139000D02*
X266646400Y-97599000D01*
X271726400Y-100139000D02*
X266646400Y-100139000D01*
%TO.C,J8*%
X183581400Y-66279000D02*
X185486400Y-66279000D01*
X185486400Y-89139000D02*
X182946400Y-89139000D01*
X182946400Y-66914000D02*
X183581400Y-66279000D01*
X185486400Y-66279000D02*
X185486400Y-89139000D01*
X182946400Y-89139000D02*
X182946400Y-66914000D01*
%TO.C,C51*%
X264016400Y-93729000D02*
X266516400Y-93729000D01*
X266516400Y-93729000D02*
X266516400Y-89029000D01*
X264016400Y-89029000D02*
X264016400Y-93729000D01*
X266516400Y-89029000D02*
X264016400Y-89029000D01*
%TO.C,IC21*%
X269851400Y-75829000D02*
X270851400Y-74829000D01*
X269851400Y-95149000D02*
X269851400Y-75829000D01*
X267946400Y-95209000D02*
X278106400Y-95209000D01*
X278106400Y-95209000D02*
X278106400Y-74769000D01*
X276201400Y-95149000D02*
X269851400Y-95149000D01*
X267946400Y-74769000D02*
X267946400Y-95209000D01*
X270851400Y-74829000D02*
X276201400Y-74829000D01*
X278106400Y-74769000D02*
X267946400Y-74769000D01*
X276201400Y-74829000D02*
X276201400Y-95149000D01*
%TO.C,SW2*%
X174860300Y-39912500D02*
X158172500Y-39912500D01*
X167214900Y-45607500D02*
X167214900Y-47405500D01*
X169817900Y-41710500D02*
X169817900Y-39912500D01*
X165817900Y-41710500D02*
X165817900Y-39912500D01*
X161817901Y-39912500D02*
X163214901Y-39912500D01*
X167214900Y-39912500D02*
X167214900Y-41710500D01*
X165817900Y-47405500D02*
X165817900Y-45607500D01*
X171214900Y-41710500D02*
X169817900Y-41710500D01*
X171214900Y-47405500D02*
X169817900Y-47405500D01*
X169817900Y-45607500D02*
X171214900Y-45607500D01*
X158172500Y-39912500D02*
X158172500Y-47405500D01*
X163214901Y-41710500D02*
X161817901Y-41710500D01*
X161817901Y-47405500D02*
X161817901Y-45607500D01*
X163214901Y-39912500D02*
X163214901Y-41710500D01*
X169018300Y-39912500D02*
X169018300Y-32800500D01*
X164014500Y-32800500D02*
X169018300Y-32800500D01*
X158172500Y-47405500D02*
X174860300Y-47405500D01*
X167214900Y-41710500D02*
X165817900Y-41710500D01*
X169817900Y-47405500D02*
X169817900Y-45607500D01*
X163214901Y-47405500D02*
X161817901Y-47405500D01*
X164014500Y-39912500D02*
X164014500Y-32800500D01*
X165817900Y-39912500D02*
X167214900Y-39912500D01*
X171214900Y-45607500D02*
X171214900Y-47405500D01*
X167214900Y-47405500D02*
X165817900Y-47405500D01*
X174860300Y-47405500D02*
X174860300Y-39912500D01*
X171214900Y-39912500D02*
X171214900Y-41710500D01*
X163214901Y-45607500D02*
X163214901Y-47405500D01*
X161817901Y-45607500D02*
X163214901Y-45607500D01*
X169817900Y-39912500D02*
X171214900Y-39912500D01*
X161817901Y-41710500D02*
X161817901Y-39912500D01*
X165817900Y-45607500D02*
X167214900Y-45607500D01*
X174860300Y-43354200D02*
G75*
G03*
X174860300Y-43963800I0J-304800D01*
G01*
%TO.C,R32*%
X224706400Y-135589000D02*
X222206400Y-135589000D01*
X222206400Y-135589000D02*
X222206400Y-141889000D01*
X222206400Y-141889000D02*
X224706400Y-141889000D01*
X223456400Y-143819000D02*
X223456400Y-141889000D01*
X223456400Y-133659000D02*
X223456400Y-135589000D01*
X224706400Y-141889000D02*
X224706400Y-135589000D01*
%TO.C,IC18*%
X243531400Y-74169000D02*
X233371400Y-74169000D01*
X236276400Y-74229000D02*
X241626400Y-74229000D01*
X241626400Y-94549000D02*
X235276400Y-94549000D01*
X233371400Y-94609000D02*
X243531400Y-94609000D01*
X235276400Y-75229000D02*
X236276400Y-74229000D01*
X233371400Y-74169000D02*
X233371400Y-94609000D01*
X243531400Y-94609000D02*
X243531400Y-74169000D01*
X241626400Y-74229000D02*
X241626400Y-94549000D01*
X235276400Y-94549000D02*
X235276400Y-75229000D01*
%TO.C,C49*%
X220086400Y-100909000D02*
X222586400Y-100909000D01*
X220086400Y-96209000D02*
X220086400Y-100909000D01*
X222586400Y-100909000D02*
X222586400Y-96209000D01*
X222586400Y-96209000D02*
X220086400Y-96209000D01*
%TO.C,C47*%
X197646400Y-96509000D02*
X197646400Y-99009000D01*
X202346400Y-96509000D02*
X197646400Y-96509000D01*
X197646400Y-99009000D02*
X202346400Y-99009000D01*
X202346400Y-99009000D02*
X202346400Y-96509000D01*
%TO.C,IC3*%
X163696400Y-115764000D02*
X181476400Y-115764000D01*
X181476400Y-64844000D02*
X163696400Y-64844000D01*
X163696400Y-64844000D02*
X163696400Y-115764000D01*
X166221400Y-64904000D02*
X179951400Y-64904000D01*
X165221400Y-115704000D02*
X165221400Y-65904000D01*
X181476400Y-115764000D02*
X181476400Y-64844000D01*
X179951400Y-115704000D02*
X165221400Y-115704000D01*
X179951400Y-64904000D02*
X179951400Y-115704000D01*
X165221400Y-65904000D02*
X166221400Y-64904000D01*
%TO.C,IC15*%
X212951400Y-122949000D02*
X212951400Y-103629000D01*
X211046400Y-102569000D02*
X211046400Y-123009000D01*
X211046400Y-123009000D02*
X221206400Y-123009000D01*
X213951400Y-102629000D02*
X219301400Y-102629000D01*
X221206400Y-123009000D02*
X221206400Y-102569000D01*
X212951400Y-103629000D02*
X213951400Y-102629000D01*
X221206400Y-102569000D02*
X211046400Y-102569000D01*
X219301400Y-122949000D02*
X212951400Y-122949000D01*
X219301400Y-102629000D02*
X219301400Y-122949000D01*
%TD*%
M02*
