%TF.GenerationSoftware,KiCad,Pcbnew,6.0.8-f2edbf62ab~116~ubuntu20.04.1*%
%TF.CreationDate,2022-10-23T21:23:01-04:00*%
%TF.ProjectId,coco2,636f636f-322e-46b6-9963-61645f706362,1.0.0*%
%TF.SameCoordinates,Original*%
%TF.FileFunction,Soldermask,Top*%
%TF.FilePolarity,Negative*%
%FSLAX46Y46*%
G04 Gerber Fmt 4.6, Leading zero omitted, Abs format (unit mm)*
G04 Created by KiCad (PCBNEW 6.0.8-f2edbf62ab~116~ubuntu20.04.1) date 2022-10-23 21:23:01*
%MOMM*%
%LPD*%
G01*
G04 APERTURE LIST*
G04 Aperture macros list*
%AMFreePoly0*
4,1,22,0.550000,-0.750000,0.000000,-0.750000,0.000000,-0.745033,-0.079941,-0.743568,-0.215256,-0.701293,-0.333266,-0.622738,-0.424486,-0.514219,-0.481581,-0.384460,-0.499164,-0.250000,-0.500000,-0.250000,-0.500000,0.250000,-0.499164,0.250000,-0.499963,0.256109,-0.478152,0.396186,-0.417904,0.524511,-0.324060,0.630769,-0.204165,0.706417,-0.067858,0.745374,0.000000,0.744959,0.000000,0.750000,
0.550000,0.750000,0.550000,-0.750000,0.550000,-0.750000,$1*%
%AMFreePoly1*
4,1,20,0.000000,0.744959,0.073905,0.744508,0.209726,0.703889,0.328688,0.626782,0.421226,0.519385,0.479903,0.390333,0.500000,0.250000,0.500000,-0.250000,0.499851,-0.262216,0.476331,-0.402017,0.414519,-0.529596,0.319384,-0.634700,0.198574,-0.708877,0.061801,-0.746166,0.000000,-0.745033,0.000000,-0.750000,-0.550000,-0.750000,-0.550000,0.750000,0.000000,0.750000,0.000000,0.744959,
0.000000,0.744959,$1*%
%AMFreePoly2*
4,1,22,0.500000,-0.750000,0.000000,-0.750000,0.000000,-0.745033,-0.079941,-0.743568,-0.215256,-0.701293,-0.333266,-0.622738,-0.424486,-0.514219,-0.481581,-0.384460,-0.499164,-0.250000,-0.500000,-0.250000,-0.500000,0.250000,-0.499164,0.250000,-0.499963,0.256109,-0.478152,0.396186,-0.417904,0.524511,-0.324060,0.630769,-0.204165,0.706417,-0.067858,0.745374,0.000000,0.744959,0.000000,0.750000,
0.500000,0.750000,0.500000,-0.750000,0.500000,-0.750000,$1*%
%AMFreePoly3*
4,1,20,0.000000,0.744959,0.073905,0.744508,0.209726,0.703889,0.328688,0.626782,0.421226,0.519385,0.479903,0.390333,0.500000,0.250000,0.500000,-0.250000,0.499851,-0.262216,0.476331,-0.402017,0.414519,-0.529596,0.319384,-0.634700,0.198574,-0.708877,0.061801,-0.746166,0.000000,-0.745033,0.000000,-0.750000,-0.500000,-0.750000,-0.500000,0.750000,0.000000,0.750000,0.000000,0.744959,
0.000000,0.744959,$1*%
G04 Aperture macros list end*
%ADD10C,1.600000*%
%ADD11R,1.600000X1.600000*%
%ADD12O,1.600000X1.600000*%
%ADD13R,1.800000X1.800000*%
%ADD14O,1.800000X1.800000*%
%ADD15R,1.320800X1.320800*%
%ADD16C,1.320800*%
%ADD17O,6.000000X4.000000*%
%ADD18FreePoly0,270.000000*%
%ADD19R,1.500000X1.000000*%
%ADD20FreePoly1,270.000000*%
%ADD21FreePoly0,90.000000*%
%ADD22FreePoly1,90.000000*%
%ADD23FreePoly2,90.000000*%
%ADD24FreePoly3,90.000000*%
%ADD25O,3.500000X3.500000*%
%ADD26R,2.000000X1.905000*%
%ADD27O,2.000000X1.905000*%
%ADD28C,2.400000*%
%ADD29O,2.400000X2.400000*%
%ADD30C,2.100000*%
%ADD31R,1.950000X1.950000*%
%ADD32C,1.950000*%
%ADD33C,1.500000*%
%ADD34C,1.778000*%
%ADD35C,2.540000*%
%ADD36R,2.200000X2.200000*%
%ADD37O,2.200000X2.200000*%
%ADD38R,1.700000X1.700000*%
%ADD39O,1.700000X1.700000*%
%ADD40R,2.500000X9.750000*%
%ADD41R,9.750000X2.500000*%
%ADD42R,10.750000X2.500000*%
%ADD43R,3.200000X3.200000*%
%ADD44O,3.200000X3.200000*%
%ADD45R,2.400000X2.400000*%
%ADD46C,3.044000*%
%ADD47C,1.400000*%
%ADD48O,1.400000X1.400000*%
%ADD49C,4.000000*%
%ADD50C,1.600200*%
%ADD51C,2.000000*%
%ADD52C,2.794000*%
%ADD53FreePoly2,270.000000*%
%ADD54FreePoly3,270.000000*%
%ADD55R,1.905000X1.905000*%
%ADD56C,1.905000*%
%ADD57C,2.311400*%
G04 APERTURE END LIST*
D10*
%TO.C,C2*%
X140276400Y-202359000D03*
X135276400Y-202359000D03*
%TD*%
%TO.C,C4*%
X230826400Y-199609000D03*
X235826400Y-199609000D03*
%TD*%
%TO.C,C5*%
X238436400Y-125329000D03*
X233436400Y-125329000D03*
%TD*%
%TO.C,C6*%
X254236400Y-125329000D03*
X249236400Y-125329000D03*
%TD*%
%TO.C,C7*%
X276226400Y-57099000D03*
X271226400Y-57099000D03*
%TD*%
D11*
%TO.C,C8*%
X281941288Y-55639000D03*
D10*
X283941288Y-55639000D03*
%TD*%
D11*
%TO.C,C9*%
X198456400Y-195879000D03*
D10*
X193456400Y-195879000D03*
%TD*%
%TO.C,C10*%
X199126400Y-160119000D03*
X199126400Y-165119000D03*
%TD*%
D11*
%TO.C,C11*%
X259946400Y-196239000D03*
D10*
X254946400Y-196239000D03*
%TD*%
%TO.C,C14*%
X288386400Y-202189000D03*
X283386400Y-202189000D03*
%TD*%
%TO.C,C15*%
X288386400Y-198859000D03*
X283386400Y-198859000D03*
%TD*%
%TO.C,C16*%
X282256400Y-98869000D03*
X277256400Y-98869000D03*
%TD*%
%TO.C,C17*%
X285433066Y-66039000D03*
X285433066Y-61039000D03*
%TD*%
%TO.C,C18*%
X172486400Y-202349000D03*
X167486400Y-202349000D03*
%TD*%
D11*
%TO.C,C19*%
X142266400Y-100553888D03*
D10*
X142266400Y-102553888D03*
%TD*%
%TO.C,C20*%
X149571400Y-100578888D03*
X149571400Y-105578888D03*
%TD*%
%TO.C,C21*%
X153716400Y-100949000D03*
X153716400Y-105949000D03*
%TD*%
%TO.C,C22*%
X161476400Y-91589000D03*
X161476400Y-96589000D03*
%TD*%
%TO.C,C23*%
X154966400Y-82269000D03*
X154966400Y-77269000D03*
%TD*%
%TO.C,C25*%
X194936400Y-65239000D03*
X199936400Y-65239000D03*
%TD*%
%TO.C,C24*%
X194936400Y-61629000D03*
X199936400Y-61629000D03*
%TD*%
%TO.C,C26*%
X218186400Y-63809000D03*
X218186400Y-68809000D03*
%TD*%
%TO.C,C27*%
X204906400Y-65199000D03*
X209906400Y-65199000D03*
%TD*%
%TO.C,C28*%
X209906400Y-61659000D03*
X204906400Y-61659000D03*
%TD*%
%TO.C,C29*%
X176206400Y-55899000D03*
X176206400Y-60899000D03*
%TD*%
%TO.C,C30*%
X172966400Y-60899000D03*
X172966400Y-55899000D03*
%TD*%
%TO.C,C31*%
X161346400Y-104719000D03*
X161346400Y-99719000D03*
%TD*%
%TO.C,C32*%
X125356400Y-122049000D03*
X125356400Y-120049000D03*
%TD*%
%TO.C,C33*%
X232316400Y-68999000D03*
X232316400Y-63999000D03*
%TD*%
D11*
%TO.C,C34*%
X108046400Y-186619000D03*
D10*
X103046400Y-186619000D03*
%TD*%
%TO.C,C35*%
X103046400Y-194489000D03*
X108046400Y-194489000D03*
%TD*%
%TO.C,C37*%
X102786400Y-154909000D03*
X107786400Y-154909000D03*
%TD*%
D11*
%TO.C,C38*%
X112863749Y-132779000D03*
D10*
X117863749Y-132779000D03*
%TD*%
%TO.C,C39*%
X107786400Y-158889000D03*
X102786400Y-158889000D03*
%TD*%
%TO.C,C40*%
X104826400Y-103189000D03*
X99826400Y-103189000D03*
%TD*%
%TO.C,C41*%
X104826400Y-107349000D03*
X99826400Y-107349000D03*
%TD*%
%TO.C,C43*%
X105686400Y-79439000D03*
X110686400Y-79439000D03*
%TD*%
%TO.C,C44*%
X140191400Y-109974000D03*
X145191400Y-109974000D03*
%TD*%
%TO.C,C55*%
X287766400Y-74029000D03*
X282766400Y-74029000D03*
%TD*%
%TO.C,C1*%
X294446400Y-70589000D03*
X299446400Y-70589000D03*
%TD*%
D11*
%TO.C,D1*%
X276346400Y-61369000D03*
D12*
X276346400Y-68989000D03*
%TD*%
D11*
%TO.C,D2*%
X264256400Y-70889000D03*
D12*
X264256400Y-63269000D03*
%TD*%
D11*
%TO.C,D3*%
X270366400Y-63269000D03*
D12*
X270366400Y-70889000D03*
%TD*%
D11*
%TO.C,D4*%
X241926400Y-68929000D03*
D12*
X241926400Y-61309000D03*
%TD*%
D13*
%TO.C,D6*%
X155786400Y-117979000D03*
D14*
X155786400Y-128139000D03*
%TD*%
D15*
%TO.C,FB1*%
X110106400Y-84779000D03*
D16*
X110106400Y-98749000D03*
%TD*%
D15*
%TO.C,FB2*%
X105486400Y-84969000D03*
D16*
X105486400Y-98939000D03*
%TD*%
D15*
%TO.C,FB3*%
X251926400Y-199549000D03*
D16*
X237956400Y-199549000D03*
%TD*%
D17*
%TO.C,H999002*%
X314576805Y-204174000D03*
%TD*%
D18*
%TO.C,J1*%
X227456400Y-183659000D03*
D19*
X227456400Y-184959000D03*
D20*
X227456400Y-186259000D03*
%TD*%
D21*
%TO.C,J2*%
X244536400Y-150579000D03*
D19*
X244536400Y-149279000D03*
D22*
X244536400Y-147979000D03*
%TD*%
D18*
%TO.C,J3*%
X240633066Y-147979000D03*
D19*
X240633066Y-149279000D03*
D20*
X240633066Y-150579000D03*
%TD*%
D18*
%TO.C,J4*%
X236729733Y-147979000D03*
D19*
X236729733Y-149279000D03*
D20*
X236729733Y-150579000D03*
%TD*%
D18*
%TO.C,J5*%
X232826400Y-147979000D03*
D19*
X232826400Y-149279000D03*
D20*
X232826400Y-150579000D03*
%TD*%
D23*
%TO.C,J6*%
X130276400Y-182379000D03*
D24*
X130276400Y-181079000D03*
%TD*%
D25*
%TO.C,Q1*%
X93896400Y-141969000D03*
D26*
X110556400Y-144509000D03*
D27*
X110556400Y-141969000D03*
X110556400Y-139429000D03*
%TD*%
D10*
%TO.C,R1*%
X131836400Y-199759000D03*
D12*
X131836400Y-189599000D03*
%TD*%
D10*
%TO.C,R2*%
X160146400Y-189619000D03*
D12*
X160146400Y-199779000D03*
%TD*%
D10*
%TO.C,R3*%
X128256400Y-199699000D03*
D12*
X128256400Y-189539000D03*
%TD*%
D10*
%TO.C,R4*%
X133446400Y-122479000D03*
D12*
X133446400Y-132639000D03*
%TD*%
D28*
%TO.C,R5*%
X214316400Y-71249000D03*
D29*
X214316400Y-58549000D03*
%TD*%
D10*
%TO.C,R6*%
X183376400Y-101899000D03*
D12*
X183376400Y-91739000D03*
%TD*%
D10*
%TO.C,R7*%
X187616400Y-94209000D03*
D12*
X187616400Y-84049000D03*
%TD*%
D10*
%TO.C,R8*%
X158956400Y-117889000D03*
D12*
X158956400Y-128049000D03*
%TD*%
D10*
%TO.C,R9*%
X186476400Y-199709000D03*
D12*
X186476400Y-189549000D03*
%TD*%
D10*
%TO.C,R10*%
X135256400Y-189569000D03*
D12*
X135256400Y-199729000D03*
%TD*%
D10*
%TO.C,R11*%
X285346400Y-194429000D03*
D12*
X285346400Y-184269000D03*
%TD*%
D10*
%TO.C,R12*%
X282266400Y-194429000D03*
D12*
X282266400Y-184269000D03*
%TD*%
D10*
%TO.C,R13*%
X267356400Y-70899000D03*
D12*
X267356400Y-60739000D03*
%TD*%
D10*
%TO.C,R14*%
X273336400Y-60739000D03*
D12*
X273336400Y-70899000D03*
%TD*%
D10*
%TO.C,R15*%
X207056400Y-133659000D03*
D12*
X207056400Y-143819000D03*
%TD*%
D10*
%TO.C,R16*%
X210116400Y-133659000D03*
D12*
X210116400Y-143819000D03*
%TD*%
D10*
%TO.C,R17*%
X204016400Y-133659000D03*
D12*
X204016400Y-143819000D03*
%TD*%
D10*
%TO.C,R18*%
X217366400Y-133659000D03*
D12*
X217366400Y-143819000D03*
%TD*%
D10*
%TO.C,R19*%
X291146398Y-60739000D03*
D12*
X291146398Y-70899000D03*
%TD*%
D10*
%TO.C,R20*%
X220406400Y-133659000D03*
D12*
X220406400Y-143819000D03*
%TD*%
D10*
%TO.C,R21*%
X288426400Y-184269000D03*
D12*
X288426400Y-194429000D03*
%TD*%
D10*
%TO.C,R22*%
X130046400Y-122479000D03*
D12*
X130046400Y-132639000D03*
%TD*%
D28*
%TO.C,R23*%
X235996400Y-71299000D03*
D29*
X235996400Y-58599000D03*
%TD*%
D10*
%TO.C,R24*%
X105606400Y-163859000D03*
D12*
X105606400Y-174019000D03*
%TD*%
D10*
%TO.C,R25*%
X100756400Y-176449000D03*
D12*
X100756400Y-163749000D03*
%TD*%
D10*
%TO.C,R26*%
X228766400Y-71329000D03*
D12*
X228766400Y-61169000D03*
%TD*%
D10*
%TO.C,R27*%
X225126400Y-71329000D03*
D12*
X225126400Y-61169000D03*
%TD*%
D10*
%TO.C,R29*%
X282346400Y-60749000D03*
D12*
X282346400Y-70909000D03*
%TD*%
D10*
%TO.C,R31*%
X276046400Y-133609000D03*
D12*
X276046400Y-143769000D03*
%TD*%
D30*
%TO.C,TC1*%
X293956400Y-189639000D03*
X293956400Y-194639000D03*
%TD*%
D28*
%TO.C,JK3*%
X225166732Y-48199000D03*
X240166732Y-48199000D03*
D31*
X225166732Y-53199000D03*
X227666732Y-53199000D03*
D32*
X227666732Y-55699000D03*
X230166732Y-55699000D03*
X235166732Y-55699000D03*
X237666732Y-55699000D03*
X240166732Y-53199000D03*
X237666732Y-53199000D03*
X235166732Y-43199000D03*
X237666732Y-43199000D03*
X227666732Y-43199000D03*
X230166732Y-43199000D03*
%TD*%
D33*
%TO.C,X1*%
X301456400Y-187179000D03*
X296556400Y-187179000D03*
X298956400Y-170179000D03*
%TD*%
D11*
%TO.C,IC7*%
X110436400Y-161479000D03*
D12*
X110436400Y-164019000D03*
X110436400Y-166559000D03*
X110436400Y-169099000D03*
X110436400Y-171639000D03*
X110436400Y-174179000D03*
X110436400Y-176719000D03*
X110436400Y-179259000D03*
X118056400Y-179259000D03*
X118056400Y-176719000D03*
X118056400Y-174179000D03*
X118056400Y-171639000D03*
X118056400Y-169099000D03*
X118056400Y-166559000D03*
X118056400Y-164019000D03*
X118056400Y-161479000D03*
%TD*%
D34*
%TO.C,SW3*%
X280236400Y-41679000D03*
X275736400Y-41679000D03*
D35*
X281486400Y-44179000D03*
X274486400Y-44179000D03*
%TD*%
D11*
%TO.C,IC12*%
X269016400Y-103699000D03*
D12*
X269016400Y-106239000D03*
X269016400Y-108779000D03*
X269016400Y-111319000D03*
X269016400Y-113859000D03*
X269016400Y-116399000D03*
X269016400Y-118939000D03*
X269016400Y-121479000D03*
X276636400Y-121479000D03*
X276636400Y-118939000D03*
X276636400Y-116399000D03*
X276636400Y-113859000D03*
X276636400Y-111319000D03*
X276636400Y-108779000D03*
X276636400Y-106239000D03*
X276636400Y-103699000D03*
%TD*%
D11*
%TO.C,IC6*%
X137556400Y-114159000D03*
D12*
X137556400Y-116699000D03*
X137556400Y-119239000D03*
X137556400Y-121779000D03*
X137556400Y-124319000D03*
X137556400Y-126859000D03*
X137556400Y-129399000D03*
X137556400Y-131939000D03*
X137556400Y-134479000D03*
X137556400Y-137019000D03*
X145176400Y-137019000D03*
X145176400Y-134479000D03*
X145176400Y-131939000D03*
X145176400Y-129399000D03*
X145176400Y-126859000D03*
X145176400Y-124319000D03*
X145176400Y-121779000D03*
X145176400Y-119239000D03*
X145176400Y-116699000D03*
X145176400Y-114159000D03*
%TD*%
D11*
%TO.C,IC8*%
X247296400Y-190129000D03*
D12*
X247296400Y-187589000D03*
X247296400Y-185049000D03*
X247296400Y-182509000D03*
X247296400Y-179969000D03*
X247296400Y-177429000D03*
X247296400Y-174889000D03*
X247296400Y-172349000D03*
X247296400Y-169809000D03*
X247296400Y-167269000D03*
X247296400Y-164729000D03*
X247296400Y-162189000D03*
X247296400Y-159649000D03*
X247296400Y-157109000D03*
X232056400Y-157109000D03*
X232056400Y-159649000D03*
X232056400Y-162189000D03*
X232056400Y-164729000D03*
X232056400Y-167269000D03*
X232056400Y-169809000D03*
X232056400Y-172349000D03*
X232056400Y-174889000D03*
X232056400Y-177429000D03*
X232056400Y-179969000D03*
X232056400Y-182509000D03*
X232056400Y-185049000D03*
X232056400Y-187589000D03*
X232056400Y-190129000D03*
%TD*%
D11*
%TO.C,IC11*%
X249236400Y-101071500D03*
D12*
X249236400Y-103611500D03*
X249236400Y-106151500D03*
X249236400Y-108691500D03*
X249236400Y-111231500D03*
X249236400Y-113771500D03*
X249236400Y-116311500D03*
X249236400Y-118851500D03*
X249236400Y-121391500D03*
X256856400Y-121391500D03*
X256856400Y-118851500D03*
X256856400Y-116311500D03*
X256856400Y-113771500D03*
X256856400Y-111231500D03*
X256856400Y-108691500D03*
X256856400Y-106151500D03*
X256856400Y-103611500D03*
X256856400Y-101071500D03*
%TD*%
D36*
%TO.C,D9*%
X104846400Y-111989000D03*
D37*
X104846400Y-122149000D03*
%TD*%
D38*
%TO.C,CN2*%
X153826400Y-139029000D03*
D39*
X156366400Y-139029000D03*
X158906400Y-139029000D03*
X161446400Y-139029000D03*
X163986400Y-139029000D03*
X166526400Y-139029000D03*
X169066400Y-139029000D03*
X171606400Y-139029000D03*
X174146400Y-139029000D03*
X176686400Y-139029000D03*
X179226400Y-139029000D03*
X181766400Y-139029000D03*
X184306400Y-139029000D03*
X186846400Y-139029000D03*
X189386400Y-139029000D03*
X191926400Y-139029000D03*
%TD*%
D11*
%TO.C,IC2*%
X279176400Y-197039000D03*
D12*
X279176400Y-194499000D03*
X279176400Y-191959000D03*
X279176400Y-189419000D03*
X279176400Y-186879000D03*
X279176400Y-184339000D03*
X279176400Y-181799000D03*
X279176400Y-179259000D03*
X279176400Y-176719000D03*
X279176400Y-174179000D03*
X279176400Y-171639000D03*
X279176400Y-169099000D03*
X279176400Y-166559000D03*
X279176400Y-164019000D03*
X279176400Y-161479000D03*
X279176400Y-158939000D03*
X279176400Y-156399000D03*
X279176400Y-153859000D03*
X279176400Y-151319000D03*
X279176400Y-148779000D03*
X263936400Y-148779000D03*
X263936400Y-151319000D03*
X263936400Y-153859000D03*
X263936400Y-156399000D03*
X263936400Y-158939000D03*
X263936400Y-161479000D03*
X263936400Y-164019000D03*
X263936400Y-166559000D03*
X263936400Y-169099000D03*
X263936400Y-171639000D03*
X263936400Y-174179000D03*
X263936400Y-176719000D03*
X263936400Y-179259000D03*
X263936400Y-181799000D03*
X263936400Y-184339000D03*
X263936400Y-186879000D03*
X263936400Y-189419000D03*
X263936400Y-191959000D03*
X263936400Y-194499000D03*
X263936400Y-197039000D03*
%TD*%
D32*
%TO.C,MDV-6*%
X148846400Y-85679000D03*
X148846400Y-83139000D03*
X148846400Y-80599000D03*
X148846400Y-72979000D03*
X148846400Y-70439000D03*
X148846400Y-67899000D03*
X148846400Y-65359000D03*
X148846400Y-62819000D03*
D40*
X116346400Y-67799000D03*
X152446400Y-67799000D03*
D41*
X134821400Y-92674000D03*
D42*
X134821400Y-42174000D03*
%TD*%
D38*
%TO.C,CN3*%
X227176400Y-124281500D03*
D39*
X227176400Y-121741500D03*
X227176400Y-119201500D03*
X227176400Y-116661500D03*
X227176400Y-114121500D03*
X227176400Y-111581500D03*
X227176400Y-109041500D03*
X227176400Y-106501500D03*
X227176400Y-103961500D03*
X227176400Y-101421500D03*
X227176400Y-98881500D03*
X227176400Y-96341500D03*
%TD*%
D11*
%TO.C,IC1*%
X202486400Y-148989000D03*
D12*
X202486400Y-151529000D03*
X202486400Y-154069000D03*
X202486400Y-156609000D03*
X202486400Y-159149000D03*
X202486400Y-161689000D03*
X202486400Y-164229000D03*
X202486400Y-166769000D03*
X202486400Y-169309000D03*
X202486400Y-171849000D03*
X202486400Y-174389000D03*
X202486400Y-176929000D03*
X202486400Y-179469000D03*
X202486400Y-182009000D03*
X202486400Y-184549000D03*
X202486400Y-187089000D03*
X202486400Y-189629000D03*
X202486400Y-192169000D03*
X202486400Y-194709000D03*
X202486400Y-197249000D03*
X217726400Y-197249000D03*
X217726400Y-194709000D03*
X217726400Y-192169000D03*
X217726400Y-189629000D03*
X217726400Y-187089000D03*
X217726400Y-184549000D03*
X217726400Y-182009000D03*
X217726400Y-179469000D03*
X217726400Y-176929000D03*
X217726400Y-174389000D03*
X217726400Y-171849000D03*
X217726400Y-169309000D03*
X217726400Y-166769000D03*
X217726400Y-164229000D03*
X217726400Y-161689000D03*
X217726400Y-159149000D03*
X217726400Y-156609000D03*
X217726400Y-154069000D03*
X217726400Y-151529000D03*
X217726400Y-148989000D03*
%TD*%
D43*
%TO.C,D11*%
X109486400Y-122109000D03*
D44*
X109486400Y-106869000D03*
%TD*%
D11*
%TO.C,IC4*%
X139976400Y-148869000D03*
D12*
X139976400Y-151409000D03*
X139976400Y-153949000D03*
X139976400Y-156489000D03*
X139976400Y-159029000D03*
X139976400Y-161569000D03*
X139976400Y-164109000D03*
X139976400Y-166649000D03*
X139976400Y-169189000D03*
X139976400Y-171729000D03*
X139976400Y-174269000D03*
X139976400Y-176809000D03*
X139976400Y-179349000D03*
X139976400Y-181889000D03*
X139976400Y-184429000D03*
X139976400Y-186969000D03*
X139976400Y-189509000D03*
X139976400Y-192049000D03*
X139976400Y-194589000D03*
X139976400Y-197129000D03*
X155216400Y-197129000D03*
X155216400Y-194589000D03*
X155216400Y-192049000D03*
X155216400Y-189509000D03*
X155216400Y-186969000D03*
X155216400Y-184429000D03*
X155216400Y-181889000D03*
X155216400Y-179349000D03*
X155216400Y-176809000D03*
X155216400Y-174269000D03*
X155216400Y-171729000D03*
X155216400Y-169189000D03*
X155216400Y-166649000D03*
X155216400Y-164109000D03*
X155216400Y-161569000D03*
X155216400Y-159029000D03*
X155216400Y-156489000D03*
X155216400Y-153949000D03*
X155216400Y-151409000D03*
X155216400Y-148869000D03*
%TD*%
D11*
%TO.C,IC5*%
X167486400Y-149059000D03*
D12*
X167486400Y-151599000D03*
X167486400Y-154139000D03*
X167486400Y-156679000D03*
X167486400Y-159219000D03*
X167486400Y-161759000D03*
X167486400Y-164299000D03*
X167486400Y-166839000D03*
X167486400Y-169379000D03*
X167486400Y-171919000D03*
X167486400Y-174459000D03*
X167486400Y-176999000D03*
X167486400Y-179539000D03*
X167486400Y-182079000D03*
X167486400Y-184619000D03*
X167486400Y-187159000D03*
X167486400Y-189699000D03*
X167486400Y-192239000D03*
X167486400Y-194779000D03*
X167486400Y-197319000D03*
X182726400Y-197319000D03*
X182726400Y-194779000D03*
X182726400Y-192239000D03*
X182726400Y-189699000D03*
X182726400Y-187159000D03*
X182726400Y-184619000D03*
X182726400Y-182079000D03*
X182726400Y-179539000D03*
X182726400Y-176999000D03*
X182726400Y-174459000D03*
X182726400Y-171919000D03*
X182726400Y-169379000D03*
X182726400Y-166839000D03*
X182726400Y-164299000D03*
X182726400Y-161759000D03*
X182726400Y-159219000D03*
X182726400Y-156679000D03*
X182726400Y-154139000D03*
X182726400Y-151599000D03*
X182726400Y-149059000D03*
%TD*%
D43*
%TO.C,D10*%
X115296400Y-122049000D03*
D44*
X115296400Y-106809000D03*
%TD*%
D28*
%TO.C,JK4*%
X247296400Y-48199000D03*
X262296400Y-48199000D03*
D31*
X247296400Y-53199000D03*
D32*
X254796400Y-53199000D03*
X262296400Y-53199000D03*
X249796400Y-55699000D03*
X259796400Y-55699000D03*
X259796400Y-43199000D03*
X257296400Y-43199000D03*
X252296400Y-43199000D03*
X249796400Y-43199000D03*
%TD*%
D36*
%TO.C,D8*%
X100606400Y-111969000D03*
D37*
X100606400Y-122129000D03*
%TD*%
D28*
%TO.C,JK2*%
X196096400Y-48199000D03*
X181096400Y-48199000D03*
D31*
X181096400Y-53199000D03*
D32*
X183596400Y-55699000D03*
X188596400Y-53199000D03*
X193596400Y-55699000D03*
X196096400Y-53199000D03*
X188596400Y-58199000D03*
X193596400Y-43199000D03*
X191096400Y-43199000D03*
X186096400Y-43199000D03*
X183596400Y-43199000D03*
%TD*%
D28*
%TO.C,JK1*%
X218226066Y-48199000D03*
X203226066Y-48199000D03*
D31*
X203226066Y-53199000D03*
D32*
X205726066Y-55699000D03*
X210726066Y-53199000D03*
X215726066Y-55699000D03*
X218226066Y-53199000D03*
X210726066Y-58199000D03*
X215726066Y-43199000D03*
X213226066Y-43199000D03*
X208226066Y-43199000D03*
X205726066Y-43199000D03*
%TD*%
D11*
%TO.C,IC10*%
X233436400Y-101121500D03*
D12*
X233436400Y-103661500D03*
X233436400Y-106201500D03*
X233436400Y-108741500D03*
X233436400Y-111281500D03*
X233436400Y-113821500D03*
X233436400Y-116361500D03*
X233436400Y-118901500D03*
X233436400Y-121441500D03*
X241056400Y-121441500D03*
X241056400Y-118901500D03*
X241056400Y-116361500D03*
X241056400Y-113821500D03*
X241056400Y-111281500D03*
X241056400Y-108741500D03*
X241056400Y-106201500D03*
X241056400Y-103661500D03*
X241056400Y-101121500D03*
%TD*%
D45*
%TO.C,C36*%
X124116400Y-106489000D03*
D28*
X131616400Y-106489000D03*
%TD*%
D32*
%TO.C,RY1*%
X258476400Y-69949000D03*
X256952400Y-62329000D03*
X261016400Y-62329000D03*
D31*
X245776400Y-69949000D03*
D32*
X245776400Y-62329000D03*
%TD*%
D38*
%TO.C,CN4*%
X262176400Y-124281500D03*
D39*
X262176400Y-121741500D03*
X262176400Y-119201500D03*
X262176400Y-116661500D03*
X262176400Y-114121500D03*
X262176400Y-111581500D03*
X262176400Y-109041500D03*
X262176400Y-106501500D03*
X262176400Y-103961500D03*
X262176400Y-101421500D03*
X262176400Y-98881500D03*
X262176400Y-96341500D03*
%TD*%
D46*
%TO.C,SW1*%
X97840000Y-53929000D03*
X97840000Y-57929000D03*
X97840000Y-61929000D03*
X103840000Y-53929000D03*
X103840000Y-57929000D03*
X103840000Y-61929000D03*
%TD*%
D10*
%TO.C,C42*%
X105736400Y-74519000D03*
X110736400Y-74519000D03*
%TD*%
D47*
%TO.C,R28*%
X125546400Y-133629000D03*
D48*
X125546400Y-141249000D03*
%TD*%
D13*
%TO.C,D5*%
X152296400Y-118019000D03*
D14*
X152296400Y-128179000D03*
%TD*%
D49*
%TO.C,CN1*%
X310575400Y-132501500D03*
X310575400Y-67096500D03*
D50*
X301914000Y-75669000D03*
X305876400Y-75669000D03*
X301914000Y-78209000D03*
X305876400Y-78209000D03*
X301914000Y-80749000D03*
X305876400Y-80749000D03*
X301914000Y-83289000D03*
X305876400Y-83289000D03*
X301914000Y-85829000D03*
X305876400Y-85829000D03*
X301914000Y-88369000D03*
X305876400Y-88369000D03*
X301914000Y-90909000D03*
X305876400Y-90909000D03*
X301914000Y-93449000D03*
X305876400Y-93449000D03*
X301914000Y-95989000D03*
X305876400Y-95989000D03*
X301914000Y-98529000D03*
X305876400Y-98529000D03*
X301914000Y-101069000D03*
X305876400Y-101069000D03*
X301914000Y-103609000D03*
X305876400Y-103609000D03*
X301914000Y-106149000D03*
X305876400Y-106149000D03*
X301914000Y-108689000D03*
X305876400Y-108689000D03*
X301914000Y-111229000D03*
X305876400Y-111229000D03*
X301914000Y-113769000D03*
X305876400Y-113769000D03*
X301914000Y-116309000D03*
X305876400Y-116309000D03*
X301914000Y-118849000D03*
X305876400Y-118849000D03*
X301914000Y-121389000D03*
X305876400Y-121389000D03*
X301914000Y-123929000D03*
X305876400Y-123929000D03*
%TD*%
D10*
%TO.C,R30*%
X279106400Y-133609000D03*
D12*
X279106400Y-143769000D03*
%TD*%
D15*
%TO.C,FB5*%
X213676400Y-129089000D03*
D16*
X213676400Y-143059000D03*
%TD*%
D51*
%TO.C,C13*%
X299746400Y-192269000D03*
X304746400Y-192269000D03*
%TD*%
D17*
%TO.C,H999003*%
X93554476Y-204049000D03*
%TD*%
D15*
%TO.C,FB4*%
X272476400Y-143859000D03*
D16*
X272476400Y-129889000D03*
%TD*%
D10*
%TO.C,C12*%
X251486400Y-191869000D03*
X251486400Y-196869000D03*
%TD*%
D52*
%TO.C,A1*%
X97476400Y-79169000D03*
%TD*%
%TO.C,A2*%
X97406400Y-86529000D03*
%TD*%
%TO.C,A3*%
X97476400Y-96599000D03*
%TD*%
D53*
%TO.C,JP8*%
X247276400Y-194269000D03*
D54*
X247276400Y-195569000D03*
%TD*%
D11*
%TO.C,IC14*%
X197516400Y-103899000D03*
D12*
X197516400Y-106439000D03*
X197516400Y-108979000D03*
X197516400Y-111519000D03*
X197516400Y-114059000D03*
X197516400Y-116599000D03*
X197516400Y-119139000D03*
X197516400Y-121679000D03*
X205136400Y-121679000D03*
X205136400Y-119139000D03*
X205136400Y-116599000D03*
X205136400Y-114059000D03*
X205136400Y-111519000D03*
X205136400Y-108979000D03*
X205136400Y-106439000D03*
X205136400Y-103899000D03*
%TD*%
D10*
%TO.C,C50*%
X252006400Y-97759000D03*
X247006400Y-97759000D03*
%TD*%
D11*
%TO.C,D7*%
X279326400Y-68379000D03*
D12*
X279326400Y-60759000D03*
%TD*%
D10*
%TO.C,C45*%
X217306400Y-125329000D03*
X212306400Y-125329000D03*
%TD*%
%TO.C,C53*%
X202516400Y-125329000D03*
X197516400Y-125329000D03*
%TD*%
D11*
%TO.C,IC22*%
X281516400Y-78599000D03*
D12*
X281516400Y-81139000D03*
X281516400Y-83679000D03*
X281516400Y-86219000D03*
X281516400Y-88759000D03*
X281516400Y-91299000D03*
X281516400Y-93839000D03*
X289136400Y-93839000D03*
X289136400Y-91299000D03*
X289136400Y-88759000D03*
X289136400Y-86219000D03*
X289136400Y-83679000D03*
X289136400Y-81139000D03*
X289136400Y-78599000D03*
%TD*%
D11*
%TO.C,IC16*%
X209891400Y-75499000D03*
D12*
X209891400Y-78039000D03*
X209891400Y-80579000D03*
X209891400Y-83119000D03*
X209891400Y-85659000D03*
X209891400Y-88199000D03*
X209891400Y-90739000D03*
X209891400Y-93279000D03*
X217511400Y-93279000D03*
X217511400Y-90739000D03*
X217511400Y-88199000D03*
X217511400Y-85659000D03*
X217511400Y-83119000D03*
X217511400Y-80579000D03*
X217511400Y-78039000D03*
X217511400Y-75499000D03*
%TD*%
D11*
%TO.C,IC20*%
X247016400Y-75499000D03*
D12*
X247016400Y-78039000D03*
X247016400Y-80579000D03*
X247016400Y-83119000D03*
X247016400Y-85659000D03*
X247016400Y-88199000D03*
X247016400Y-90739000D03*
X247016400Y-93279000D03*
X254636400Y-93279000D03*
X254636400Y-90739000D03*
X254636400Y-88199000D03*
X254636400Y-85659000D03*
X254636400Y-83119000D03*
X254636400Y-80579000D03*
X254636400Y-78039000D03*
X254636400Y-75499000D03*
%TD*%
D11*
%TO.C,C54*%
X294483749Y-60679000D03*
D10*
X299483749Y-60679000D03*
%TD*%
D11*
%TO.C,IC19*%
X222266400Y-75499000D03*
D12*
X222266400Y-78039000D03*
X222266400Y-80579000D03*
X222266400Y-83119000D03*
X222266400Y-85659000D03*
X222266400Y-88199000D03*
X222266400Y-90739000D03*
X222266400Y-93279000D03*
X229886400Y-93279000D03*
X229886400Y-90739000D03*
X229886400Y-88199000D03*
X229886400Y-85659000D03*
X229886400Y-83119000D03*
X229886400Y-80579000D03*
X229886400Y-78039000D03*
X229886400Y-75499000D03*
%TD*%
D11*
%TO.C,IC17*%
X197516400Y-75499000D03*
D12*
X197516400Y-78039000D03*
X197516400Y-80579000D03*
X197516400Y-83119000D03*
X197516400Y-85659000D03*
X197516400Y-88199000D03*
X197516400Y-90739000D03*
X197516400Y-93279000D03*
X205136400Y-93279000D03*
X205136400Y-90739000D03*
X205136400Y-88199000D03*
X205136400Y-85659000D03*
X205136400Y-83119000D03*
X205136400Y-80579000D03*
X205136400Y-78039000D03*
X205136400Y-75499000D03*
%TD*%
D10*
%TO.C,C48*%
X239646400Y-97759000D03*
X234646400Y-97759000D03*
%TD*%
D11*
%TO.C,D12*%
X288286400Y-66049000D03*
D12*
X288286400Y-58429000D03*
%TD*%
D10*
%TO.C,C46*%
X214836400Y-97759000D03*
X209836400Y-97759000D03*
%TD*%
D38*
%TO.C,J7*%
X270456400Y-98869000D03*
D39*
X267916400Y-98869000D03*
%TD*%
D38*
%TO.C,J8*%
X184216400Y-67549000D03*
D39*
X184216400Y-70089000D03*
X184216400Y-72629000D03*
X184216400Y-75169000D03*
X184216400Y-77709000D03*
X184216400Y-80249000D03*
X184216400Y-82789000D03*
X184216400Y-85329000D03*
X184216400Y-87869000D03*
%TD*%
D10*
%TO.C,C51*%
X265266400Y-88879000D03*
X265266400Y-93879000D03*
%TD*%
D11*
%TO.C,IC21*%
X269216400Y-76099000D03*
D12*
X269216400Y-78639000D03*
X269216400Y-81179000D03*
X269216400Y-83719000D03*
X269216400Y-86259000D03*
X269216400Y-88799000D03*
X269216400Y-91339000D03*
X269216400Y-93879000D03*
X276836400Y-93879000D03*
X276836400Y-91339000D03*
X276836400Y-88799000D03*
X276836400Y-86259000D03*
X276836400Y-83719000D03*
X276836400Y-81179000D03*
X276836400Y-78639000D03*
X276836400Y-76099000D03*
%TD*%
D55*
%TO.C,SW2*%
X170516400Y-42409000D03*
D56*
X166516400Y-42409000D03*
X162516401Y-42409000D03*
X162516401Y-44909000D03*
X166516400Y-44909000D03*
X170516400Y-44909000D03*
D57*
X174616401Y-43659000D03*
X158416400Y-43659000D03*
%TD*%
D10*
%TO.C,R32*%
X223456400Y-133659000D03*
D12*
X223456400Y-143819000D03*
%TD*%
D11*
%TO.C,IC18*%
X234641400Y-75499000D03*
D12*
X234641400Y-78039000D03*
X234641400Y-80579000D03*
X234641400Y-83119000D03*
X234641400Y-85659000D03*
X234641400Y-88199000D03*
X234641400Y-90739000D03*
X234641400Y-93279000D03*
X242261400Y-93279000D03*
X242261400Y-90739000D03*
X242261400Y-88199000D03*
X242261400Y-85659000D03*
X242261400Y-83119000D03*
X242261400Y-80579000D03*
X242261400Y-78039000D03*
X242261400Y-75499000D03*
%TD*%
D10*
%TO.C,C49*%
X221336400Y-101059000D03*
X221336400Y-96059000D03*
%TD*%
%TO.C,C47*%
X202496400Y-97759000D03*
X197496400Y-97759000D03*
%TD*%
D11*
%TO.C,IC3*%
X164966400Y-66174000D03*
D12*
X164966400Y-68714000D03*
X164966400Y-71254000D03*
X164966400Y-73794000D03*
X164966400Y-76334000D03*
X164966400Y-78874000D03*
X164966400Y-81414000D03*
X164966400Y-83954000D03*
X164966400Y-86494000D03*
X164966400Y-89034000D03*
X164966400Y-91574000D03*
X164966400Y-94114000D03*
X164966400Y-96654000D03*
X164966400Y-99194000D03*
X164966400Y-101734000D03*
X164966400Y-104274000D03*
X164966400Y-106814000D03*
X164966400Y-109354000D03*
X164966400Y-111894000D03*
X164966400Y-114434000D03*
X180206400Y-114434000D03*
X180206400Y-111894000D03*
X180206400Y-109354000D03*
X180206400Y-106814000D03*
X180206400Y-104274000D03*
X180206400Y-101734000D03*
X180206400Y-99194000D03*
X180206400Y-96654000D03*
X180206400Y-94114000D03*
X180206400Y-91574000D03*
X180206400Y-89034000D03*
X180206400Y-86494000D03*
X180206400Y-83954000D03*
X180206400Y-81414000D03*
X180206400Y-78874000D03*
X180206400Y-76334000D03*
X180206400Y-73794000D03*
X180206400Y-71254000D03*
X180206400Y-68714000D03*
X180206400Y-66174000D03*
%TD*%
D11*
%TO.C,IC15*%
X212316400Y-103899000D03*
D12*
X212316400Y-106439000D03*
X212316400Y-108979000D03*
X212316400Y-111519000D03*
X212316400Y-114059000D03*
X212316400Y-116599000D03*
X212316400Y-119139000D03*
X212316400Y-121679000D03*
X219936400Y-121679000D03*
X219936400Y-119139000D03*
X219936400Y-116599000D03*
X219936400Y-114059000D03*
X219936400Y-111519000D03*
X219936400Y-108979000D03*
X219936400Y-106439000D03*
X219936400Y-103899000D03*
%TD*%
G36*
X318417975Y-124929765D02*
G01*
X318464743Y-124983181D01*
X318476400Y-125036112D01*
X318476400Y-136673000D01*
X318456398Y-136741121D01*
X318402742Y-136787614D01*
X318350400Y-136799000D01*
X304334518Y-136799000D01*
X304329056Y-136800604D01*
X304292304Y-136805702D01*
X301009426Y-136773088D01*
X300941508Y-136752410D01*
X300895550Y-136698295D01*
X300884678Y-136646856D01*
X300896299Y-130482371D01*
X300916430Y-130414289D01*
X300934805Y-130391940D01*
X303430472Y-127983670D01*
X303493381Y-127950761D01*
X303516326Y-127948350D01*
X308058284Y-127889236D01*
X308083273Y-127881543D01*
X310749236Y-124989318D01*
X310810113Y-124952787D01*
X310841234Y-124948718D01*
X318349752Y-124910114D01*
X318417975Y-124929765D01*
G37*
G36*
X304191250Y-62389239D02*
G01*
X304259234Y-62409700D01*
X304305364Y-62463668D01*
X304316400Y-62515236D01*
X304316400Y-62780885D01*
X304320875Y-62796124D01*
X304322265Y-62797329D01*
X304329948Y-62799000D01*
X318350400Y-62799000D01*
X318418521Y-62819002D01*
X318465014Y-62872658D01*
X318476400Y-62925000D01*
X318476400Y-74533859D01*
X318456398Y-74601980D01*
X318402742Y-74648473D01*
X318350394Y-74659859D01*
X300923417Y-74659006D01*
X300855297Y-74639001D01*
X300808807Y-74585343D01*
X300797427Y-74531987D01*
X300894810Y-62492836D01*
X300915363Y-62424879D01*
X300969392Y-62378822D01*
X301021656Y-62367858D01*
X304191250Y-62389239D01*
G37*
M02*
