M48
; DRILL file {KiCad 6.0.8-f2edbf62ab~116~ubuntu20.04.1} date Sun 23 Oct 2022 09:23:07 PM EDT
; FORMAT={-:-/ absolute / inch / decimal}
; #@! TF.CreationDate,2022-10-23T21:23:07-04:00
; #@! TF.GenerationSoftware,Kicad,Pcbnew,6.0.8-f2edbf62ab~116~ubuntu20.04.1
; #@! TF.FileFunction,Plated,1,2,PTH
FMAT,2
INCH
; #@! TA.AperFunction,Plated,PTH,ViaDrill
T1C0.0157
; #@! TA.AperFunction,Plated,PTH,ComponentDrill
T2C0.0276
; #@! TA.AperFunction,Plated,PTH,ComponentDrill
T3C0.0315
; #@! TA.AperFunction,Plated,PTH,ComponentDrill
T4C0.0320
; #@! TA.AperFunction,Plated,PTH,ComponentDrill
T5C0.0354
; #@! TA.AperFunction,Plated,PTH,ComponentDrill
T6C0.0394
; #@! TA.AperFunction,Plated,PTH,ComponentDrill
T7C0.0400
; #@! TA.AperFunction,Plated,PTH,ComponentDrill
T8C0.0413
; #@! TA.AperFunction,Plated,PTH,ComponentDrill
T9C0.0430
; #@! TA.AperFunction,Plated,PTH,ViaDrill
T10C0.0433
; #@! TA.AperFunction,Plated,PTH,ComponentDrill
T11C0.0433
; #@! TA.AperFunction,Plated,PTH,ComponentDrill
T12C0.0472
; #@! TA.AperFunction,Plated,PTH,ComponentDrill
T13C0.0492
; #@! TA.AperFunction,Plated,PTH,ComponentDrill
T14C0.0512
; #@! TA.AperFunction,Plated,PTH,ComponentDrill
T15C0.0550
; #@! TA.AperFunction,Plated,PTH,ComponentDrill
T16C0.0591
; #@! TA.AperFunction,Plated,PTH,ComponentDrill
T17C0.0630
; #@! TA.AperFunction,Plated,PTH,ComponentDrill
T18C0.0709
; #@! TA.AperFunction,Plated,PTH,ComponentDrill
T19C0.0710
; #@! TA.AperFunction,Plated,PTH,ComponentDrill
T20C0.0900
; #@! TA.AperFunction,Plated,PTH,ComponentDrill
T21C0.1575
%
G90
G05
T1
X4.84Y-5.2279
X4.8632Y-5.1389
X4.8849Y-4.9752
X4.9394Y-5.0683
X5.1379Y-7.3167
X5.1987Y-5.3299
X5.2337Y-6.8244
X5.277Y-6.961
X5.377Y-6.8614
X5.4188Y-6.7102
X5.6203Y-5.9027
X5.6211Y-6.9322
X5.6782Y-7.1161
X5.7503Y-5.5803
X5.7566Y-5.6783
X5.818Y-5.7464
X5.8786Y-5.8185
X5.8932Y-5.6153
X5.9833Y-6.8122
X5.99Y-4.4976
X6.0121Y-7.0126
X6.2629Y-2.2689
X6.2691Y-2.1177
X6.279Y-4.1712
X6.3184Y-2.1842
X6.3184Y-2.3326
X6.3656Y-2.9893
X6.3747Y-4.3775
X6.3877Y-4.457
X6.5991Y-3.1574
X6.603Y-2.9606
X6.6538Y-5.0169
X6.7231Y-5.0712
X6.7695Y-5.1368
X6.8487Y-5.1368
X6.9262Y-5.1368
X7.014Y-5.1368
X7.0345Y-4.6149
X7.0802Y-5.1368
X7.1814Y-5.1368
X7.2396Y-4.6779
X7.264Y-5.1368
X7.2877Y-6.2165
X7.3042Y-4.7311
X7.3581Y-4.7944
X7.3581Y-5.1368
X7.3711Y-2.6937
X7.3776Y-2.5982
X7.3786Y-3.9878
X7.4034Y-6.5685
X7.4069Y-4.685
X7.4199Y-6.6685
X7.4369Y-6.7685
X7.4562Y-6.8685
X7.4613Y-2.5681
X7.4778Y-6.9685
X7.4806Y-2.7984
X7.4841Y-4.7685
X7.4947Y-4.8779
X7.4979Y-7.0685
X7.5168Y-2.4826
X7.5195Y-7.1685
X7.5388Y-7.2685
X7.5471Y-7.607
X7.5534Y-2.7421
X7.5569Y-4.9311
X7.5591Y-5.1368
X7.6302Y-4.587
X7.6317Y-7.6086
X7.6384Y-4.6763
X7.8455Y-5.2645
X7.8526Y-3.4401
X7.8695Y-3.3429
X7.8861Y-4.1263
X7.9144Y-5.3244
X8.0593Y-7.7212
X8.0613Y-6.6133
X8.1111Y-7.6214
X8.1518Y-3.9779
X8.155Y-4.1232
X8.2239Y-5.5441
X8.2731Y-5.0862
X8.3361Y-5.7342
X8.3428Y-5.559
X8.4589Y-3.0346
X8.4601Y-3.12
X8.4695Y-4.4783
X8.4703Y-7.6913
X8.4719Y-7.9185
X8.5026Y-5.7878
X8.5333Y-3.9287
X8.5735Y-7.9374
X8.6207Y-5.374
X8.638Y-6.4362
X8.6566Y-6.3342
X8.6672Y-6.2346
X8.7314Y-5.3779
X8.7314Y-6.0657
X8.7357Y-4.7342
X8.7404Y-6.1586
X8.7991Y-6.285
X8.8325Y-6.385
X8.8542Y-6.485
X8.8668Y-6.6145
X8.8825Y-7.2819
X8.955Y-7.4752
X8.9715Y-5.2933
X8.9991Y-6.0657
X9.0317Y-7.7051
X9.0392Y-4.2315
X9.0404Y-5.2236
X9.0983Y-5.1633
X9.1302Y-5.3901
X9.14Y-2.9874
X9.1691Y-5.6626
X9.1691Y-5.7716
X9.1841Y-5.5236
X9.2254Y-5.1519
X9.2314Y-7.4346
X9.2566Y-7.5618
X9.2655Y-6.0955
X9.3247Y-7.6366
X9.366Y-6.0421
X9.3947Y-4.1311
X9.4042Y-4.2299
X9.455Y-6.9858
X9.4592Y-7.7085
X9.4723Y-5.3885
X9.5223Y-5.7224
X9.5388Y-7.7578
X9.6093Y-5.7669
X9.6164Y-5.1496
X9.6353Y-6.3338
X9.6357Y-6.635
X9.6648Y-4.7378
X9.7514Y-8.0137
X9.8038Y-3.4252
X9.8066Y-2.9444
X9.8495Y-8.0023
X9.8554Y-5.3783
X9.9129Y-5.4511
X9.9562Y-6.124
X9.9621Y-5.8228
X9.9691Y-6.0169
X9.9699Y-5.5055
X10.1042Y-3.6248
X10.1723Y-2.9468
X10.1751Y-3.211
X10.2097Y-3.1027
X10.3884Y-5.7649
X10.4436Y-5.711
X10.4451Y-4.1236
X10.4825Y-7.2063
X10.5034Y-5.6511
X10.5058Y-7.1078
X10.5566Y-7.007
X10.5613Y-5.5968
X10.5869Y-6.9059
X10.6117Y-5.5193
X10.6802Y-5.4657
X10.6861Y-3.4956
X10.7117Y-3.5972
X10.7247Y-5.2763
X10.805Y-5.4039
X10.827Y-4.8551
X10.938Y-5.3543
X10.9408Y-4.8677
X10.9778Y-4.5311
X10.9896Y-3.1358
X11.0321Y-4.4464
X11.0849Y-2.7212
X11.088Y-4.8874
X11.1235Y-3.7866
X11.1695Y-3.6901
X11.1817Y-3.8149
X11.1863Y-6.9167
X11.2152Y-7.0204
X11.2571Y-7.0994
X11.2916Y-7.1819
X11.3613Y-4.0519
X11.4428Y-4.4842
X11.4506Y-4.3783
X11.4522Y-3.9783
X11.4569Y-3.6433
X11.4625Y-5.6023
X11.516Y-3.9067
X11.5223Y-5.6527
X11.5258Y-2.3011
X11.5258Y-3.2504
X11.5593Y-3.8319
X11.581Y-5.7177
X11.6006Y-3.622
X11.6085Y-3.7263
X11.6349Y-5.87
X11.6451Y-5.7732
X11.6908Y-3.6381
X11.6912Y-2.8637
X11.6995Y-5.9594
X11.7018Y-3.7748
X12.2003Y-6.6901
X12.2377Y-6.8015
T2
X4.9428Y-5.261
X4.9428Y-5.561
T3
X3.9302Y-4.0626
X3.9302Y-4.2263
X3.9668Y-6.4468
X3.9668Y-6.9468
X4.0467Y-6.0988
X4.0467Y-6.2555
X4.0569Y-7.3472
X4.0569Y-7.657
X4.127Y-4.0626
X4.127Y-4.2263
X4.1577Y-6.4511
X4.1577Y-6.8511
X4.1609Y-3.1275
X4.1629Y-2.9338
X4.2436Y-6.0988
X4.2436Y-6.2555
X4.2538Y-7.3472
X4.2538Y-7.657
X4.3479Y-6.3574
X4.3479Y-6.4574
X4.3479Y-6.5574
X4.3479Y-6.6574
X4.3479Y-6.7574
X4.3479Y-6.8574
X4.3479Y-6.9574
X4.3479Y-7.0574
X4.3577Y-3.1275
X4.3597Y-2.9338
X4.4435Y-5.2275
X4.6403Y-5.2275
X4.6479Y-6.3574
X4.6479Y-6.4574
X4.6479Y-6.5574
X4.6479Y-6.6574
X4.6479Y-6.7574
X4.6479Y-6.8574
X4.6479Y-6.9574
X4.6479Y-7.0574
X4.9353Y-4.7263
X4.9353Y-4.8051
X5.0495Y-7.4622
X5.0495Y-7.8622
X5.1199Y-4.822
X5.1199Y-5.222
X5.1904Y-7.4645
X5.1904Y-7.8645
X5.2538Y-4.822
X5.2538Y-5.222
X5.3251Y-7.4633
X5.3251Y-7.8633
X5.3258Y-7.9669
X5.4156Y-4.4944
X5.4156Y-4.5944
X5.4156Y-4.6944
X5.4156Y-4.7944
X5.4156Y-4.8944
X5.4156Y-4.9944
X5.4156Y-5.0944
X5.4156Y-5.1944
X5.4156Y-5.2944
X5.4156Y-5.3944
X5.5109Y-5.861
X5.5109Y-5.961
X5.5109Y-6.061
X5.5109Y-6.161
X5.5109Y-6.261
X5.5109Y-6.361
X5.5109Y-6.461
X5.5109Y-6.561
X5.5109Y-6.661
X5.5109Y-6.761
X5.5109Y-6.861
X5.5109Y-6.961
X5.5109Y-7.061
X5.5109Y-7.161
X5.5109Y-7.261
X5.5109Y-7.361
X5.5109Y-7.461
X5.5109Y-7.561
X5.5109Y-7.661
X5.5109Y-7.761
X5.5193Y-4.3297
X5.5227Y-7.9669
X5.601Y-3.9588
X5.601Y-4.0376
X5.7156Y-4.4944
X5.7156Y-4.5944
X5.7156Y-4.6944
X5.7156Y-4.7944
X5.7156Y-4.8944
X5.7156Y-4.9944
X5.7156Y-5.0944
X5.7156Y-5.1944
X5.7156Y-5.2944
X5.7156Y-5.3944
X5.7162Y-4.3297
X5.8886Y-3.9598
X5.8886Y-4.1566
X6.0518Y-3.9744
X6.0518Y-4.1712
X6.101Y-3.0421
X6.101Y-3.2389
X6.1109Y-5.861
X6.1109Y-5.961
X6.1109Y-6.061
X6.1109Y-6.161
X6.1109Y-6.261
X6.1109Y-6.361
X6.1109Y-6.461
X6.1109Y-6.561
X6.1109Y-6.661
X6.1109Y-6.761
X6.1109Y-6.861
X6.1109Y-6.961
X6.1109Y-7.061
X6.1109Y-7.161
X6.1109Y-7.261
X6.1109Y-7.361
X6.1109Y-7.461
X6.1109Y-7.561
X6.1109Y-7.661
X6.1109Y-7.761
X6.2581Y-4.6413
X6.2581Y-5.0413
X6.305Y-7.4653
X6.305Y-7.8653
X6.3522Y-3.9259
X6.3522Y-4.1228
X6.3573Y-3.6059
X6.3573Y-3.8027
X6.4947Y-2.6053
X6.4947Y-2.7053
X6.4947Y-2.8053
X6.4947Y-2.9053
X6.4947Y-3.0053
X6.4947Y-3.1053
X6.4947Y-3.2053
X6.4947Y-3.3053
X6.4947Y-3.4053
X6.4947Y-3.5053
X6.4947Y-3.6053
X6.4947Y-3.7053
X6.4947Y-3.8053
X6.4947Y-3.9053
X6.4947Y-4.0053
X6.4947Y-4.1053
X6.4947Y-4.2053
X6.4947Y-4.3053
X6.4947Y-4.4053
X6.4947Y-4.5053
X6.594Y-5.8685
X6.594Y-5.9685
X6.594Y-6.0685
X6.594Y-6.1685
X6.594Y-6.2685
X6.594Y-6.3685
X6.594Y-6.4685
X6.594Y-6.5685
X6.594Y-6.6685
X6.594Y-6.7685
X6.594Y-6.8685
X6.594Y-6.9685
X6.594Y-7.0685
X6.594Y-7.1685
X6.594Y-7.2685
X6.594Y-7.3685
X6.594Y-7.4685
X6.594Y-7.5685
X6.594Y-7.6685
X6.594Y-7.7685
X6.594Y-7.9665
X6.7908Y-7.9665
X6.8097Y-2.2007
X6.8097Y-2.3976
X6.9373Y-2.2007
X6.9373Y-2.3976
X7.0947Y-2.6053
X7.0947Y-2.7053
X7.0947Y-2.8053
X7.0947Y-2.9053
X7.0947Y-3.0053
X7.0947Y-3.1053
X7.0947Y-3.2053
X7.0947Y-3.3053
X7.0947Y-3.4053
X7.0947Y-3.5053
X7.0947Y-3.6053
X7.0947Y-3.7053
X7.0947Y-3.8053
X7.0947Y-3.9053
X7.0947Y-4.0053
X7.0947Y-4.1053
X7.0947Y-4.2053
X7.0947Y-4.3053
X7.0947Y-4.4053
X7.0947Y-4.5053
X7.194Y-5.8685
X7.194Y-5.9685
X7.194Y-6.0685
X7.194Y-6.1685
X7.194Y-6.2685
X7.194Y-6.3685
X7.194Y-6.4685
X7.194Y-6.5685
X7.194Y-6.6685
X7.194Y-6.7685
X7.194Y-6.8685
X7.194Y-6.9685
X7.194Y-7.0685
X7.194Y-7.1685
X7.194Y-7.2685
X7.194Y-7.3685
X7.194Y-7.4685
X7.194Y-7.5685
X7.194Y-7.6685
X7.194Y-7.7685
X7.2195Y-3.6118
X7.2195Y-4.0118
X7.3416Y-7.4626
X7.3416Y-7.8626
X7.3865Y-3.309
X7.3865Y-3.709
X7.6164Y-7.7118
X7.6747Y-2.4263
X7.6747Y-2.5685
X7.7754Y-3.8488
X7.7762Y-2.9724
X7.7762Y-3.0724
X7.7762Y-3.1724
X7.7762Y-3.2724
X7.7762Y-3.3724
X7.7762Y-3.4724
X7.7762Y-3.5724
X7.7762Y-3.6724
X7.7762Y-4.0905
X7.7762Y-4.1905
X7.7762Y-4.2905
X7.7762Y-4.3905
X7.7762Y-4.4905
X7.7762Y-4.5905
X7.7762Y-4.6905
X7.7762Y-4.7905
X7.7762Y-4.9342
X7.8132Y-7.7118
X7.8396Y-6.3039
X7.8396Y-6.5007
X7.8715Y-2.4263
X7.8715Y-2.5685
X7.9719Y-5.8657
X7.9719Y-5.9657
X7.9719Y-6.0657
X7.9719Y-6.1657
X7.9719Y-6.2657
X7.9719Y-6.3657
X7.9719Y-6.4657
X7.9719Y-6.5657
X7.9719Y-6.6657
X7.9719Y-6.7657
X7.9719Y-6.8657
X7.9719Y-6.9657
X7.9719Y-7.0657
X7.9719Y-7.1657
X7.9719Y-7.2657
X7.9719Y-7.3657
X7.9719Y-7.4657
X7.9719Y-7.5657
X7.9719Y-7.6657
X7.9719Y-7.7657
X7.9723Y-3.8488
X7.9731Y-4.9342
X8.0321Y-5.2622
X8.0321Y-5.6622
X8.0672Y-2.4275
X8.0672Y-2.5669
X8.0762Y-2.9724
X8.0762Y-3.0724
X8.0762Y-3.1724
X8.0762Y-3.2724
X8.0762Y-3.3724
X8.0762Y-3.4724
X8.0762Y-3.5724
X8.0762Y-3.6724
X8.0762Y-4.0905
X8.0762Y-4.1905
X8.0762Y-4.2905
X8.0762Y-4.3905
X8.0762Y-4.4905
X8.0762Y-4.5905
X8.0762Y-4.6905
X8.0762Y-4.7905
X8.1518Y-5.2622
X8.1518Y-5.6622
X8.2613Y-3.8488
X8.2634Y-2.9724
X8.2634Y-3.0724
X8.2634Y-3.1724
X8.2634Y-3.2724
X8.2634Y-3.3724
X8.2634Y-3.4724
X8.2634Y-3.5724
X8.2634Y-3.6724
X8.264Y-2.4275
X8.264Y-2.5669
X8.2723Y-5.2622
X8.2723Y-5.6622
X8.3585Y-4.9342
X8.3589Y-4.0905
X8.3589Y-4.1905
X8.3589Y-4.2905
X8.3589Y-4.3905
X8.3589Y-4.4905
X8.3589Y-4.5905
X8.3589Y-4.6905
X8.3589Y-4.7905
X8.4581Y-3.8488
X8.5554Y-4.9342
X8.5577Y-5.2622
X8.5577Y-5.6622
X8.5634Y-2.9724
X8.5634Y-3.0724
X8.5634Y-3.1724
X8.5634Y-3.2724
X8.5634Y-3.3724
X8.5634Y-3.4724
X8.5634Y-3.5724
X8.5634Y-3.6724
X8.5719Y-5.8657
X8.5719Y-5.9657
X8.5719Y-6.0657
X8.5719Y-6.1657
X8.5719Y-6.2657
X8.5719Y-6.3657
X8.5719Y-6.4657
X8.5719Y-6.5657
X8.5719Y-6.6657
X8.5719Y-6.7657
X8.5719Y-6.8657
X8.5719Y-6.9657
X8.5719Y-7.0657
X8.5719Y-7.1657
X8.5719Y-7.2657
X8.5719Y-7.3657
X8.5719Y-7.4657
X8.5719Y-7.5657
X8.5719Y-7.6657
X8.5719Y-7.7657
X8.59Y-2.5122
X8.59Y-2.709
X8.6589Y-4.0905
X8.6589Y-4.1905
X8.6589Y-4.2905
X8.6589Y-4.3905
X8.6589Y-4.4905
X8.6589Y-4.5905
X8.6589Y-4.6905
X8.6589Y-4.7905
X8.6774Y-5.2622
X8.6774Y-5.6622
X8.714Y-3.7819
X8.714Y-3.9787
X8.7506Y-2.9724
X8.7506Y-3.0724
X8.7506Y-3.1724
X8.7506Y-3.2724
X8.7506Y-3.3724
X8.7506Y-3.4724
X8.7506Y-3.5724
X8.7506Y-3.6724
X8.7975Y-5.2622
X8.7975Y-5.6622
X8.8632Y-2.4082
X8.8632Y-2.8082
X9.0066Y-2.4082
X9.0066Y-2.8082
X9.0506Y-2.9724
X9.0506Y-3.0724
X9.0506Y-3.1724
X9.0506Y-3.2724
X9.0506Y-3.3724
X9.0506Y-3.4724
X9.0506Y-3.5724
X9.0506Y-3.6724
X9.0877Y-7.8586
X9.1361Y-6.1854
X9.1361Y-6.2854
X9.1361Y-6.3854
X9.1361Y-6.4854
X9.1361Y-6.5854
X9.1361Y-6.6854
X9.1361Y-6.7854
X9.1361Y-6.8854
X9.1361Y-6.9854
X9.1361Y-7.0854
X9.1361Y-7.1854
X9.1361Y-7.2854
X9.1361Y-7.3854
X9.1361Y-7.4854
X9.1463Y-2.5196
X9.1463Y-2.7165
X9.1904Y-3.9812
X9.1904Y-4.0812
X9.1904Y-4.1812
X9.1904Y-4.2812
X9.1904Y-4.3812
X9.1904Y-4.4812
X9.1904Y-4.5812
X9.1904Y-4.6812
X9.1904Y-4.7812
X9.1904Y-4.9342
X9.2379Y-2.9724
X9.2379Y-3.0724
X9.2379Y-3.1724
X9.2379Y-3.2724
X9.2379Y-3.3724
X9.2379Y-3.4724
X9.2379Y-3.5724
X9.2379Y-3.6724
X9.238Y-3.8488
X9.2845Y-7.8586
X9.3873Y-4.9342
X9.4349Y-3.8488
X9.4904Y-3.9812
X9.4904Y-4.0812
X9.4904Y-4.1812
X9.4904Y-4.2812
X9.4904Y-4.3812
X9.4904Y-4.4812
X9.4904Y-4.5812
X9.4904Y-4.6812
X9.4904Y-4.7812
X9.5247Y-2.4137
X9.5247Y-2.7137
X9.5379Y-2.9724
X9.5379Y-3.0724
X9.5379Y-3.1724
X9.5379Y-3.2724
X9.5379Y-3.3724
X9.5379Y-3.4724
X9.5379Y-3.5724
X9.5379Y-3.6724
X9.7247Y-3.8488
X9.7251Y-2.9724
X9.7251Y-3.0724
X9.7251Y-3.1724
X9.7251Y-3.2724
X9.7251Y-3.3724
X9.7251Y-3.4724
X9.7251Y-3.5724
X9.7251Y-3.6724
X9.7361Y-6.1854
X9.7361Y-6.2854
X9.7361Y-6.3854
X9.7361Y-6.4854
X9.7361Y-6.5854
X9.7361Y-6.6854
X9.7361Y-6.7854
X9.7361Y-6.8854
X9.7361Y-6.9854
X9.7361Y-7.0854
X9.7361Y-7.1854
X9.7361Y-7.2854
X9.7361Y-7.3854
X9.7361Y-7.4854
X9.8125Y-3.9792
X9.8125Y-4.0792
X9.8125Y-4.1792
X9.8125Y-4.2792
X9.8125Y-4.3792
X9.8125Y-4.4792
X9.8125Y-4.5792
X9.8125Y-4.6792
X9.8125Y-4.7792
X9.8125Y-4.9342
X9.901Y-7.5539
X9.901Y-7.7507
X9.9215Y-3.8488
X10.0093Y-4.9342
X10.0251Y-2.9724
X10.0251Y-3.0724
X10.0251Y-3.1724
X10.0251Y-3.2724
X10.0251Y-3.3724
X10.0251Y-3.4724
X10.0251Y-3.5724
X10.0251Y-3.6724
X10.0373Y-7.7259
X10.1125Y-3.9792
X10.1125Y-4.0792
X10.1125Y-4.1792
X10.1125Y-4.2792
X10.1125Y-4.3792
X10.1125Y-4.4792
X10.1125Y-4.5792
X10.1125Y-4.6792
X10.1125Y-4.7792
X10.2341Y-7.7259
X10.3912Y-5.8574
X10.3912Y-5.9574
X10.3912Y-6.0574
X10.3912Y-6.1574
X10.3912Y-6.2574
X10.3912Y-6.3574
X10.3912Y-6.4574
X10.3912Y-6.5574
X10.3912Y-6.6574
X10.3912Y-6.7574
X10.3912Y-6.8574
X10.3912Y-6.9574
X10.3912Y-7.0574
X10.3912Y-7.1574
X10.3912Y-7.2574
X10.3912Y-7.3574
X10.3912Y-7.4574
X10.3912Y-7.5574
X10.3912Y-7.6574
X10.3912Y-7.7574
X10.4038Y-2.4909
X10.4038Y-2.7909
X10.4436Y-3.4992
X10.4436Y-3.696
X10.5258Y-2.3913
X10.5258Y-2.7913
X10.5912Y-4.0826
X10.5912Y-4.1826
X10.5912Y-4.2826
X10.5912Y-4.3826
X10.5912Y-4.4826
X10.5912Y-4.5826
X10.5912Y-4.6826
X10.5912Y-4.7826
X10.5991Y-2.996
X10.5991Y-3.096
X10.5991Y-3.196
X10.5991Y-3.296
X10.5991Y-3.396
X10.5991Y-3.496
X10.5991Y-3.596
X10.5991Y-3.696
X10.6443Y-2.4909
X10.6443Y-2.7909
X10.6782Y-2.248
X10.7613Y-2.3913
X10.7613Y-2.7913
X10.868Y-5.2602
X10.868Y-5.6602
X10.8751Y-2.248
X10.8798Y-2.4161
X10.8798Y-2.7161
X10.8912Y-4.0826
X10.8912Y-4.1826
X10.8912Y-4.2826
X10.8912Y-4.3826
X10.8912Y-4.4826
X10.8912Y-4.5826
X10.8912Y-4.6826
X10.8912Y-4.7826
X10.8991Y-2.996
X10.8991Y-3.096
X10.8991Y-3.196
X10.8991Y-3.296
X10.8991Y-3.396
X10.8991Y-3.496
X10.8991Y-3.596
X10.8991Y-3.696
X10.9156Y-3.8925
X10.9884Y-5.2602
X10.9884Y-5.6602
X10.9912Y-5.8574
X10.9912Y-5.9574
X10.9912Y-6.0574
X10.9912Y-6.1574
X10.9912Y-6.2574
X10.9912Y-6.3574
X10.9912Y-6.4574
X10.9912Y-6.5574
X10.9912Y-6.6574
X10.9912Y-6.7574
X10.9912Y-6.8574
X10.9912Y-6.9574
X10.9912Y-7.0574
X10.9912Y-7.1574
X10.9912Y-7.2574
X10.9912Y-7.3574
X10.9912Y-7.4574
X10.9912Y-7.5574
X10.9912Y-7.6574
X10.9912Y-7.7574
X10.9971Y-2.3921
X10.9971Y-2.6921
X11.0833Y-3.0944
X11.0833Y-3.1944
X11.0833Y-3.2944
X11.0833Y-3.3944
X11.0833Y-3.4944
X11.0833Y-3.5944
X11.0833Y-3.6944
X11.1001Y-2.1905
X11.1125Y-3.8925
X11.1129Y-7.2547
X11.1129Y-7.6547
X11.116Y-2.3917
X11.116Y-2.7917
X11.1325Y-2.9145
X11.1569Y-7.8291
X11.1569Y-7.9602
X11.1788Y-2.1905
X11.2341Y-7.2547
X11.2341Y-7.6547
X11.2375Y-2.4031
X11.2375Y-2.6
X11.3294Y-2.9145
X11.3499Y-2.3004
X11.3499Y-2.6004
X11.3538Y-7.8291
X11.3538Y-7.9602
X11.3554Y-7.2547
X11.3554Y-7.6547
X11.3833Y-3.0944
X11.3833Y-3.1944
X11.3833Y-3.2944
X11.3833Y-3.3944
X11.3833Y-3.4944
X11.3833Y-3.5944
X11.3833Y-3.6944
X11.4625Y-2.3913
X11.4625Y-2.7913
X11.5924Y-2.7791
X11.5938Y-2.3889
X11.6754Y-7.3693
X11.7699Y-6.7
X11.7892Y-2.7791
X11.7907Y-2.3889
X11.8684Y-7.3693
T4
X4.153Y-3.3452
X4.153Y-3.8952
X4.3349Y-3.3378
X4.3349Y-3.8878
X8.4125Y-5.0822
X8.4125Y-5.6322
X9.3684Y-7.8563
X9.9184Y-7.8563
X10.7274Y-5.1137
X10.7274Y-5.6637
T5
X5.9959Y-4.6464
X5.9959Y-5.0464
X6.1333Y-4.6448
X6.1333Y-5.0448
T6
X6.0562Y-5.4736
X6.1562Y-5.4736
X6.2562Y-5.4736
X6.3562Y-5.4736
X6.4562Y-5.4736
X6.5562Y-5.4736
X6.6562Y-5.4736
X6.7562Y-5.4736
X6.8562Y-5.4736
X6.9562Y-5.4736
X7.0562Y-5.4736
X7.1562Y-5.4736
X7.2526Y-2.6594
X7.2526Y-2.7594
X7.2526Y-2.8594
X7.2526Y-2.9594
X7.2526Y-3.0594
X7.2526Y-3.1594
X7.2526Y-3.2594
X7.2526Y-3.3594
X7.2526Y-3.4594
X7.2562Y-5.4736
X7.3562Y-5.4736
X7.4562Y-5.4736
X7.5562Y-5.4736
X8.944Y-3.793
X8.944Y-3.893
X8.944Y-3.993
X8.944Y-4.093
X8.944Y-4.193
X8.944Y-4.293
X8.944Y-4.393
X8.944Y-4.493
X8.944Y-4.593
X8.944Y-4.693
X8.944Y-4.793
X8.944Y-4.893
X10.3219Y-3.793
X10.3219Y-3.893
X10.3219Y-3.993
X10.3219Y-4.093
X10.3219Y-4.193
X10.3219Y-4.293
X10.3219Y-4.393
X10.3219Y-4.493
X10.3219Y-4.593
X10.3219Y-4.693
X10.3219Y-4.793
X10.3219Y-4.893
X10.5479Y-3.8925
X10.6479Y-3.8925
X11.801Y-7.5696
X11.9979Y-7.5696
T7
X10.8558Y-1.6409
X11.0329Y-1.6409
T8
X11.5731Y-7.4661
X11.5731Y-7.663
T9
X11.8864Y-2.9791
X11.8864Y-3.0791
X11.8864Y-3.1791
X11.8864Y-3.2791
X11.8864Y-3.3791
X11.8864Y-3.4791
X11.8864Y-3.5791
X11.8864Y-3.6791
X11.8864Y-3.7791
X11.8864Y-3.8791
X11.8864Y-3.9791
X11.8864Y-4.0791
X11.8864Y-4.1791
X11.8864Y-4.2791
X11.8864Y-4.3791
X11.8864Y-4.4791
X11.8864Y-4.5791
X11.8864Y-4.6791
X11.8864Y-4.7791
X11.8864Y-4.8791
X12.0424Y-2.9791
X12.0424Y-3.0791
X12.0424Y-3.1791
X12.0424Y-3.2791
X12.0424Y-3.3791
X12.0424Y-3.4791
X12.0424Y-3.5791
X12.0424Y-3.6791
X12.0424Y-3.7791
X12.0424Y-3.8791
X12.0424Y-3.9791
X12.0424Y-4.0791
X12.0424Y-4.1791
X12.0424Y-4.2791
X12.0424Y-4.3791
X12.0424Y-4.4791
X12.0424Y-4.5791
X12.0424Y-4.6791
X12.0424Y-4.7791
X12.0424Y-4.8791
T10
X4.4046Y-5.8055
X4.6373Y-5.0941
X4.6479Y-6.1039
X4.7506Y-5.807
X4.7534Y-6.2582
X6.3522Y-4.2208
X7.6879Y-3.5393
X7.7617Y-7.8626
X9.0857Y-8.011
X9.0959Y-4.8952
X9.366Y-8.011
X9.9479Y-3.996
X11.2688Y-3.8917
X11.4829Y-5.8567
T11
X3.9609Y-4.4082
X3.9609Y-4.8082
X4.1278Y-4.409
X4.1278Y-4.809
X4.3526Y-5.4893
X4.3526Y-5.5893
X4.3526Y-5.6893
T12
X4.8865Y-4.1925
X5.1817Y-4.1925
X8.4377Y-2.3051
X8.4377Y-2.8051
X9.2912Y-2.307
X9.2912Y-2.807
T14
X5.8601Y-2.4732
X5.8601Y-2.5732
X5.8601Y-2.6732
X5.8601Y-2.7732
X5.8601Y-2.8732
X5.8601Y-3.1732
X5.8601Y-3.2732
X5.8601Y-3.3732
X7.1298Y-2.0944
X7.2282Y-1.7007
X7.2282Y-2.1929
X7.3266Y-1.7007
X7.4251Y-2.0944
X7.4251Y-2.2913
X7.5235Y-1.7007
X7.6219Y-1.7007
X7.6219Y-2.1929
X7.7203Y-2.0944
X8.001Y-2.0944
X8.0995Y-1.7007
X8.0995Y-2.1929
X8.1979Y-1.7007
X8.2963Y-2.0944
X8.2963Y-2.2913
X8.3947Y-1.7007
X8.4932Y-1.7007
X8.4932Y-2.1929
X8.5916Y-2.0944
X8.8648Y-2.0944
X8.9633Y-1.7007
X8.9633Y-2.0944
X8.9633Y-2.1929
X9.0617Y-1.7007
X9.0617Y-2.1929
X9.2585Y-1.7007
X9.2585Y-2.1929
X9.357Y-1.7007
X9.357Y-2.0944
X9.357Y-2.1929
X9.4554Y-2.0944
X9.6762Y-2.4539
X9.6762Y-2.7539
X9.7361Y-2.0944
X9.8345Y-1.7007
X9.8345Y-2.1929
X9.9329Y-1.7007
X10.0314Y-2.0944
X10.1162Y-2.4539
X10.1298Y-1.7007
X10.1762Y-2.7539
X10.2282Y-1.7007
X10.2282Y-2.1929
X10.2762Y-2.4539
X10.3266Y-2.0944
T15
X6.3983Y-1.6696
X6.3983Y-1.7681
X6.5558Y-1.6696
X6.5558Y-1.7681
X6.7132Y-1.6696
X6.7132Y-1.7681
T16
X10.8066Y-1.7393
X11.0821Y-1.7393
T17
X4.3105Y-4.2074
X4.3105Y-4.8074
X4.5392Y-4.2051
X4.5392Y-4.8051
T18
X3.852Y-2.1232
X3.852Y-2.2807
X3.852Y-2.4381
X4.0882Y-2.1232
X4.0882Y-2.2807
X4.0882Y-2.4381
T19
X6.2369Y-1.7189
X6.8747Y-1.7189
T20
X3.8349Y-3.4067
X3.8377Y-3.1169
X3.8377Y-3.8031
T21
X12.2274Y-2.6416
X12.2274Y-5.2166
T13
G00X4.5806Y-2.7972
M15
G01X4.5806Y-2.5413
M16
G05
G00X5.18Y-1.6604
M15
G01X5.4359Y-1.6604
M16
G05
G00X5.18Y-3.6486
M15
G01X5.4359Y-3.6486
M16
G05
G00X6.0018Y-2.7972
M15
G01X6.0018Y-2.5413
M16
G05
T0
M30
