%TF.GenerationSoftware,KiCad,Pcbnew,6.0.8-f2edbf62ab~116~ubuntu20.04.1*%
%TF.CreationDate,2022-10-23T21:23:01-04:00*%
%TF.ProjectId,coco2,636f636f-322e-46b6-9963-61645f706362,1.0.0*%
%TF.SameCoordinates,Original*%
%TF.FileFunction,Legend,Bot*%
%TF.FilePolarity,Positive*%
%FSLAX46Y46*%
G04 Gerber Fmt 4.6, Leading zero omitted, Abs format (unit mm)*
G04 Created by KiCad (PCBNEW 6.0.8-f2edbf62ab~116~ubuntu20.04.1) date 2022-10-23 21:23:01*
%MOMM*%
%LPD*%
G01*
G04 APERTURE LIST*
%ADD10C,0.150000*%
%ADD11C,0.152400*%
%ADD12C,0.120000*%
G04 APERTURE END LIST*
D10*
%TO.C,CN1*%
X298548780Y-126568523D02*
X298548780Y-125949476D01*
X298929733Y-126282809D01*
X298929733Y-126139952D01*
X298977352Y-126044714D01*
X299024971Y-125997095D01*
X299120209Y-125949476D01*
X299358304Y-125949476D01*
X299453542Y-125997095D01*
X299501161Y-126044714D01*
X299548780Y-126139952D01*
X299548780Y-126425666D01*
X299501161Y-126520904D01*
X299453542Y-126568523D01*
X299548780Y-125473285D02*
X299548780Y-125282809D01*
X299501161Y-125187571D01*
X299453542Y-125139952D01*
X299310685Y-125044714D01*
X299120209Y-124997095D01*
X298739257Y-124997095D01*
X298644019Y-125044714D01*
X298596400Y-125092333D01*
X298548780Y-125187571D01*
X298548780Y-125378047D01*
X298596400Y-125473285D01*
X298644019Y-125520904D01*
X298739257Y-125568523D01*
X298977352Y-125568523D01*
X299072590Y-125520904D01*
X299120209Y-125473285D01*
X299167828Y-125378047D01*
X299167828Y-125187571D01*
X299120209Y-125092333D01*
X299072590Y-125044714D01*
X298977352Y-124997095D01*
X305642114Y-126784714D02*
X306308780Y-126784714D01*
X305261161Y-127022809D02*
X305975447Y-127260904D01*
X305975447Y-126641857D01*
X305308780Y-126070428D02*
X305308780Y-125975190D01*
X305356400Y-125879952D01*
X305404019Y-125832333D01*
X305499257Y-125784714D01*
X305689733Y-125737095D01*
X305927828Y-125737095D01*
X306118304Y-125784714D01*
X306213542Y-125832333D01*
X306261161Y-125879952D01*
X306308780Y-125975190D01*
X306308780Y-126070428D01*
X306261161Y-126165666D01*
X306213542Y-126213285D01*
X306118304Y-126260904D01*
X305927828Y-126308523D01*
X305689733Y-126308523D01*
X305499257Y-126260904D01*
X305404019Y-126213285D01*
X305356400Y-126165666D01*
X305308780Y-126070428D01*
X299978780Y-73713285D02*
X299978780Y-74284714D01*
X299978780Y-73999000D02*
X298978780Y-73999000D01*
X299121638Y-74094238D01*
X299216876Y-74189476D01*
X299264495Y-74284714D01*
X305504019Y-72884714D02*
X305456400Y-72837095D01*
X305408780Y-72741857D01*
X305408780Y-72503761D01*
X305456400Y-72408523D01*
X305504019Y-72360904D01*
X305599257Y-72313285D01*
X305694495Y-72313285D01*
X305837352Y-72360904D01*
X306408780Y-72932333D01*
X306408780Y-72313285D01*
D11*
X306257400Y-83924000D02*
G75*
G03*
X306257400Y-83924000I-381000J0D01*
G01*
D12*
%TO.C,A1*%
X94364900Y-79169000D02*
G75*
G03*
X94364900Y-79169000I-381000J0D01*
G01*
%TO.C,A2*%
X94294900Y-86529000D02*
G75*
G03*
X94294900Y-86529000I-381000J0D01*
G01*
%TO.C,A3*%
X94364900Y-96599000D02*
G75*
G03*
X94364900Y-96599000I-381000J0D01*
G01*
%TD*%
M02*
